SplineFontDB: 3.2
FontName: zvvnmod
FullName: zvvnmod
FamilyName: zvvnmod
Weight: Regular
Copyright: Copyright (c) 2020, zorigt
UComments: "2020-9-22: Created with FontForge (http://fontforge.org)"
Version: 001.000
ItalicAngle: 0
UnderlinePosition: -204.8
UnderlineWidth: 102.4
Ascent: 1638
Descent: 410
InvalidEm: 0
LayerCount: 2
Layer: 0 0 "Back" 1
Layer: 1 0 "Fore" 0
XUID: [1021 743 151777908 15387923]
OS2Version: 0
OS2_WeightWidthSlopeOnly: 0
OS2_UseTypoMetrics: 1
CreationTime: 1600756102
ModificationTime: 1600808576
OS2TypoAscent: 0
OS2TypoAOffset: 1
OS2TypoDescent: 0
OS2TypoDOffset: 1
OS2TypoLinegap: 0
OS2WinAscent: 0
OS2WinAOffset: 1
OS2WinDescent: 0
OS2WinDOffset: 1
HheadAscent: 0
HheadAOffset: 1
HheadDescent: 0
HheadDOffset: 1
OS2Vendor: 'PfEd'
MarkAttachClasses: 1
DEI: 91125
Encoding: UnicodeBmp
UnicodeInterp: none
NameList: AGL For New Fonts
DisplaySize: -48
AntiAlias: 1
FitToEm: 0
WinInfo: 57304 29 11
BeginPrivate: 0
EndPrivate
BeginChars: 65536 134

StartChar: uniE000
Encoding: 57344 57344 0
Width: 746
Flags: HW
LayerCount: 2
Fore
SplineSet
361 1043 m 0
 393 1063.66699219 423 1071.33300781 451 1066 c 0
 503.666992188 1054 529 1002.66699219 527 912 c 2
 527 800 l 1
 766 800 l 1
 766 586 l 1
 591 586 l 1
 577 496.666992188 560 388.666992188 540 262 c 1
 521.333007812 244 505.666992188 243.333007812 493 260 c 1
 467.666992188 306 445.333007812 369 426 449 c 1
 411 608 l 1
 416 724 l 1
 414 818 396 865.333007812 362 866 c 1
 324.666992188 863.333007812 266.333007812 835.666992188 187 783 c 0
 152.333007812 760.333007812 134 765.666992188 132 799 c 1
 217.333007812 920.333007812 293.666992188 1001.66699219 361 1043 c 0
EndSplineSet
EndChar

StartChar: uniE001
Encoding: 57345 57345 1
Width: 668
Flags: HW
LayerCount: 2
Fore
SplineSet
110 800 m 1
 699 800 l 1
 699 586 l 1
 496 586 l 1
 502 539.333007812 503.333007812 482 500 414 c 0
 489.333007812 256.666992188 431 172.666992188 325 162 c 0
 255 154.666992188 198.333007812 187.666992188 155 261 c 0
 123 313.666992188 108.333007812 399.333007812 111 518 c 1
 110 586 l 1
 110 800 l 1
302 327 m 1
 375.333007812 327.666992188 420 366 436 442 c 0
 446 486 445.333007812 534 434 586 c 1
 207 586 l 1
 179 582.666992188 165 551.333007812 165 492 c 1
 171.666992188 390 217.333007812 335 302 327 c 1
EndSplineSet
EndChar

StartChar: uniE005
Encoding: 57349 57349 2
Width: 468
Flags: HW
LayerCount: 2
Fore
SplineSet
264 800 m 1
 264 586 l 1
 -36 586 l 5
 -36 800 l 5
 264 800 l 1
114 800 m 1
 487 800 l 1
 487 586 l 1
 309 586 l 1
 289 448.666992188 269 336.666992188 249 250 c 1
 231 230 211 230 189 250 c 1
 162.333007812 336.666992188 137.333007812 448.666992188 114 586 c 1
 114 800 l 1
EndSplineSet
EndChar

StartChar: uniE006
Encoding: 57350 57350 3
Width: 607
Flags: HW
LayerCount: 2
Fore
SplineSet
634 800 m 1
 634 586 l 1
 255 586 l 1
 303.666992188 514.666992188 376.333007812 410 473 272 c 1
 464 251 l 2
 446 209.666992188 430 137.333007812 416 34 c 1
 408 23.3330078125 397.666992188 21 385 27 c 1
 361.666992188 59 326.333007812 141.666992188 279 275 c 1
 193 474.333007812 134 586 134 586 c 1
 -45 586 l 1
 -45 800 l 1
 634 800 l 1
EndSplineSet
EndChar

StartChar: uniE008
Encoding: 57352 57352 4
Width: 652
Flags: HW
LayerCount: 2
Fore
SplineSet
254 800 m 1
 254 586 l 1
 -46 586 l 1
 -46 800 l 1
 254 800 l 1
94 800 m 1
 683 800 l 1
 683 586 l 1
 480 586 l 1
 486 539.333007812 487.333007812 482 484 414 c 0
 473.333007812 256.666992188 415 172.666992188 309 162 c 0
 239 154.666992188 182.333007812 187.666992188 139 261 c 0
 107 313.666992188 92.3330078125 399.333007812 95 518 c 1
 94 586 l 1
 94 800 l 1
286 327 m 1
 359.333007812 327.666992188 404 366 420 442 c 0
 430 486 429.333007812 534 418 586 c 1
 191 586 l 1
 163 582.666992188 149 551.333007812 149 492 c 1
 155.666992188 390 201.333007812 335 286 327 c 1
EndSplineSet
EndChar

StartChar: uniE00C
Encoding: 57356 57356 5
Width: 1097
Flags: HW
LayerCount: 2
Fore
SplineSet
243 800 m 1
 243 586 l 1
 -57 586 l 1
 -57 800 l 1
 243 800 l 1
93 800 m 1
 251 800 l 1
 247.666992188 734.666992188 250.333007812 678.333007812 259 631 c 1
 277.666992188 559 302.333007812 508 333 478 c 128
 363.666992188 448 382.666992188 448.333007812 390 479 c 128
 397.333007812 509.666992188 406.666992188 572 418 666 c 0
 435.333007812 789.333007812 503 976.666992188 621 1228 c 1
 683 1344.66699219 710 1424.33300781 702 1467 c 1
 690 1605 l 1
 691 1635 l 1
 699 1672.33300781 722 1683.33300781 760 1668 c 1
 830.666992188 1510.66699219 889.333007812 1384.33300781 936 1289 c 1
 872 1203 l 2
 845.333007812 1169 804.333007812 1107.66699219 749 1019 c 0
 703 946.333007812 658.333007812 855 615 745 c 0
 575 639.666992188 550.666992188 523.666992188 542 397 c 0
 536.666992188 347.666992188 534.833007812 301.333007812 536.5 258 c 128
 538.166992188 214.666992188 536 183.666992188 530 165 c 1
 513.333007812 151.666992188 495.333007812 150.333007812 476 161 c 0
 402 201 332.666992188 274.666992188 268 382 c 0
 218.666992188 462 185.666992188 530 169 586 c 1
 93 586 l 1
 93 800 l 1
EndSplineSet
EndChar

StartChar: uniE00D
Encoding: 57357 57357 6
Width: 687
Flags: HW
LayerCount: 2
Fore
SplineSet
370 800 m 1
 505.333333333 774 569.333333333 601 562 281 c 1
 565.333333333 171.666666667 560.5 71.1666666667 547.5 -20.5 c 128
 534.5 -112.166666667 496.333333333 -181.333333333 433 -228 c 0
 384.333333333 -262.666666667 342.333333333 -306.666666667 307 -360 c 1
 281.666666667 -410.666666667 259.333333333 -436.333333333 240 -437 c 0
 220.666666667 -440.333333333 209.666666667 -432.666666667 207 -414 c 1
 276 -115 l 1
 305.333333333 -111 333.333333333 -103.666666667 360 -93 c 1
 421.333333333 -53.6666666667 455 -1.66666666667 461 63 c 1
 466 163 l 1
 466 424 l 1
 453.333333333 476.666666667 434 514.666666667 408 538 c 1
 378 573.333333333 327 589.333333333 255 586 c 1
 0 586 l 1
 0 800 l 1
 370 800 l 1
EndSplineSet
EndChar

StartChar: uniE00E
Encoding: 57358 57358 7
Width: 699
Flags: HW
LayerCount: 2
Fore
SplineSet
128 800 m 1
 128 800 174 964.666992188 214 1030 c 0
 238 1066.66699219 265.333007812 1098 296 1124 c 0
 334.666992188 1158.66699219 375 1172.66699219 417 1166 c 1
 464.333007812 1166 502.333007812 1140.33300781 531 1089 c 0
 563.666992188 1034.33300781 582.666992188 955.666992188 588 853 c 2
 589 818 l 2
 593.666992188 736 584.666992188 698.333007812 562 705 c 0
 554 705 535.666992188 754.333007812 507 853 c 0
 498.333007812 883.666992188 487 909.333007812 473 930 c 0
 451 963.333007812 422.666992188 978 388 974 c 0
 358 971.333007812 331.333007812 959.333007812 308 938 c 0
 264.666992188 892.666992188 236 840.333007812 222 781 c 0
 209.333007812 723 210.333007812 673 225 631 c 1
 243.666992188 564.333007812 280 508.666992188 334 464 c 1
 415.333007812 404 451 355 441 317 c 1
 447 221 449 162.333007812 447 141 c 1
 435.666992188 132.333007812 426.666992188 129 420 131 c 0
 372 169.666992188 315.333007812 240.333007812 250 343 c 0
 204.666992188 415.666992188 132 586 132 586 c 1
 -58 586 l 17
 -58 800 l 9
 128 800 l 1
EndSplineSet
EndChar

StartChar: uniE00F
Encoding: 57359 57359 8
Width: 593
Flags: HW
LayerCount: 2
Fore
SplineSet
256 800 m 1
 256 586 l 1
 -44 586 l 1
 -44 800 l 1
 256 800 l 1
116 800 m 1
 506 800 l 1
 506 586 l 2
 508 539.333007812 507 482 503 414 c 0
 494.333007812 263.333007812 434.333007812 179 323 161 c 1
 249 163 194.333007812 199.666992188 159 271 c 1
 124.333007812 347.666992188 110 452.666992188 116 586 c 1
 116 800 l 1
304 327 m 1
 375.333007812 331.666992188 421.666992188 370 443 442 c 1
 451 486 451 534 443 586 c 1
 206 586 l 1
 190 576 182.666992188 544.666992188 184 492 c 0
 184 390 224 335 304 327 c 1
EndSplineSet
EndChar

StartChar: uniE010
Encoding: 57360 57360 9
Width: 1074
Flags: HW
LayerCount: 2
Fore
SplineSet
256 800 m 1
 256 586 l 1
 -44 586 l 1
 -44 800 l 1
 256 800 l 1
674 800 m 1
 784.666992188 796.666992188 857.333007812 778.666992188 892 746 c 1
 946 701.333007812 977 631.666992188 985 537 c 1
 987 431 967.666992188 353 927 303 c 1
 891.666992188 281 874 287.333007812 874 322 c 2
 874 332 l 1
 880 366 l 1
 878.666992188 473.333007812 854 541 806 569 c 1
 780 579.666992188 736 585.666992188 674 587 c 1
 674 800 l 1
116 800 m 1
 705 800 l 1
 705 586 l 1
 502 586 l 1
 508 539.333007812 509.333007812 482 506 414 c 0
 495.333007812 256.666992188 437 172.666992188 331 162 c 0
 261 154.666992188 204.333007812 187.666992188 161 261 c 0
 129 313.666992188 114.333007812 399.333007812 117 518 c 1
 116 586 l 1
 116 800 l 1
308 327 m 1
 381.333007812 327.666992188 426 366 442 442 c 0
 452 486 451.333007812 534 440 586 c 1
 213 586 l 1
 185 582.666992188 171 551.333007812 171 492 c 1
 177.666992188 390 223.333007812 335 308 327 c 1
EndSplineSet
EndChar

StartChar: uniE011
Encoding: 57361 57361 10
Width: 841
Flags: HW
LayerCount: 2
Fore
SplineSet
258 800 m 1
 258 586 l 1
 -42 586 l 1
 -42 800 l 1
 258 800 l 1
108 800 m 1
 122 1014.66699219 207 1149.66699219 363 1205 c 1
 464.333007812 1229 545 1202.33300781 605 1125 c 1
 671 1048.33300781 710.333007812 940 723 800 c 1
 670 586 l 1
 645.333007812 729.333007812 618 832 588 894 c 0
 542.666992188 995.333007812 486.333007812 1044.66699219 419 1042 c 1
 358.333007812 1036 307.666992188 1008 267 958 c 128
 226.333007812 908 203.333007812 855.333007812 198 800 c 1
 411 800 l 1
 526.333007812 768.666992188 572.333007812 638.666992188 549 410 c 1
 529 244 466.333007812 160.333007812 361 159 c 0
 259 159 190.333007812 212.666992188 155 320 c 0
 135.666992188 378 120 466.666992188 108 586 c 1
 108 800 l 1
348 344 m 1
 436 344 477 424.666992188 471 586 c 1
 207 586 l 1
 201.666992188 432 248.666992188 351.333007812 348 344 c 1
EndSplineSet
EndChar

StartChar: uniE01A
Encoding: 57370 57370 11
Width: 699
Flags: HW
LayerCount: 2
Fore
SplineSet
88 800 m 1
 124 800 l 1
 141.333007812 888 170 964.666992188 210 1030 c 0
 234 1066.66699219 261.333007812 1098 292 1124 c 0
 330.666992188 1158.66699219 371 1172.66699219 413 1166 c 1
 460.333007812 1166 498.333007812 1140.33300781 527 1089 c 0
 559.666992188 1034.33300781 578.666992188 955.666992188 584 853 c 2
 585 818 l 2
 589.666992188 736 580.666992188 698.333007812 558 705 c 0
 550 705 531.666992188 754.333007812 503 853 c 0
 494.333007812 883.666992188 483 909.333007812 469 930 c 0
 447 963.333007812 418.666992188 978 384 974 c 0
 354 971.333007812 327.333007812 959.333007812 304 938 c 0
 260.666992188 892.666992188 232 840.333007812 218 781 c 0
 205.333007812 723 206.333007812 673 221 631 c 1
 239.666992188 564.333007812 276 508.666992188 330 464 c 1
 411.333007812 404 447 355 437 317 c 1
 443 221 445 162.333007812 443 141 c 1
 431.666992188 132.333007812 422.666992188 129 416 131 c 0
 368 169.666992188 311.333007812 240.333007812 246 343 c 0
 200.666992188 415.666992188 161.333007812 496.666992188 128 586 c 1
 88 586 l 1
 88 800 l 1
EndSplineSet
EndChar

StartChar: uniE01B
Encoding: 57371 57371 12
Width: 835
Flags: HW
LayerCount: 2
Fore
SplineSet
105 800 m 1
 119 1014.66699219 204 1149.66699219 360 1205 c 1
 461.333007812 1229 542 1202.33300781 602 1125 c 1
 668 1048.33300781 707.333007812 940 720 800 c 1
 667 586 l 1
 642.333007812 729.333007812 615 832 585 894 c 0
 539.666992188 995.333007812 483.333007812 1044.66699219 416 1042 c 1
 355.333007812 1036 304.666992188 1008 264 958 c 128
 223.333007812 908 200.333007812 855.333007812 195 800 c 1
 408 800 l 1
 523.333007812 768.666992188 569.333007812 638.666992188 546 410 c 1
 526 244 463.333007812 160.333007812 358 159 c 0
 256 159 187.333007812 212.666992188 152 320 c 0
 132.666992188 378 117 466.666992188 105 586 c 1
 105 800 l 1
345 344 m 1
 433 344 474 424.666992188 468 586 c 1
 204 586 l 1
 198.666992188 432 245.666992188 351.333007812 345 344 c 1
EndSplineSet
EndChar

StartChar: uniE027
Encoding: 57383 57383 13
Width: 811
Flags: HW
LayerCount: 2
Fore
SplineSet
355 1043 m 0
 387 1063.66699219 417 1071.33300781 445 1066 c 0
 497.666992188 1054 523 1002.66699219 521 912 c 2
 521 800 l 1
 826 800 l 1
 826 586 l 1
 585 586 l 1
 571 496.666992188 554 388.666992188 534 262 c 1
 515.333007812 244 499.666992188 243.333007812 487 260 c 1
 461.666992188 306 439.333007812 369 420 449 c 1
 405 608 l 1
 410 724 l 1
 408 818 390 865.333007812 356 866 c 1
 318.666992188 863.333007812 260.333007812 835.666992188 181 783 c 0
 146.333007812 760.333007812 128 765.666992188 126 799 c 1
 211.333007812 920.333007812 287.666992188 1001.66699219 355 1043 c 0
588 10 m 0
 588 -0.6669921875 581.333007812 -12.1669921875 568 -24.5 c 128
 554.666992188 -36.8330078125 542.5 -46.6669921875 531.5 -54 c 128
 520.5 -61.3330078125 510 -70.6669921875 500 -82 c 0
 483.333007812 -99.3330078125 468.833007812 -116.333007812 456.5 -133 c 128
 444.166992188 -149.666992188 432.666992188 -158.666992188 422 -160 c 0
 406 -160.666992188 393.166992188 -157.166992188 383.5 -149.5 c 128
 373.833007812 -141.833007812 369 -129.666992188 369 -113 c 0
 367 -87.6669921875 373.666992188 -54 389 -12 c 0
 399 14.6669921875 410.833007812 36.1669921875 424.5 52.5 c 128
 438.166992188 68.8330078125 450.333007812 80.3330078125 461 87 c 128
 471.666992188 93.6669921875 484 97 498 97 c 256
 512 97 527.666992188 90 545 76 c 0
 573.666992188 51.3330078125 588 29.3330078125 588 10 c 0
EndSplineSet
EndChar

StartChar: uniE028
Encoding: 57384 57384 14
Width: 460
Flags: HW
LayerCount: 2
Fore
SplineSet
256 800 m 1
 256 586 l 1
 -44 586 l 1
 -44 800 l 1
 256 800 l 1
106 800 m 1
 479 800 l 1
 479 586 l 1
 301 586 l 1
 280.333007812 458.666992188 262.333007812 349 247 257 c 1
 228.333007812 237 207.666992188 236 185 254 c 1
 156.333007812 369.333007812 130 480 106 586 c 1
 106 800 l 1
338 10 m 0
 338 -0.6669921875 331.333007812 -12.1669921875 318 -24.5 c 128
 304.666992188 -36.8330078125 292.5 -46.6669921875 281.5 -54 c 128
 270.5 -61.3330078125 260 -70.6669921875 250 -82 c 0
 233.333007812 -99.3330078125 218.833007812 -116.333007812 206.5 -133 c 128
 194.166992188 -149.666992188 182.666992188 -158.666992188 172 -160 c 0
 156 -160.666992188 143.166992188 -157.166992188 133.5 -149.5 c 128
 123.833007812 -141.833007812 119 -129.666992188 119 -113 c 0
 117 -87.6669921875 123.666992188 -54 139 -12 c 0
 149 14.6669921875 160.833007812 36.1669921875 174.5 52.5 c 128
 188.166992188 68.8330078125 200.333007812 80.3330078125 211 87 c 128
 221.666992188 93.6669921875 234 97 248 97 c 256
 262 97 277.666992188 90 295 76 c 0
 323.666992188 51.3330078125 338 29.3330078125 338 10 c 0
EndSplineSet
EndChar

StartChar: uniE029
Encoding: 57385 57385 15
Width: 815
Flags: HW
LayerCount: 2
Fore
SplineSet
108 800 m 1
 158.666992188 1058.66699219 269.333007812 1193.66699219 440 1205 c 1
 571.333007812 1183.66699219 647.333007812 1087.66699219 668 917 c 1
 671.333007812 835.666992188 728.666992188 796.666992188 840 800 c 1
 840 586 l 1
 709.333007812 582 635 615.333007812 617 686 c 0
 573.666992188 882 518 984.666992188 450 994 c 1
 341.333007812 1014.66699219 260.666992188 950 208 800 c 1
 396 800 l 1
 484.666992188 779.333007812 534.333007812 708 545 586 c 1
 546.333007812 314 479.666992188 175 345 169 c 1
 265.666992188 175 202.333007812 232 155 340 c 0
 131 399.333007812 115.333007812 481.333007812 108 586 c 1
 108 800 l 1
341 347 m 1
 424.333007812 351.666992188 461 431.333007812 451 586 c 1
 207 586 l 1
 218.333007812 429.333007812 263 349.666992188 341 347 c 1
EndSplineSet
EndChar

StartChar: uniE02A
Encoding: 57386 57386 16
Width: 805
Flags: HW
LayerCount: 2
Fore
SplineSet
248 800 m 1
 248 586 l 1
 -52 586 l 1
 -52 800 l 1
 248 800 l 1
98 800 m 1
 148.666992188 1058.66699219 259.333007812 1193.66699219 430 1205 c 1
 561.333007812 1183.66699219 637.333007812 1087.66699219 658 917 c 1
 661.333007812 835.666992188 718.666992188 796.666992188 830 800 c 1
 830 586 l 1
 699.333007812 582 625 615.333007812 607 686 c 0
 563.666992188 882 508 984.666992188 440 994 c 1
 331.333007812 1014.66699219 250.666992188 950 198 800 c 1
 386 800 l 1
 474.666992188 779.333007812 524.333007812 708 535 586 c 1
 536.333007812 314 469.666992188 175 335 169 c 1
 255.666992188 175 192.333007812 232 145 340 c 0
 121 399.333007812 105.333007812 481.333007812 98 586 c 1
 98 800 l 1
331 347 m 1
 414.333007812 351.666992188 451 431.333007812 441 586 c 1
 197 586 l 1
 208.333007812 429.333007812 253 349.666992188 331 347 c 1
EndSplineSet
EndChar

StartChar: uniE02B
Encoding: 57387 57387 17
Width: 832
Flags: HW
LayerCount: 2
Fore
SplineSet
254 800 m 1
 254 586 l 1
 -46 586 l 1
 -46 800 l 1
 254 800 l 1
103 800 m 1
 137.666992188 986.666992188 207.333007812 1121.66699219 312 1205 c 0
 360 1240.33300781 410.333007812 1256.33300781 463 1253 c 1
 573.666992188 1240.33300781 653 1160.66699219 701 1014 c 1
 723 930.666992188 736.333007812 820 741 682 c 1
 741 400 742.333007812 213.333007812 745 122 c 1
 745 -1.3330078125 695 -105.333007812 595 -190 c 1
 537 -228 494.333007812 -263.666992188 467 -297 c 1
 448 -302 l 1
 439 -302 l 1
 439 -297 l 1
 490 -56 l 1
 487.333007812 -29.3330078125 530 8 618 56 c 1
 652.666992188 92.6669921875 671.666992188 135 675 183 c 1
 679 546 l 1
 676.333007812 776 642.666992188 923.333007812 578 988 c 0
 535.333007812 1027.33300781 492 1045.33300781 448 1042 c 0
 376.666992188 1038.66699219 320 1010.66699219 278 958 c 1
 236.666992188 900.666992188 210.666992188 848 200 800 c 1
 514 800 l 1
 514 586 l 2
 513.333007812 454 498.333007812 351.333007812 469 278 c 128
 439.666992188 204.666992188 389.333007812 165.333007812 318 160 c 1
 232 160 169.666992188 233.333007812 131 380 c 1
 116.333007812 452 107 520.666992188 103 586 c 1
 103 800 l 1
326 349 m 1
 409.333007812 353 446 432 436 586 c 1
 187 586 l 1
 190.333007812 430 236.666992188 351 326 349 c 1
EndSplineSet
EndChar

StartChar: uniE02C
Encoding: 57388 57388 18
Width: 925
Flags: HW
LayerCount: 2
Fore
SplineSet
138 800 m 1
 175.333007812 926.666992188 227.833007812 1025 295.5 1095 c 128
 363.166992188 1165 437.666992188 1200.66699219 519 1202 c 1
 681.666992188 1192.66699219 770.666992188 1076.33300781 786 853 c 1
 816 802.333007812 870.666992188 784.666992188 950 800 c 1
 950 586 l 1
 830.666992188 556.666992188 752 606 714 734 c 1
 680 928 597 1014.66699219 465 994 c 1
 378.333007812 984.666992188 305 920 245 800 c 1
 461 800 l 2
 506.333007812 798.666992188 543.666992188 782.666992188 573 752 c 1
 595 720.666992188 606 679.666992188 606 629 c 2
 606 615 l 1
 610.666992188 423 583.333007812 298.333007812 524 241 c 0
 494 211.666992188 427.333007812 187 324 167 c 1
 294.666992188 156.333007812 254.666992188 143 204 127 c 1
 199 131 l 1
 203 188 l 1
 217.666992188 288 253.333007812 348.666992188 310 370 c 1
 416 384 l 2
 466.666992188 392 499.333007812 410.666992188 514 440 c 1
 533.333007812 503.333007812 539.666992188 552 533 586 c 1
 138 586 l 1
 138 800 l 1
EndSplineSet
EndChar

StartChar: uniE02D
Encoding: 57389 57389 19
Width: 898
Flags: HW
LayerCount: 2
Fore
SplineSet
251 800 m 1
 251 586 l 1
 -49 586 l 1
 -49 800 l 1
 251 800 l 1
111 800 m 1
 148.333007812 926.666992188 200.833007812 1025 268.5 1095 c 128
 336.166992188 1165 410.666992188 1200.66699219 492 1202 c 1
 654.666992188 1192.66699219 743.666992188 1076.33300781 759 853 c 1
 789 802.333007812 843.666992188 784.666992188 923 800 c 1
 923 586 l 1
 803.666992188 556.666992188 725 606 687 734 c 1
 653 928 570 1014.66699219 438 994 c 1
 351.333007812 984.666992188 278 920 218 800 c 1
 434 800 l 2
 479.333007812 798.666992188 516.666992188 782.666992188 546 752 c 1
 568 720.666992188 579 679.666992188 579 629 c 2
 579 615 l 1
 583.666992188 423 556.333007812 298.333007812 497 241 c 0
 467 211.666992188 400.333007812 187 297 167 c 1
 267.666992188 156.333007812 227.666992188 143 177 127 c 1
 172 131 l 1
 176 188 l 1
 190.666992188 288 226.333007812 348.666992188 283 370 c 1
 389 384 l 2
 439.666992188 392 472.333007812 410.666992188 487 440 c 1
 506.333007812 503.333007812 512.666992188 552 506 586 c 1
 111 586 l 1
 111 800 l 1
EndSplineSet
EndChar

StartChar: uniE02E
Encoding: 57390 57390 20
Width: 829
Flags: HW
LayerCount: 2
Fore
SplineSet
249 800 m 1
 249 586 l 1
 -51 586 l 1
 -51 800 l 1
 249 800 l 1
97 800 m 1
 138.333007812 990 207.333007812 1119.33300781 304 1188 c 1
 347.333007812 1224 401.333007812 1240 466 1236 c 0
 580 1225.33300781 655.666992188 1151.33300781 693 1014 c 0
 713.666992188 930.666992188 726.333007812 820 731 682 c 1
 731 400 732 213 734 121 c 0
 733.333007812 -1.6669921875 683.666992188 -105 585 -189 c 1
 527.666992188 -227.666992188 485.333007812 -263 458 -295 c 1
 429 -301 l 1
 429 -297 l 1
 475 -75 l 1
 475 -35.6669921875 519.666992188 1.3330078125 609 36 c 1
 642.333007812 71.3330078125 661.333007812 111.666992188 666 157 c 1
 666 547 l 1
 647.333007812 865.666992188 571 1028.33300781 437 1035 c 1
 331.666992188 1026.33300781 252 948 198 800 c 1
 393 800 l 2
 443 800 476.666992188 784 494 752 c 1
 514.666992188 727.333007812 525 686.333007812 525 629 c 2
 525 615 l 1
 531.666992188 416.333007812 502 288.666992188 436 232 c 0
 402 201.333007812 342.333007812 180 257 168 c 1
 137 127 l 1
 132 127 l 1
 130 132 l 1
 136 189 l 1
 152.666992188 297 188 358.333007812 242 373 c 1
 378 391 l 1
 414.666992188 403 437.333007812 419.333007812 446 440 c 1
 460.666992188 503.333007812 465 552 459 586 c 1
 97 586 l 1
 97 800 l 1
EndSplineSet
EndChar

StartChar: uniE02F
Encoding: 57391 57391 21
Width: 1006
Flags: HW
LayerCount: 2
Fore
SplineSet
132 640 m 1
 132 668 l 2
 132.666992188 762 167.666992188 822 237 848 c 1
 303.666992188 876.666992188 355.333007812 938.333007812 392 1033 c 0
 436.666992188 1155.66699219 497 1217.33300781 573 1218 c 0
 649.666992188 1218 704.333007812 1161.33300781 737 1048 c 1
 755.666992188 965.333007812 765.666992188 882.666992188 767 800 c 1
 1024 800 l 1
 1024 586 l 1
 847 586 l 1
 833 496.666992188 816 388.666992188 796 262 c 1
 778 244 762.333007812 243.333007812 749 260 c 1
 721 311.333007812 703.666992188 371.666992188 697 441 c 0
 689.666992188 530.333007812 685.333007812 611 684 683 c 0
 680.666992188 805 660.333007812 899.333007812 623 966 c 0
 605 993.333007812 581.666992188 1007.33300781 553 1008 c 0
 464.333007812 1008 407.333007812 919.666992188 382 743 c 1
 395.333007812 599.666992188 423 514.666992188 465 488 c 1
 506.333007812 444 522 402 512 362 c 0
 494.666992188 300.666992188 447.666992188 269.333007812 371 268 c 2
 366 268 l 1
 286 292 246 319.333007812 246 350 c 2
 246 356 l 2
 246 362 268.5 382.166992188 313.5 416.5 c 128
 358.5 450.833007812 381 484.666992188 381 518 c 1
 373 586 345.333007812 634.333007812 298 663 c 1
 277.333007812 663 237.666992188 648.666992188 179 620 c 1
 163 615 l 1
 148.333007812 620.333007812 138 628.666992188 132 640 c 1
EndSplineSet
EndChar

StartChar: uniE034
Encoding: 57396 57396 22
Width: 1142
Flags: HW
LayerCount: 2
Fore
SplineSet
189 640 m 1
 189 668 l 2
 190.333007812 762 225.333007812 822 294 848 c 1
 360.666992188 876.666992188 412.333007812 938.333007812 449 1033 c 0
 493.666992188 1155.66699219 554 1217.33300781 630 1218 c 0
 706.666992188 1218 761.333007812 1161.33300781 794 1048 c 1
 812.666992188 965.333007812 822.666992188 882.666992188 824 800 c 1
 1163 800 l 1
 1163 586 l 1
 904 586 l 1
 890 496.666992188 873 388.666992188 853 262 c 1
 835 244 819.333007812 243.333007812 806 260 c 1
 778 311.333007812 760.666992188 371.666992188 754 441 c 0
 746.666992188 530.333007812 742.333007812 611 741 683 c 0
 737.666992188 805 717.333007812 899.333007812 680 966 c 0
 662 993.333007812 638.666992188 1007.33300781 610 1008 c 0
 521.333007812 1008 464.333007812 919.666992188 439 743 c 1
 452.333007812 599.666992188 480 514.666992188 522 488 c 1
 563.333007812 444 579 402 569 362 c 0
 551.666992188 300.666992188 504.666992188 269.333007812 428 268 c 2
 423 268 l 1
 343 292 303 319.333007812 303 350 c 2
 303 356 l 2
 303 362 325.5 382.166992188 370.5 416.5 c 128
 415.5 450.833007812 438 484.666992188 438 518 c 1
 430 586 402.333007812 634.333007812 355 663 c 1
 334.333007812 663 294.666992188 648.666992188 236 620 c 1
 220 615 l 1
 205.333007812 620.333007812 195 628.666992188 189 640 c 1
623 1 m 0
 623 -9 616.666992188 -19.8330078125 604 -31.5 c 128
 591.333007812 -43.1669921875 579.666992188 -52.5 569 -59.5 c 128
 558.333007812 -66.5 548.333007812 -75.6669921875 539 -87 c 0
 523 -103.666992188 509 -120 497 -136 c 128
 485 -152 474 -160.666992188 464 -162 c 0
 448.666992188 -162 436.333007812 -158.333007812 427 -151 c 128
 417.666992188 -143.666992188 413 -132 413 -116 c 0
 411 -92 417.333007812 -59.6669921875 432 -19 c 0
 441.333007812 5.6669921875 452.666992188 26 466 42 c 128
 479.333007812 58 491.166992188 69.1669921875 501.5 75.5 c 128
 511.833007812 81.8330078125 523.666992188 85 537 85 c 256
 550.333007812 85 565.333007812 78.3330078125 582 65 c 0
 609.333007812 41 623 19.6669921875 623 1 c 0
758 -229 m 0
 758 -239.666992188 751.666992188 -250.833007812 739 -262.5 c 128
 726.333007812 -274.166992188 714.666992188 -283.5 704 -290.5 c 128
 693.333007812 -297.5 683.333007812 -306.666992188 674 -318 c 0
 658 -334.666992188 644 -351 632 -367 c 128
 620 -383 609 -391.666992188 599 -393 c 0
 583.666992188 -393 571.333007812 -389.333007812 562 -382 c 128
 552.666992188 -374.666992188 548 -363 548 -347 c 0
 546 -323 552.333007812 -290.666992188 567 -250 c 0
 576.333007812 -224.666992188 587.666992188 -204.166992188 601 -188.5 c 128
 614.333007812 -172.833007812 626.166992188 -161.833007812 636.5 -155.5 c 128
 646.833007812 -149.166992188 658.666992188 -146 672 -146 c 256
 685.333007812 -146 700.333007812 -152.666992188 717 -166 c 0
 744.333007812 -189.333007812 758 -210.333007812 758 -229 c 0
EndSplineSet
EndChar

StartChar: uniE031
Encoding: 57393 57393 23
Width: 729
Flags: HW
LayerCount: 2
Fore
SplineSet
155 800 m 1
 155 586 l 1
 -45 586 l 1
 -45 800 l 1
 155 800 l 1
553 818 m 1
 553 818 512 975 386 981 c 1
 292.666992188 974.333007812 228.333007812 906.666992188 193 778 c 1
 181.666992188 725.333007812 179.333007812 672.666992188 186 620 c 0
 202.666992188 512.666992188 260.333007812 407.333007812 359 304 c 1
 369 292 l 1
 363 280 349.666992188 252.666992188 329 210 c 0
 313.666992188 176.666992188 302 149.666992188 294 129 c 1
 277.333007812 135 249.333007812 172.333007812 210 241 c 0
 160 333.666992188 125 448.666992188 105 586 c 1
 105 800 l 1
 118.333007812 865.333007812 140 930.666992188 170 996 c 1
 236 1121.33300781 312.333007812 1184.33300781 399 1185 c 1
 528.333007812 1174.33300781 602.333007812 1083.33300781 631 856 c 1
 635 813 713 796 791 800 c 1
 791 586 l 1
 667 572.666992188 577 621 569 715 c 1
 559 809.666992188 553 818 553 818 c 1
EndSplineSet
EndChar

StartChar: uniE030
Encoding: 57392 57392 24
Width: 763
Flags: HW
LayerCount: 2
Fore
SplineSet
575 818 m 1
 575 818 534 975 408 981 c 1
 314.666992188 974.333007812 250.333007812 906.666992188 215 778 c 1
 203.666992188 725.333007812 201.333007812 672.666992188 208 620 c 0
 224.666992188 512.666992188 282.333007812 407.333007812 381 304 c 1
 391 292 l 1
 385 280 371.666992188 252.666992188 351 210 c 0
 335.666992188 176.666992188 324 149.666992188 316 129 c 1
 299.333007812 135 271.333007812 172.333007812 232 241 c 0
 182 333.666992188 147 448.666992188 127 586 c 1
 127 800 l 1
 140.333007812 865.333007812 162 930.666992188 192 996 c 1
 258 1121.33300781 334.333007812 1184.33300781 421 1185 c 1
 550.333007812 1174.33300781 624.333007812 1083.33300781 653 856 c 1
 657 813 735 796 813 800 c 1
 813 586 l 1
 689 572.666992188 599 621 591 715 c 1
 581 809.666992188 575 818 575 818 c 1
EndSplineSet
EndChar

StartChar: uniE032
Encoding: 57394 57394 25
Width: 1025
Flags: HW
LayerCount: 2
Fore
SplineSet
255 800 m 1
 255 586 l 1
 -45 586 l 1
 -45 800 l 1
 255 800 l 1
105 800 m 1
 472 800 l 1
 472 695 l 1
 486 588.333007812 501.333007812 529.666992188 518 519 c 128
 534.666992188 508.333007812 543.333007812 526 544 572 c 0
 549.333007812 673.333007812 568.333007812 781.666992188 601 897 c 0
 619.666992188 964.333007812 655.666992188 1062.33300781 709 1191 c 1
 663 1349 l 1
 664.333007812 1361.66699219 671.666992188 1372.33300781 685 1381 c 0
 701.666992188 1392.33300781 716.666992188 1391.66699219 730 1379 c 1
 784 1275.66699219 840.333007812 1167 899 1053 c 1
 896 1036 l 1
 803.333007812 911.333007812 734.333007812 768 689 606 c 0
 673.666992188 542 664.666992188 481.666992188 662 425 c 0
 662 368.333007812 662.333007812 320.333007812 663 281 c 1
 655 255.666992188 640 242.666992188 618 242 c 1
 593.333007812 249.333007812 556.666992188 289.666992188 508 363 c 0
 456 441.666992188 419.333007812 516 398 586 c 1
 300 586 l 1
 278.666992188 450 261 340.333007812 247 257 c 1
 227.666992188 237 207 236 185 254 c 1
 155.666992188 369.333007812 129 480 105 586 c 1
 105 800 l 1
EndSplineSet
EndChar

StartChar: uniE036
Encoding: 57398 57398 26
Width: 844
Flags: HW
LayerCount: 2
Fore
SplineSet
144 803 m 1
 182.666992188 871.666992188 233.166992188 933.833007812 295.5 989.5 c 128
 357.833007812 1045.16699219 399.333007812 1073.66699219 420 1075 c 1
 383.333007812 1192.33300781 364.666992188 1291.66699219 364 1373 c 1
 379.333007812 1397 403.333007812 1406.33300781 436 1401 c 2
 486 1396 l 1
 606.666992188 1398 674.666992188 1439.66699219 690 1521 c 1
 695 1526 l 1
 700 1522 l 1
 720 1520.66699219 723.666992188 1466.33300781 711 1359 c 1
 687.666992188 1267 647.666992188 1217.33300781 591 1210 c 1
 561.666992188 1202 521.333007812 1198 470 1198 c 1
 464.666992188 1184.66699219 462.666992188 1169.33300781 464 1152 c 0
 467.333007812 1097.33300781 477.333007812 1068 494 1064 c 1
 538 1038 556.666992188 950 550 800 c 1
 865 800 l 1
 865 586 l 1
 603 586 l 1
 589 496.666992188 572 388.666992188 552 262 c 1
 533.333007812 244 517.666992188 243.333007812 505 260 c 0
 485 292.666992188 462.666992188 356 438 450 c 1
 423 608 l 1
 428 724 l 1
 426 818 406.666992188 865.666992188 370 867 c 1
 336.666992188 865 279.666992188 837 199 783 c 0
 164.333007812 760.333007812 146 767 144 803 c 1
EndSplineSet
EndChar

StartChar: uniE037
Encoding: 57399 57399 27
Width: 492
Flags: HW
LayerCount: 2
Fore
SplineSet
252 800 m 1
 252 586 l 1
 -48 586 l 1
 -48 800 l 1
 252 800 l 1
102 800 m 1
 122 800 l 1
 117.333007812 867.333007812 111.333007812 945 104 1033 c 2
 96 1122 l 1
 101.333007812 1167.33300781 119.666992188 1193 151 1199 c 1
 191 1198 l 1
 291.666992188 1199.33300781 357.666992188 1237.33300781 389 1312 c 0
 392.333007812 1326 401 1329.66699219 415 1323 c 1
 427 1313 l 1
 427 1298 l 2
 426.333007812 1132 393.333007812 1036.33300781 328 1011 c 1
 278.666992188 987 230.666992188 976.333007812 184 979 c 1
 168 965 160 933.333007812 160 884 c 1
 163.333007812 828 171.333007812 800 184 800 c 2
 516 800 l 1
 516 586 l 1
 296 586 l 1
 275.333007812 458 255.333007812 349 236 259 c 1
 217.333007812 239.666992188 199 239.666992188 181 259 c 1
 151.666992188 357 125.333007812 466 102 586 c 1
 102 800 l 1
EndSplineSet
EndChar

StartChar: uniE038
Encoding: 57400 57400 28
Width: 1115
Flags: HW
LayerCount: 2
Fore
SplineSet
255 800 m 1
 255 586 l 1
 -45 586 l 1
 -45 800 l 1
 255 800 l 1
105 800 m 1
 201 800 l 1
 127 1137 l 1
 124.333007812 1172.33300781 139.333007812 1193.5 172 1200.5 c 128
 204.666992188 1207.5 252.333007812 1210.33300781 315 1209 c 0
 419 1209 471 1226.66699219 471 1262 c 1
 479 1277.33300781 489 1284 501 1282 c 1
 510.333007812 1275.33300781 515 1265.33300781 515 1252 c 0
 507 1133.33300781 471.333007812 1062 408 1038 c 1
 370 1030 327.666992188 1028.66699219 281 1034 c 0
 236.333007812 1040 217.666992188 1017 225 965 c 1
 246.333007812 855 267 800 287 800 c 2
 359 800 l 2
 365.666992188 800 369 795 369 785 c 0
 366.333007812 731.666992188 368.333007812 680.333007812 375 631 c 1
 391 575 409.166992188 537.833007812 429.5 519.5 c 128
 449.833007812 501.166992188 462.666992188 499.833007812 468 515.5 c 128
 473.333007812 531.166992188 480.666992188 562.333007812 490 609 c 0
 519.333007812 753 589.666992188 927 701 1131 c 0
 755 1233 779 1297.33300781 773 1324 c 2
 749 1448 l 1
 750 1471 l 1
 754.666992188 1500.33300781 773.666992188 1509.33300781 807 1498 c 1
 879 1366.66699219 933.333007812 1258.33300781 970 1173 c 1
 933 1128 l 1
 899.666992188 1092.66699219 861 1042.33300781 817 977 c 0
 777.666992188 921 737.333007812 850.666992188 696 766 c 0
 652 670 620.333007812 569.333007812 601 464 c 0
 593 409.333007812 589.5 365.333007812 590.5 332 c 128
 591.5 298.666992188 589.666992188 275 585 261 c 1
 570.333007812 252.333007812 555.666992188 251 541 257 c 0
 476.333007812 295.666992188 422 353 378 429 c 0
 340 489.666992188 314.333007812 542 301 586 c 1
 105 586 l 1
 105 800 l 1
EndSplineSet
EndChar

StartChar: uniE039
Encoding: 57401 57401 29
Width: 850
Flags: HW
LayerCount: 2
Fore
SplineSet
599 586 m 1
 582.333007812 467.333007812 563.666992188 355.666992188 543 251 c 1
 529 242.333007812 514.666992188 241.666992188 500 249 c 1
 487.333007812 281 468.333007812 347.333007812 443 448 c 1
 428 607 l 1
 435 723 l 1
 435 821 412.666992188 869.666992188 368 869 c 1
 333.333007812 863.666992188 279 834.666992188 205 782 c 0
 170.333007812 758.666992188 151.666992188 764.333007812 149 799 c 1
 229.666992188 920.333007812 307 1004.66699219 381 1052 c 0
 407 1070.66699219 431.666992188 1077 455 1071 c 1
 465.666992188 1147 469 1183.66699219 465 1181 c 0
 394.333007812 1175.66699219 341.333007812 1194.66699219 306 1238 c 0
 256.666992188 1304 232 1385.66699219 232 1483 c 1
 245 1492 l 1
 258 1492 l 2
 263.333007812 1491.33300781 272 1477.33300781 284 1450 c 1
 310 1412 338 1382.66699219 368 1362 c 1
 504 1371 l 1
 528 1368.33300781 543.666992188 1351.33300781 551 1320 c 1
 546 1279 l 1
 508 1042 l 1
 505 1043 l 1
 528.333007812 1016.33300781 538.666992188 972.666992188 536 912 c 1
 537 800 l 1
 837 800 l 1
 837 586 l 1
 599 586 l 1
EndSplineSet
EndChar

StartChar: uniE03A
Encoding: 57402 57402 30
Width: 543
Flags: HW
LayerCount: 2
Fore
SplineSet
246 800 m 1
 246 586 l 1
 -54 586 l 1
 -54 800 l 1
 246 800 l 1
96 800 m 1
 266 800 l 1
 275.333007812 804 281 813 283 827 c 0
 289 869.666992188 294 911.666992188 298 953 c 0
 298.666992188 978.333007812 286 990 260 988 c 1
 190 974 134 1000.66699219 92 1068 c 1
 64 1130 44.3330078125 1203.33300781 33 1288 c 0
 30.3330078125 1324 41.3330078125 1338.33300781 66 1331 c 1
 80 1331 l 1
 133 1221 l 1
 147.666992188 1200.33300781 217.666992188 1196 343 1208 c 0
 377.666992188 1208.66699219 388.666992188 1181.33300781 376 1126 c 1
 372.666992188 1078.66699219 358.333007812 970 333 800 c 1
 566 800 l 1
 566 586 l 1
 356 586 l 1
 342 504.666992188 321.333007812 396 294 260 c 1
 273.333007812 240.666992188 255 240.333007812 239 259 c 1
 209 357 182 466 158 586 c 1
 96 586 l 1
 96 800 l 1
EndSplineSet
EndChar

StartChar: uniE03B
Encoding: 57403 57403 31
Width: 815
Flags: HW
LayerCount: 2
Fore
SplineSet
200 800 m 1
 200 586 l 1
 -45 586 l 1
 -45 800 l 1
 200 800 l 1
106 800 m 1
 218 800 l 2
 236.666992188 801.333007812 242.333007812 786.666992188 235 756 c 1
 231 628 269 521.666992188 349 437 c 0
 370.333007812 413.666992188 381.666992188 415.333007812 383 442 c 0
 381.666992188 470.666992188 381.333007812 510.666992188 382 562 c 0
 390.666992188 706 425.666992188 849.333007812 487 992 c 0
 493.666992188 1012.66699219 495 1025.33300781 491 1030 c 1
 378.333007812 1008 289.333007812 1010.66699219 224 1038 c 1
 176 1062 129.333007812 1119 84 1209 c 1
 56.6669921875 1274.33300781 42 1318.66699219 40 1342 c 2
 40 1350 l 2
 40 1354 44.6669921875 1356 54 1356 c 1
 156 1285 l 1
 202.666992188 1262.33300781 239.666992188 1251.66699219 267 1253 c 1
 357 1245.66699219 461.666992188 1251 581 1269 c 1
 618.333007812 1271.66699219 645.666992188 1245.66699219 663 1191 c 1
 664.333007812 1158.33300781 633.333007812 1078.66699219 570 952 c 1
 500 758 467.333007812 613.333007812 472 518 c 1
 464.666992188 439.333007812 490.666992188 325.333007812 550 176 c 1
 550 156 l 2
 550 151.333007812 541.333007812 146.666992188 524 142 c 0
 470 135.333007812 383 211 263 369 c 1
 219 437 186 509.333007812 164 586 c 1
 106 586 l 1
 106 800 l 1
EndSplineSet
EndChar

StartChar: uniE03C
Encoding: 57404 57404 32
Width: 988
Flags: HW
LayerCount: 2
Fore
SplineSet
151 793 m 1
 141 851.666992188 143 882.333007812 157 885 c 128
 171 887.666992188 188.666992188 877.333007812 210 854 c 1
 262.666992188 813.333007812 300.666992188 793 324 793 c 1
 376.666992188 785 421 814.333007812 457 881 c 1
 483.666992188 939 510.833007812 1007.5 538.5 1086.5 c 128
 566.166992188 1165.5 588.166992188 1206.5 604.5 1209.5 c 128
 620.833007812 1212.5 632 1211 638 1205 c 0
 688.666992188 1143.66699219 705.666992188 1077.33300781 689 1006 c 1
 688.333007812 949.333007812 684 880.666992188 676 800 c 1
 1011 800 l 1
 1011 586 l 1
 765 586 l 1
 745 454.666992188 726.333007812 343 709 251 c 1
 697 229.666992188 683 228.666992188 667 248 c 1
 654.333007812 280.666992188 635 347.666992188 609 449 c 1
 594.333007812 539 589.333007812 621.333007812 594 696 c 1
 608 808 616.333007812 902 619 978 c 1
 615.666992188 984.666992188 608 984.666992188 596 978 c 1
 545.333007812 863.333007812 499.333007812 771.666992188 458 703 c 1
 422 624.333007812 376 585.666992188 320 587 c 0
 238 587 181.666992188 655.666992188 151 793 c 1
EndSplineSet
EndChar

StartChar: uniE03D
Encoding: 57405 57405 33
Width: 780
Flags: HW
LayerCount: 2
Fore
SplineSet
215 800 m 1
 215 586 l 1
 -48 586 l 1
 -48 800 l 1
 215 800 l 1
102 800 m 1
 119 800 l 2
 145.666992188 800 177.666992188 830.333007812 215 891 c 0
 265.666992188 980.333007812 323.333007812 1069.66699219 388 1159 c 1
 414 1199.66699219 443 1222.33300781 475 1227 c 1
 501 1227 511.666992188 1202 507 1152 c 0
 503 1097.33300781 502 1039.33300781 504 978 c 1
 502.666992188 873.333007812 507.666992188 814 519 800 c 1
 798 800 l 1
 798 586 l 1
 614 586 l 1
 605.333007812 535.333007812 597.666992188 485.333007812 591 436 c 0
 581 356.666992188 571.333007812 297 562 257 c 1
 546.666992188 238.333007812 532.333007812 237.333007812 519 254 c 1
 491.666992188 348.666992188 468 446.333007812 448 547 c 0
 430 644.333007812 419 800.333007812 415 1015 c 1
 339 937 282.333007812 817 245 655 c 1
 230.333007812 571.666992188 228.666992188 433.666992188 240 241 c 1
 223 226 l 1
 219 226 l 1
 191.666992188 256 161.333007812 337.333007812 128 470 c 1
 102 586 l 1
 102 800 l 1
EndSplineSet
EndChar

StartChar: uniE03E
Encoding: 57406 57406 34
Width: 1023
Flags: HW
LayerCount: 2
Fore
SplineSet
191 800 m 1
 191 586 l 1
 -57 586 l 1
 -57 800 l 1
 191 800 l 1
90 800 m 1
 106 800 l 1
 246 1060.66699219 350.333007812 1194.33300781 419 1201 c 1
 442.333007812 1169 460.666992188 1076 474 922 c 1
 494 788.666992188 531.666992188 687 587 617 c 1
 665.666992188 864.333007812 749.666992188 1041.33300781 839 1148 c 1
 856.333007812 1161.33300781 871 1161.33300781 883 1148 c 0
 898.333007812 1129.33300781 895.333007812 1107.66699219 874 1083 c 1
 764 820.333007812 709 607 709 443 c 1
 725.666992188 312.333007812 709 259.666992188 659 285 c 1
 613.666992188 313 574.333007812 354 541 408 c 1
 474.333007812 488 409.333007812 663.666992188 346 935 c 1
 337 935 l 1
 255 820.333007812 219.666992188 678 231 508 c 1
 247 371.333007812 261.666992188 303 275 303 c 1
 283 290.333007812 271 271.333007812 239 246 c 1
 213 246 l 2
 181 246 140 359.333007812 90 586 c 1
 90 800 l 1
EndSplineSet
EndChar

StartChar: uniE03F
Encoding: 57407 57407 35
Width: 981
Flags: HW
LayerCount: 2
Fore
SplineSet
424 1393 m 1
 436.666992188 1467.66699219 477.666992188 1519.33300781 547 1548 c 1
 577 1566.66699219 597 1549 607 1495 c 0
 615 1436.33300781 597.333007812 1381.66699219 554 1331 c 0
 518 1292.33300781 483.333007812 1279 450 1291 c 1
 421.333007812 1308.33300781 412.666992188 1342.33300781 424 1393 c 1
714 1393 m 1
 726.666992188 1467.66699219 767.666992188 1519.33300781 837 1548 c 1
 867 1566.66699219 887 1549 897 1495 c 0
 905 1436.33300781 887.333007812 1381.66699219 844 1331 c 0
 808 1292.33300781 773.333007812 1279 740 1291 c 1
 711.333007812 1308.33300781 702.666992188 1342.33300781 714 1393 c 1
151 793 m 1
 141 851.666992188 143 882.333007812 157 885 c 128
 171 887.666992188 188.666992188 877.333007812 210 854 c 1
 262.666992188 813.333007812 300.666992188 793 324 793 c 1
 376.666992188 785 421 814.333007812 457 881 c 1
 483.666992188 939 510.833007812 1007.5 538.5 1086.5 c 128
 566.166992188 1165.5 588.166992188 1206.5 604.5 1209.5 c 128
 620.833007812 1212.5 632 1211 638 1205 c 0
 688.666992188 1143.66699219 705.666992188 1077.33300781 689 1006 c 1
 688.333007812 949.333007812 684 880.666992188 676 800 c 1
 1011 800 l 1
 1011 586 l 1
 765 586 l 1
 745 454.666992188 726.333007812 343 709 251 c 1
 697 229.666992188 683 228.666992188 667 248 c 1
 654.333007812 280.666992188 635 347.666992188 609 449 c 1
 594.333007812 539 589.333007812 621.333007812 594 696 c 1
 608 808 616.333007812 902 619 978 c 1
 615.666992188 984.666992188 608 984.666992188 596 978 c 1
 545.333007812 863.333007812 499.333007812 771.666992188 458 703 c 1
 422 624.333007812 376 585.666992188 320 587 c 0
 238 587 181.666992188 655.666992188 151 793 c 1
EndSplineSet
EndChar

StartChar: uniE040
Encoding: 57408 57408 36
Width: 780
Flags: HW
LayerCount: 2
Fore
SplineSet
201 800 m 1
 201 586 l 1
 -53 586 l 1
 -53 800 l 1
 201 800 l 1
252 1413 m 1
 264.666992188 1487.66699219 305.666992188 1539.33300781 375 1568 c 1
 405 1586.66699219 425 1569 435 1515 c 0
 443 1456.33300781 425.333007812 1401.66699219 382 1351 c 0
 346 1312.33300781 311.333007812 1299 278 1311 c 1
 249.333007812 1328.33300781 240.666992188 1362.33300781 252 1413 c 1
542 1413 m 1
 554.666992188 1487.66699219 595.666992188 1539.33300781 665 1568 c 1
 695 1586.66699219 715 1569 725 1515 c 0
 733 1456.33300781 715.333007812 1401.66699219 672 1351 c 0
 636 1312.33300781 601.333007812 1299 568 1311 c 1
 539.333007812 1328.33300781 530.666992188 1362.33300781 542 1413 c 1
102 800 m 1
 119 800 l 2
 145.666992188 800 177.666992188 830.333007812 215 891 c 0
 265.666992188 980.333007812 323.333007812 1069.66699219 388 1159 c 1
 414 1199.66699219 443 1222.33300781 475 1227 c 1
 501 1227 511.666992188 1202 507 1152 c 0
 503 1097.33300781 502 1039.33300781 504 978 c 1
 502.666992188 873.333007812 507.666992188 814 519 800 c 1
 808 800 l 1
 808 586 l 1
 614 586 l 1
 605.333007812 535.333007812 597.666992188 485.333007812 591 436 c 0
 581 356.666992188 571.333007812 297 562 257 c 1
 546.666992188 238.333007812 532.333007812 237.333007812 519 254 c 1
 491.666992188 348.666992188 468 446.333007812 448 547 c 0
 430 644.333007812 419 800.333007812 415 1015 c 1
 339 937 282.333007812 817 245 655 c 1
 230.333007812 571.666992188 228.666992188 433.666992188 240 241 c 1
 223 226 l 1
 219 226 l 1
 191.666992188 256 161.333007812 337.333007812 128 470 c 1
 102 586 l 1
 102 800 l 1
EndSplineSet
EndChar

StartChar: uniE041
Encoding: 57409 57409 37
Width: 1051
Flags: HW
LayerCount: 2
Fore
SplineSet
203 800 m 1
 203 586 l 1
 -51 586 l 1
 -51 800 l 1
 203 800 l 1
249 1393 m 1
 261.666992188 1467.66699219 302.666992188 1519.33300781 372 1548 c 1
 402 1566.66699219 422 1549 432 1495 c 0
 440 1436.33300781 422.333007812 1381.66699219 379 1331 c 0
 343 1292.33300781 308.333007812 1279 275 1291 c 1
 246.333007812 1308.33300781 237.666992188 1342.33300781 249 1393 c 1
539 1393 m 1
 551.666992188 1467.66699219 592.666992188 1519.33300781 662 1548 c 1
 692 1566.66699219 712 1549 722 1495 c 0
 730 1436.33300781 712.333007812 1381.66699219 669 1331 c 0
 633 1292.33300781 598.333007812 1279 565 1291 c 1
 536.333007812 1308.33300781 527.666992188 1342.33300781 539 1393 c 1
99 800 m 1
 115 800 l 1
 255 1060.66699219 359.333007812 1194.33300781 428 1201 c 1
 451.333007812 1169 469.666992188 1076 483 922 c 1
 503 788.666992188 540.666992188 687 596 617 c 1
 674.666992188 864.333007812 758.666992188 1041.33300781 848 1148 c 1
 865.333007812 1161.33300781 880 1161.33300781 892 1148 c 0
 907.333007812 1129.33300781 904.333007812 1107.66699219 883 1083 c 1
 773 820.333007812 718 607 718 443 c 1
 734.666992188 312.333007812 718 259.666992188 668 285 c 1
 622.666992188 313 583.333007812 354 550 408 c 1
 483.333007812 488 418.333007812 663.666992188 355 935 c 1
 346 935 l 1
 264 820.333007812 228.666992188 678 240 508 c 1
 256 371.333007812 270.666992188 303 284 303 c 1
 292 290.333007812 280 271.333007812 248 246 c 1
 222 246 l 2
 190 246 149 359.333007812 99 586 c 1
 99 800 l 1
EndSplineSet
EndChar

StartChar: uniE042
Encoding: 57410 57410 38
Width: 1094
Flags: HW
LayerCount: 2
Fore
SplineSet
533 613 m 1
 611.666992188 623 655.333007812 673.666992188 664 765 c 1
 652 879 597.666992188 935 501 933 c 1
 435.666992188 935 356.333007812 877 263 759 c 1
 365 647 455 598.333007812 533 613 c 1
148 753 m 1
 206 812.333007812 249.666992188 871 279 929 c 1
 317.666992188 993.666992188 351 1035.66699219 379 1055 c 0
 417 1081 463.666992188 1092.33300781 519 1089 c 1
 653.666992188 1074.33300781 722 982.666992188 724 814 c 0
 725.333007812 803.333007812 747 798.666992188 789 800 c 2
 1116 800 l 1
 1116 586 l 1
 873 586 l 1
 855.666992188 467.333007812 837 355.666992188 817 251 c 1
 803 241.666992188 789 241 775 249 c 1
 741 351 711.666992188 450.333007812 687 547 c 0
 681.666992188 572.333007812 673.666992188 577.333007812 663 562 c 0
 616.333007812 486 554 445.666992188 476 441 c 0
 416.666992188 437 358.333007812 482 301 576 c 0
 266.333007812 634 215.333007812 693 148 753 c 1
EndSplineSet
EndChar

StartChar: uniE043
Encoding: 57411 57411 39
Width: 958
Flags: HW
LayerCount: 2
Fore
SplineSet
161 800 m 1
 161 586 l 1
 -49 586 l 1
 -49 800 l 1
 161 800 l 1
102 800 m 1
 147 800 l 1
 175.666992188 874.666992188 198 927.666992188 214 959 c 1
 246 1010.33300781 276 1045.66699219 304 1065 c 1
 335.333007812 1097.66699219 378.666992188 1112.33300781 434 1109 c 1
 568.666992188 1094.33300781 643.666992188 996 659 814 c 0
 660.333007812 803.333007812 682 798.666992188 724 800 c 2
 991 800 l 1
 991 586 l 1
 808 586 l 1
 790.666992188 467.333007812 772 355.666992188 752 251 c 1
 738 241.666992188 724 241 710 249 c 1
 676 351 643.333007812 453.666992188 612 557 c 0
 606.666992188 582.333007812 598.666992188 587.333007812 588 572 c 1
 548 482.666992188 489 432.333007812 411 421 c 1
 351.666992188 420.333007812 280 475.333007812 196 586 c 1
 102 586 l 1
 102 800 l 1
415 585 m 1
 531.666992188 581 585.333007812 655.666992188 576 809 c 1
 552.666992188 891.666992188 501.666992188 932.333007812 423 931 c 0
 351 929 286 864 228 736 c 1
 297.333007812 646.666992188 359.666992188 596.333007812 415 585 c 1
EndSplineSet
EndChar

StartChar: uniE044
Encoding: 57412 57412 40
Width: 1475
Flags: HW
LayerCount: 2
Fore
SplineSet
192 800 m 1
 192 586 l 1
 -38 586 l 1
 -38 800 l 1
 192 800 l 1
1050 800 m 1
 1162.66699219 796.666992188 1236.33300781 778.666992188 1271 746 c 1
 1325 701.333007812 1356 631.666992188 1364 537 c 1
 1366 431 1346.66699219 353 1306 303 c 1
 1270.66699219 281 1253 287.333007812 1253 322 c 2
 1253 332 l 1
 1259 366 l 1
 1257.66699219 473.333007812 1233 541 1185 569 c 1
 1145 585 1063.66699219 590.666992188 941 586 c 1
 941 800 l 1
 1050 800 l 1
113 800 m 1
 158 800 l 1
 186.666992188 874.666992188 209 927.666992188 225 959 c 1
 257 1010.33300781 287 1045.66699219 315 1065 c 1
 346.333007812 1097.66699219 389.666992188 1112.33300781 445 1109 c 1
 579.666992188 1094.33300781 654.666992188 996 670 814 c 0
 671.333007812 803.333007812 693 798.666992188 735 800 c 2
 1002 800 l 1
 1002 586 l 1
 819 586 l 1
 801.666992188 467.333007812 783 355.666992188 763 251 c 1
 749 241.666992188 735 241 721 249 c 1
 687 351 654.333007812 453.666992188 623 557 c 0
 617.666992188 582.333007812 609.666992188 587.333007812 599 572 c 1
 559 482.666992188 500 432.333007812 422 421 c 1
 362.666992188 420.333007812 291 475.333007812 207 586 c 1
 113 586 l 1
 113 800 l 1
426 585 m 1
 542.666992188 581 596.333007812 655.666992188 587 809 c 1
 563.666992188 891.666992188 512.666992188 932.333007812 434 931 c 0
 362 929 297 864 239 736 c 1
 308.333007812 646.666992188 370.666992188 596.333007812 426 585 c 1
EndSplineSet
EndChar

StartChar: uniE045
Encoding: 57413 57413 41
Width: 782
Flags: HW
LayerCount: 2
Fore
SplineSet
136 800 m 1
 809 800 l 1
 809 586 l 1
 250 586 l 1
 264 456 288.333007812 360 323 298 c 1
 343.666992188 347.333007812 374.333007812 384.333007812 415 409 c 0
 440.333007812 423.666992188 469 430 501 428 c 0
 577.666992188 428.666992188 631.666992188 363 663 231 c 1
 688.333007812 77.6669921875 652.333007812 -13 555 -41 c 1
 533 -42 l 2
 449.666992188 -44 370 7.6669921875 294 113 c 1
 218.666992188 241 166 398.666992188 136 586 c 1
 136 800 l 1
506 79 m 1
 564 74.3330078125 593.333007812 112.333007812 594 193 c 1
 582 288.333007812 544 331 480 321 c 0
 436 313 399.333007812 278.666992188 370 218 c 1
 370 205 l 1
 402 143 441.333007812 102.333007812 488 83 c 1
 506 79 l 1
EndSplineSet
EndChar

StartChar: uniE046
Encoding: 57414 57414 42
Width: 740
Flags: HW
LayerCount: 2
Fore
SplineSet
244 800 m 1
 244 586 l 1
 -56 586 l 1
 -56 800 l 1
 244 800 l 1
94 800 m 1
 767 800 l 1
 767 586 l 1
 208 586 l 1
 222 456 246.333007812 360 281 298 c 1
 301.666992188 347.333007812 332.333007812 384.333007812 373 409 c 0
 398.333007812 423.666992188 427 430 459 428 c 0
 535.666992188 428.666992188 589.666992188 363 621 231 c 1
 646.333007812 77.6669921875 610.333007812 -13 513 -41 c 1
 491 -42 l 2
 407.666992188 -44 328 7.6669921875 252 113 c 1
 176.666992188 241 124 398.666992188 94 586 c 1
 94 800 l 1
464 79 m 1
 522 74.3330078125 551.333007812 112.333007812 552 193 c 1
 540 288.333007812 502 331 438 321 c 0
 394 313 357.333007812 278.666992188 328 218 c 1
 328 205 l 1
 360 143 399.333007812 102.333007812 446 83 c 1
 464 79 l 1
EndSplineSet
EndChar

StartChar: uniE049
Encoding: 57417 57417 43
Width: 1178
Flags: HW
LayerCount: 2
Fore
SplineSet
252 800 m 1
 252 586 l 1
 -48 586 l 1
 -48 800 l 1
 252 800 l 1
452 72 m 2
 510 64.6669921875 540.666992188 101.333007812 544 182 c 1
 535.333007812 277.333007812 499 321.333007812 435 314 c 0
 390.333007812 307.333007812 352.666992188 274.333007812 322 215 c 1
 321 201 l 1
 350.333007812 138.333007812 388 96.3330078125 434 75 c 1
 452 72 l 2
728 800 m 1
 729 586 l 1
 216 586 l 1
 234.666992188 422.666992188 255 326 277 296 c 1
 299 345.333007812 331.333007812 381.666992188 374 405 c 0
 398.666992188 418.333007812 427.666992188 423.666992188 461 421 c 0
 536.333007812 417.666992188 588 349.666992188 616 217 c 1
 634.666992188 64.3330078125 595.333007812 -24.3330078125 498 -49 c 1
 474 -50 l 1
 391.333007812 -49.3330078125 314.333007812 5 243 113 c 0
 179 213 132 370.666992188 102 586 c 1
 102 800 l 1
 728 800 l 1
762 800 m 1
 874.666992188 796.666992188 948.333007812 778.666992188 983 746 c 1
 1037 701.333007812 1068 631.666992188 1076 537 c 1
 1078 431 1058.66699219 353 1018 303 c 1
 982.666992188 281 965 287.333007812 965 322 c 2
 965 332 l 1
 971 366 l 1
 969.666992188 473.333007812 945 541 897 569 c 1
 857 585 775.666992188 590.666992188 653 586 c 1
 653 800 l 1
 762 800 l 1
EndSplineSet
EndChar

StartChar: uniE04A
Encoding: 57418 57418 44
Width: 888
Flags: HW
LayerCount: 2
Fore
SplineSet
590 586 m 1
 138 586 l 1
 138 800 l 1
 914 800 l 1
 914 586 l 1
 668 586 l 1
 652.666992188 522.666992188 649.333007812 461.666992188 658 403 c 1
 660 360.333007812 670 309.666992188 688 251 c 0
 710.666992188 185 699.666992188 150 655 146 c 1
 600.333007812 150.666992188 548.333007812 152.666992188 499 152 c 0
 383 152 302.333007812 134 257 98 c 1
 233.666992188 96.6669921875 225.333007812 125.666992188 232 185 c 1
 244.666992188 255.666992188 283.666992188 305.333007812 349 334 c 0
 397 357.333007812 455 368.333007812 523 367 c 1
 571.666992188 357 595 366 593 394 c 1
 577 464.666992188 576 528.666992188 590 586 c 1
EndSplineSet
EndChar

StartChar: uniE04B
Encoding: 57419 57419 45
Width: 858
Flags: HW
LayerCount: 2
Fore
SplineSet
250 800 m 1
 250 586 l 1
 -50 586 l 1
 -50 800 l 1
 250 800 l 1
552 586 m 1
 100 586 l 1
 100 800 l 1
 876 800 l 1
 876 586 l 1
 630 586 l 1
 614.666992188 522.666992188 611.333007812 461.666992188 620 403 c 1
 622 360.333007812 632 309.666992188 650 251 c 0
 672.666992188 185 661.666992188 150 617 146 c 1
 562.333007812 150.666992188 510.333007812 152.666992188 461 152 c 0
 345 152 264.333007812 134 219 98 c 1
 195.666992188 96.6669921875 187.333007812 125.666992188 194 185 c 1
 206.666992188 255.666992188 245.666992188 305.333007812 311 334 c 0
 359 357.333007812 417 368.333007812 485 367 c 1
 533.666992188 357 557 366 555 394 c 1
 539 464.666992188 538 528.666992188 552 586 c 1
EndSplineSet
EndChar

StartChar: uniE04C
Encoding: 57420 57420 46
Width: 1289
Flags: HW
LayerCount: 2
Fore
SplineSet
252 800 m 1
 252 586 l 1
 -48 586 l 1
 -48 800 l 1
 252 800 l 1
878 800 m 1
 986.666992188 796 1058 778 1092 746 c 1
 1146 701.333007812 1177 631.666992188 1185 537 c 1
 1187 431 1167.66699219 353 1127 303 c 1
 1091.66699219 281 1074 287.333007812 1074 322 c 2
 1074 332 l 1
 1080 366 l 1
 1078.66699219 473.333007812 1054 541 1006 569 c 1
 980.666992188 579 938 585 878 587 c 1
 878 586 l 1
 632 586 l 1
 616.666992188 522.666992188 613.333007812 461.666992188 622 403 c 1
 624 360.333007812 634 309.666992188 652 251 c 0
 674.666992188 185 663.666992188 150 619 146 c 1
 564.333007812 150.666992188 512.333007812 152.666992188 463 152 c 0
 347 152 266.333007812 134 221 98 c 1
 197.666992188 96.6669921875 189.333007812 125.666992188 196 185 c 1
 208.666992188 255.666992188 247.666992188 305.333007812 313 334 c 0
 361 357.333007812 419 368.333007812 487 367 c 1
 535.666992188 357 559 366 557 394 c 1
 541 464.666992188 540 528.666992188 554 586 c 1
 102 586 l 1
 102 800 l 1
 878 800 l 1
EndSplineSet
EndChar

StartChar: uniE04D
Encoding: 57421 57421 47
Width: 593
Flags: HW
LayerCount: 2
Fore
SplineSet
120 800 m 1
 620 800 l 1
 620 586 l 1
 241 586 l 1
 289.666992188 514.666992188 362.333007812 410 459 272 c 1
 450 251 l 2
 432 209.666992188 416 137.333007812 402 34 c 1
 394 23.3330078125 383.666992188 21 371 27 c 1
 347.666992188 59 312.333007812 141.666992188 265 275 c 1
 179 474.333007812 130.666992188 578 120 586 c 1
 120 800 l 1
EndSplineSet
EndChar

StartChar: uniE04E
Encoding: 57422 57422 48
Width: 709
Flags: HW
LayerCount: 2
Fore
SplineSet
254 800 m 1
 254 586 l 1
 -46 586 l 1
 -46 800 l 1
 254 800 l 1
103 800 m 1
 724 800 l 1
 724 586 l 1
 518 586 l 1
 528 448 l 1
 550 311.333007812 511.333007812 226.666992188 412 194 c 1
 367.333007812 174 331.5 159.833007812 304.5 151.5 c 128
 277.5 143.166992188 251 130.833007812 225 114.5 c 128
 199 98.1669921875 179.333007812 76.6669921875 166 50 c 1
 155 50 l 1
 141.666992188 77.3330078125 135.333007812 115 136 163 c 0
 141.333007812 257 193.666992188 317 293 343 c 1
 361.666992188 369 407.333007812 390.333007812 430 407 c 1
 464.666992188 441.666992188 481.666992188 474.666992188 481 506 c 0
 482.333007812 549.333007812 468.333007812 576 439 586 c 1
 103 586 l 1
 103 800 l 1
EndSplineSet
EndChar

StartChar: uniE04F
Encoding: 57423 57423 49
Width: 1133
Flags: HW
LayerCount: 2
Fore
SplineSet
248 800 m 1
 248 586 l 1
 -52 586 l 1
 -52 800 l 1
 248 800 l 1
713 800 m 1
 823.666992188 796.666992188 896.333007812 778.666992188 931 746 c 1
 985 701.333007812 1016 631.666992188 1024 537 c 1
 1026 431 1006.66699219 353 966 303 c 1
 930.666992188 281 913 287.333007812 913 322 c 2
 913 332 l 1
 919 366 l 1
 917.666992188 473.333007812 893 541 845 569 c 1
 819 579.666992188 775 585.666992188 713 587 c 1
 713 800 l 1
107 800 m 1
 728 800 l 1
 728 586 l 1
 522 586 l 1
 532 448 l 1
 554 311.333007812 515.333007812 226.666992188 416 194 c 1
 371.333007812 174 335.5 159.833007812 308.5 151.5 c 128
 281.5 143.166992188 255 130.833007812 229 114.5 c 128
 203 98.1669921875 183.333007812 76.6669921875 170 50 c 1
 159 50 l 1
 145.666992188 77.3330078125 139.333007812 115 140 163 c 0
 145.333007812 257 197.666992188 317 297 343 c 1
 365.666992188 369 411.333007812 390.333007812 434 407 c 1
 468.666992188 441.666992188 485.666992188 474.666992188 485 506 c 0
 486.333007812 549.333007812 472.333007812 576 443 586 c 1
 107 586 l 1
 107 800 l 1
EndSplineSet
EndChar

StartChar: uniE050
Encoding: 57424 57424 50
Width: 600
Flags: HW
LayerCount: 2
Fore
SplineSet
118 800 m 1
 616 800 l 1
 616 586 l 1
 233 586 l 1
 273.666992188 488.666992188 333.333007812 384.666992188 412 274 c 1
 452.666992188 211.333007812 470.333007812 164.333007812 465 133 c 0
 455.666992188 66.3330078125 404 23.6669921875 310 5 c 1
 253 8 l 1
 195 6.6669921875 157.333007812 22 140 54 c 1
 141 72 l 1
 201 103.333007812 243.333007812 132.333007812 268 159 c 1
 282 185.666992188 273.666992188 231.666992188 243 297 c 0
 217.666992188 356.333007812 176 452.666992188 118 586 c 1
 118 800 l 1
EndSplineSet
EndChar

StartChar: uniE051
Encoding: 57425 57425 51
Width: 594
Flags: HW
LayerCount: 2
Fore
SplineSet
262 800 m 1
 262 586 l 1
 -38 586 l 1
 -38 800 l 1
 262 800 l 1
112 800 m 1
 610 800 l 1
 610 586 l 1
 227 586 l 1
 267.666992188 488.666992188 327.333007812 384.666992188 406 274 c 1
 446.666992188 211.333007812 464.333007812 164.333007812 459 133 c 0
 449.666992188 66.3330078125 398 23.6669921875 304 5 c 1
 247 8 l 1
 189 6.6669921875 151.333007812 22 134 54 c 1
 135 72 l 1
 195 103.333007812 237.333007812 132.333007812 262 159 c 1
 276 185.666992188 267.666992188 231.666992188 237 297 c 0
 211.666992188 356.333007812 170 452.666992188 112 586 c 1
 112 800 l 1
EndSplineSet
EndChar

StartChar: uniE053
Encoding: 57427 57427 52
Width: 592
Flags: HW
LayerCount: 2
Fore
SplineSet
92 800 m 1
 606 800 l 1
 606 586 l 1
 219 586 l 1
 224.333007812 559.333007812 298.666992188 443.333007812 442 238 c 1
 465.333007812 209.333007812 472.666992188 175 464 135 c 1
 441.333007812 81 419.333007812 8.6669921875 398 -82 c 1
 394 -88 l 1
 389 -88 l 1
 384.333007812 -78.6669921875 365.666992188 -34 333 46 c 1
 317 94 294.333007812 147 265 205 c 1
 256 205 l 2
 238 205 182.333007812 155.333007812 89 56 c 1
 72 52 l 1
 67 52 l 1
 58 61 l 1
 98.6669921875 190.333007812 138.333007812 292.333007812 177 367 c 1
 181 382 l 1
 134.333007812 463.333007812 104.666992188 531.333007812 92 586 c 1
 92 800 l 1
EndSplineSet
EndChar

StartChar: uniE054
Encoding: 57428 57428 53
Width: 668
Flags: HW
LayerCount: 2
Fore
SplineSet
254 800 m 1
 254 586 l 1
 -46 586 l 1
 -46 800 l 1
 254 800 l 1
104 800 m 1
 687 800 l 1
 687 586 l 1
 330 586 l 1
 334.666992188 559.333007812 412.333007812 443.333007812 563 238 c 0
 586.333007812 209.333007812 593.666992188 175 585 135 c 1
 562.333007812 81 540.333007812 8.6669921875 519 -82 c 1
 514 -88 l 1
 510 -88 l 1
 504.666992188 -78.6669921875 489.333007812 -34 464 46 c 0
 448 94 425.333007812 147 396 205 c 1
 387 205 l 2
 368.333007812 205 312.666992188 155.333007812 220 56 c 1
 202 52 l 1
 198 52 l 1
 189 61 l 1
 229 190.333007812 268.666992188 292.333007812 308 367 c 1
 312 382 l 1
 202 586 l 1
 104 586 l 1
 104 800 l 1
EndSplineSet
EndChar

StartChar: uniE055
Encoding: 57429 57429 54
Width: 675
Flags: HW
LayerCount: 2
Fore
SplineSet
260 800 m 1
 260 586 l 1
 -40 586 l 1
 -40 800 l 1
 260 800 l 1
110 586 m 1
 110 800 l 1
 200 800 l 1
 210.666992188 853.333007812 226 903 246 949 c 0
 319.333007812 1097.66699219 403 1170.33300781 497 1167 c 0
 542.333007812 1167 581 1141 613 1089 c 0
 645.666992188 1035 666 956.333007812 674 853 c 1
 675 818 l 2
 675 734 664.666992188 696.333007812 644 705 c 1
 632 701 613.666992188 750.333007812 589 853 c 0
 568.333007812 934.333007812 533 974 483 972 c 0
 403.666992188 968 344.333007812 904.333007812 305 781 c 0
 286.333007812 715.666992188 290 650.666992188 316 586 c 1
 331.333007812 530 394.666992188 442.333007812 506 323 c 0
 532.666992188 292.333007812 540 244.333007812 528 179 c 2
 516 116 l 2
 510.666992188 86.6669921875 499.333007812 72 482 72 c 1
 462 84 438 130.333007812 410 211 c 1
 358 298.333007812 326.666992188 347.666992188 316 359 c 0
 307.333007812 367 300.333007812 364 295 350 c 1
 282.333007812 338 257.333007812 302 220 242 c 1
 141 153 l 1
 132 153 l 1
 119 167 l 1
 119 182 l 1
 165.666992188 344.666992188 189 451.333007812 189 502 c 2
 189 530 l 2
 189.666992188 567.333007812 184 586 172 586 c 2
 110 586 l 1
EndSplineSet
EndChar

StartChar: uniE056
Encoding: 57430 57430 55
Width: 724
Flags: HW
LayerCount: 2
Fore
SplineSet
746 800 m 1
 746 586 l 1
 218 586 l 1
 257 414 l 1
 278.333007812 334 296.666992188 279 312 249 c 128
 327.333007812 219 342.666992188 194.166992188 358 174.5 c 128
 373.333007812 154.833007812 389.333007812 140.166992188 406 130.5 c 128
 422.666992188 120.833007812 444 116 470 116 c 0
 493.333007812 116 512 120.333007812 526 129 c 128
 540 137.666992188 551.5 147.333007812 560.5 158 c 128
 569.5 168.666992188 577 178.5 583 187.5 c 128
 589 196.5 595.666992188 201 603 201 c 0
 616.333007812 201 625.666992188 194.5 631 181.5 c 128
 636.333007812 168.5 639 150 639 126 c 256
 639 102 634.666992188 79.3330078125 626 58 c 128
 617.333007812 36.6669921875 605.333007812 18 590 2 c 128
 574.666992188 -14 556.833007812 -26.5 536.5 -35.5 c 128
 516.166992188 -44.5 494 -49 470 -49 c 0
 432 -49 400.166992188 -40.6669921875 374.5 -24 c 128
 348.833007812 -7.3330078125 324.833007812 17 302.5 49 c 128
 280.166992188 81 257.833007812 123.666992188 235.5 177 c 128
 213.166992188 230.333007812 193.333007812 288.333007812 176 351 c 1
 124 586 l 1
 124 800 l 1
 746 800 l 1
EndSplineSet
EndChar

StartChar: uniE057
Encoding: 57431 57431 56
Width: 712
Flags: HW
LayerCount: 2
Fore
SplineSet
262 800 m 1
 262 586 l 1
 -38 586 l 1
 -38 800 l 1
 262 800 l 1
734 800 m 1
 734 586 l 1
 206 586 l 1
 245 414 l 1
 266.333007812 334 284.666992188 279 300 249 c 128
 315.333007812 219 330.666992188 194.166992188 346 174.5 c 128
 361.333007812 154.833007812 377.333007812 140.166992188 394 130.5 c 128
 410.666992188 120.833007812 432 116 458 116 c 0
 481.333007812 116 500 120.333007812 514 129 c 128
 528 137.666992188 539.5 147.333007812 548.5 158 c 128
 557.5 168.666992188 565 178.5 571 187.5 c 128
 577 196.5 583.666992188 201 591 201 c 0
 604.333007812 201 613.666992188 194.5 619 181.5 c 128
 624.333007812 168.5 627 150 627 126 c 256
 627 102 622.666992188 79.3330078125 614 58 c 128
 605.333007812 36.6669921875 593.333007812 18 578 2 c 128
 562.666992188 -14 544.833007812 -26.5 524.5 -35.5 c 128
 504.166992188 -44.5 482 -49 458 -49 c 0
 420 -49 388.166992188 -40.6669921875 362.5 -24 c 128
 336.833007812 -7.3330078125 312.833007812 17 290.5 49 c 128
 268.166992188 81 245.833007812 123.666992188 223.5 177 c 128
 201.166992188 230.333007812 181.333007812 288.333007812 164 351 c 1
 112 586 l 1
 112 800 l 1
 734 800 l 1
EndSplineSet
EndChar

StartChar: uniE058
Encoding: 57432 57432 57
Width: 1132
Flags: HW
LayerCount: 2
Fore
SplineSet
252 800 m 5
 252 586 l 5
 -48 586 l 5
 -48 800 l 5
 252 800 l 5
702 800 m 1
 812.666992188 796.666992188 885.333007812 778.666992188 920 746 c 1
 974 701.333007812 1005 631.666992188 1013 537 c 1
 1015 431 995.666992188 353 955 303 c 1
 919.666992188 281 902 287.333007812 902 322 c 2
 902 332 l 1
 908 366 l 1
 906.666992188 473.333007812 882 541 834 569 c 1
 808 579.666992188 764 585.666992188 702 587 c 1
 702 800 l 1
724 800 m 1
 724 586 l 1
 196 586 l 1
 235 414 l 1
 256.333007812 334 274.666992188 279 290 249 c 128
 305.333007812 219 320.666992188 194.166992188 336 174.5 c 128
 351.333007812 154.833007812 367.333007812 140.166992188 384 130.5 c 128
 400.666992188 120.833007812 422 116 448 116 c 0
 471.333007812 116 490 120.333007812 504 129 c 128
 518 137.666992188 529.5 147.333007812 538.5 158 c 128
 547.5 168.666992188 555 178.5 561 187.5 c 128
 567 196.5 573.666992188 201 581 201 c 0
 594.333007812 201 603.666992188 194.5 609 181.5 c 128
 614.333007812 168.5 617 150 617 126 c 256
 617 102 612.666992188 79.3330078125 604 58 c 128
 595.333007812 36.6669921875 583.333007812 18 568 2 c 128
 552.666992188 -14 534.833007812 -26.5 514.5 -35.5 c 128
 494.166992188 -44.5 472 -49 448 -49 c 0
 410 -49 378.166992188 -40.6669921875 352.5 -24 c 128
 326.833007812 -7.3330078125 302.833007812 17 280.5 49 c 128
 258.166992188 81 235.833007812 123.666992188 213.5 177 c 128
 191.166992188 230.333007812 171.333007812 288.333007812 154 351 c 1
 102 586 l 1
 102 800 l 1
 724 800 l 1
EndSplineSet
EndChar

StartChar: uniE05B
Encoding: 57435 57435 58
Width: 831
Flags: HW
LayerCount: 2
Fore
SplineSet
251 800 m 1
 251 586 l 1
 -49 586 l 1
 -49 800 l 1
 251 800 l 1
321 349 m 1
 404.333007812 353 441 432 431 586 c 1
 182 586 l 1
 185.333007812 430 231.666992188 351 321 349 c 1
308 160 m 1
 304.666992188 146.666992188 303 131.333007812 303 114 c 2
 303 91 l 2
 303 67.6669921875 313 28.6669921875 333 -26 c 1
 333 -49.3330078125 313.666992188 -62.6669921875 275 -66 c 1
 237 -66 205 -22.3330078125 179 65 c 1
 179 103.666992188 195.333007812 145.333007812 228 190 c 1
 184.666992188 224 150.666992188 287.333007812 126 380 c 1
 111.333007812 452 102 520.666992188 98 586 c 1
 98 800 l 1
 132.666992188 986.666992188 202.333007812 1121.66699219 307 1205 c 0
 355 1240.33300781 405.333007812 1256.33300781 458 1253 c 1
 568.666992188 1240.33300781 648 1160.66699219 696 1014 c 1
 718 930.666992188 731.333007812 820 736 682 c 1
 736 400 737.333007812 213.333007812 740 122 c 1
 740 -1.3330078125 690 -105.333007812 590 -190 c 1
 532 -228 489.333007812 -263.666992188 462 -297 c 1
 443 -302 l 1
 434 -302 l 1
 434 -297 l 1
 485 -56 l 1
 482.333007812 -29.3330078125 525 8 613 56 c 1
 647.666992188 92.6669921875 666.666992188 135 670 183 c 1
 674 546 l 1
 671.333007812 776 637.666992188 923.333007812 573 988 c 0
 530.333007812 1027.33300781 487 1045.33300781 443 1042 c 0
 371.666992188 1038.66699219 315 1010.66699219 273 958 c 1
 231.666992188 900.666992188 205.666992188 848 195 800 c 1
 509 800 l 1
 509 586 l 2
 508.333007812 454 493.333007812 351.333007812 464 278 c 128
 434.666992188 204.666992188 384.333007812 165.333007812 313 160 c 1
 308 160 l 1
EndSplineSet
EndChar

StartChar: uniE05A
Encoding: 57434 57434 59
Width: 831
Flags: HW
LayerCount: 2
Fore
SplineSet
252 800 m 1
 252 586 l 1
 -48 586 l 1
 -48 800 l 1
 252 800 l 1
335 347 m 1
 418.333007812 351.666992188 455 431.333007812 445 586 c 1
 201 586 l 1
 212.333007812 429.333007812 257 349.666992188 335 347 c 1
273 188 m 1
 265.666992188 178.666992188 262 160 262 132 c 2
 262 108 l 2
 262 84 271.666992188 43.3330078125 291 -14 c 1
 291 -37.3330078125 272.333007812 -50.3330078125 235 -53 c 1
 197 -53 165 -8.6669921875 139 80 c 1
 139 128 162.666992188 181 210 239 c 1
 187.333007812 265.666992188 167 299.333007812 149 340 c 0
 125 399.333007812 109.333007812 481.333007812 102 586 c 1
 102 800 l 1
 129.333007812 936 182.666992188 1046.33300781 262 1131 c 0
 312 1182.33300781 369.333007812 1207 434 1205 c 0
 501.333007812 1200.33300781 558 1167.66699219 604 1107 c 1
 640 1052.33300781 659.333007812 989 662 917 c 0
 665.333007812 826.333007812 729.333007812 787.333007812 854 800 c 1
 854 586 l 1
 734 562.666992188 653 596 611 686 c 1
 578.333007812 912 514.333007812 1019 419 1007 c 1
 336.333007812 1012.33300781 264 943.333007812 202 800 c 1
 390 800 l 1
 478.666992188 779.333007812 528.333007812 708 539 586 c 1
 540.333007812 314 473.666992188 175 339 169 c 1
 315.666992188 171 293.666992188 177.333007812 273 188 c 1
EndSplineSet
EndChar

StartChar: uniE059
Encoding: 57433 57433 60
Width: 891
Flags: HW
LayerCount: 2
Fore
SplineSet
395 347 m 1
 478.333007812 351.666992188 515 431.333007812 505 586 c 1
 261 586 l 1
 272.333007812 429.333007812 317 349.666992188 395 347 c 1
333 188 m 1
 325.666992188 178.666992188 322 160 322 132 c 2
 322 108 l 2
 322 84 331.666992188 43.3330078125 351 -14 c 1
 351 -37.3330078125 332.333007812 -50.3330078125 295 -53 c 1
 257 -53 225 -8.6669921875 199 80 c 1
 199 128 222.666992188 181 270 239 c 1
 247.333007812 265.666992188 227 299.333007812 209 340 c 0
 185 399.333007812 169.333007812 481.333007812 162 586 c 1
 162 800 l 1
 189.333007812 936 242.666992188 1046.33300781 322 1131 c 0
 372 1182.33300781 429.333007812 1207 494 1205 c 0
 561.333007812 1200.33300781 618 1167.66699219 664 1107 c 1
 700 1052.33300781 719.333007812 989 722 917 c 0
 725.333007812 826.333007812 789.333007812 787.333007812 914 800 c 1
 914 586 l 1
 794 562.666992188 713 596 671 686 c 1
 638.333007812 912 574.333007812 1019 479 1007 c 1
 396.333007812 1012.33300781 324 943.333007812 262 800 c 1
 450 800 l 1
 538.666992188 779.333007812 588.333007812 708 599 586 c 1
 600.333007812 314 533.666992188 175 399 169 c 1
 375.666992188 171 353.666992188 177.333007812 333 188 c 1
EndSplineSet
EndChar

StartChar: uniE05E
Encoding: 57438 57438 61
Width: 801
Flags: HW
LayerCount: 2
Fore
SplineSet
178 800 m 1
 178 586 l 1
 -52 586 l 1
 -52 800 l 1
 178 800 l 1
96 800 m 1
 153 800 l 1
 163 832 178 873.666992188 198 925 c 1
 267.333007812 1073 354.666992188 1149.33300781 460 1154 c 1
 551.333007812 1147.33300781 615.333007812 1094 652 994 c 1
 677.333007812 915.333007812 689.666992188 818 689 702 c 0
 690.333007812 436.666992188 690.666992188 236 690 100 c 0
 692 -18.6669921875 648 -117 558 -195 c 0
 521.333007812 -224.333007812 482.333007812 -257 441 -293 c 1
 417 -303 l 1
 415 -298 l 1
 458 -85 l 1
 458 -51 497.666992188 -16.6669921875 577 18 c 1
 607.666992188 51.3330078125 625.333007812 89.6669921875 630 133 c 1
 630.666992188 379 621 581 601 739 c 0
 587 837.666992188 557 910 511 956 c 1
 477 981.333007812 438 985.333007812 394 968 c 1
 322 930 270 873.333007812 238 798 c 1
 230 786 242.666992188 762 276 726 c 1
 343.333007812 622.666992188 390 563.666992188 416 549 c 1
 421 528 l 1
 422 509 l 2
 423.333007812 486.333007812 411.166992188 439.333007812 385.5 368 c 128
 359.833007812 296.666992188 343 256 335 246 c 1
 311.666992188 238.666992188 297 241.666992188 291 255 c 1
 290 255 l 1
 289 287 l 1
 285 397 l 2
 284.333007812 417 277.666992188 436 265 454 c 1
 263 453 l 1
 251.666992188 427.666992188 238.333007812 402.333007812 223 377 c 1
 177 342 l 1
 146 322 l 1
 132.666992188 317.333007812 124 320.333007812 120 331 c 1
 157 552 l 2
 157 568 154 579.333007812 148 586 c 1
 96 586 l 1
 96 800 l 1
EndSplineSet
EndChar

StartChar: uniE05C
Encoding: 57436 57436 62
Width: 872
Flags: HW
LayerCount: 2
Fore
SplineSet
150 800 m 1
 184 800 l 1
 210.666992188 884.666992188 236.333007812 954 261 1008 c 0
 319.666992188 1126.66699219 395 1187.66699219 487 1191 c 1
 581.666992188 1189.66699219 641.666992188 1133 667 1021 c 1
 675.666992188 969.666992188 682.666992188 910 688 842 c 1
 694 811.333007812 762 797.333007812 892 800 c 1
 892 586 l 1
 754.666992188 573.333007812 671 616.333007812 641 715 c 1
 619 887.666992188 565.333007812 976 480 980 c 1
 374.666992188 980.666992188 305.333007812 912 272 774 c 1
 280.666992188 759.333007812 305.333007812 738 346 710 c 1
 400 617.333007812 440.333007812 563.666992188 467 549 c 1
 471 528 l 1
 472 509 l 2
 474 486.333007812 462.166992188 439.333007812 436.5 368 c 128
 410.833007812 296.666992188 393.666992188 256 385 246 c 1
 361.666992188 240 346.666992188 243 340 255 c 1
 339 287 l 1
 336 397 l 2
 335.333007812 417 328.666992188 435.666992188 316 453 c 1
 313 453 l 1
 301.666992188 427.666992188 288.333007812 402.333007812 273 377 c 1
 228 342 l 1
 196 322 l 1
 182.666992188 317.333007812 175 320.333007812 173 331 c 1
 208 553 l 1
 207.333007812 574.333007812 199 585.333007812 183 586 c 2
 150 586 l 1
 150 800 l 1
EndSplineSet
EndChar

StartChar: uniE05D
Encoding: 57437 57437 63
Width: 821
Flags: HW
LayerCount: 2
Fore
SplineSet
169 800 m 1
 169 586 l 1
 -51 586 l 1
 -51 800 l 1
 169 800 l 1
99 800 m 1
 133 800 l 1
 159.666992188 884.666992188 185.333007812 954 210 1008 c 0
 268.666992188 1126.66699219 344 1187.66699219 436 1191 c 1
 530.666992188 1189.66699219 590.666992188 1133 616 1021 c 1
 624.666992188 969.666992188 631.666992188 910 637 842 c 1
 643 811.333007812 711 797.333007812 841 800 c 1
 841 586 l 1
 703.666992188 573.333007812 620 616.333007812 590 715 c 1
 568 887.666992188 514.333007812 976 429 980 c 1
 323.666992188 980.666992188 254.333007812 912 221 774 c 1
 229.666992188 759.333007812 254.333007812 738 295 710 c 1
 349 617.333007812 389.333007812 563.666992188 416 549 c 1
 420 528 l 1
 421 509 l 2
 423 486.333007812 411.166992188 439.333007812 385.5 368 c 128
 359.833007812 296.666992188 342.666992188 256 334 246 c 1
 310.666992188 240 295.666992188 243 289 255 c 1
 288 287 l 1
 285 397 l 2
 284.333007812 417 277.666992188 435.666992188 265 453 c 1
 262 453 l 1
 250.666992188 427.666992188 237.333007812 402.333007812 222 377 c 1
 177 342 l 1
 145 322 l 1
 131.666992188 317.333007812 124 320.333007812 122 331 c 1
 157 553 l 1
 156.333007812 574.333007812 148 585.333007812 132 586 c 2
 99 586 l 1
 99 800 l 1
EndSplineSet
EndChar

StartChar: uniE05F
Encoding: 57439 57439 64
Width: 923
Flags: HW
LayerCount: 2
Fore
SplineSet
792 137 m 0
 791.333007812 189 764.333007812 217.333007812 711 222 c 1
 653 219.333007812 622 188.333007812 618 129 c 1
 623.333007812 74.3330078125 651.666992188 45 703 41 c 1
 762.333007812 45 792 77 792 137 c 0
608 279 m 1
 629.333007812 300.333007812 665 308.666992188 715 304 c 0
 807 296.666992188 857 239.333007812 865 132 c 1
 854.333007812 14.6669921875 800 -41 702 -35 c 1
 609.333007812 -37 558.666992188 13.3330078125 550 116 c 2
 548 149 l 1
 506 151.666992188 465.666992188 152.666992188 427 152 c 0
 311 152 230.333007812 134 185 98 c 1
 161.666992188 96.6669921875 153.333007812 125.666992188 160 185 c 1
 172.666992188 255.666992188 211.666992188 305.333007812 277 334 c 0
 325 357.333007812 383 368.333007812 451 367 c 1
 499.666992188 357 523 366 521 394 c 1
 505 464.666992188 504 528.666992188 518 586 c 1
 136 586 l 1
 136 800 l 1
 942 800 l 1
 942 586 l 1
 596 586 l 1
 580.666992188 522.666992188 577.333007812 461.666992188 586 403 c 1
 588 367.666992188 595.333007812 326.333007812 608 279 c 1
EndSplineSet
EndChar

StartChar: uniE060
Encoding: 57440 57440 65
Width: 889
Flags: HW
LayerCount: 2
Fore
SplineSet
252 800 m 1
 252 586 l 1
 -48 586 l 1
 -48 800 l 1
 252 800 l 1
758 137 m 0
 757.333007812 189 730.333007812 217.333007812 677 222 c 1
 619 219.333007812 588 188.333007812 584 129 c 1
 589.333007812 74.3330078125 617.666992188 45 669 41 c 1
 728.333007812 45 758 77 758 137 c 0
574 279 m 1
 595.333007812 300.333007812 631 308.666992188 681 304 c 0
 773 296.666992188 823 239.333007812 831 132 c 1
 820.333007812 14.6669921875 766 -41 668 -35 c 1
 575.333007812 -37 524.666992188 13.3330078125 516 116 c 2
 514 149 l 1
 472 151.666992188 431.666992188 152.666992188 393 152 c 0
 277 152 196.333007812 134 151 98 c 1
 127.666992188 96.6669921875 119.333007812 125.666992188 126 185 c 1
 138.666992188 255.666992188 177.666992188 305.333007812 243 334 c 0
 291 357.333007812 349 368.333007812 417 367 c 1
 465.666992188 357 489 366 487 394 c 1
 471 464.666992188 470 528.666992188 484 586 c 1
 102 586 l 1
 102 800 l 1
 908 800 l 1
 908 586 l 1
 562 586 l 1
 546.666992188 522.666992188 543.333007812 461.666992188 552 403 c 1
 554 367.666992188 561.333007812 326.333007812 574 279 c 1
EndSplineSet
EndChar

StartChar: uniE061
Encoding: 57441 57441 66
Width: 1339
Flags: HW
LayerCount: 2
Fore
SplineSet
894 800 m 1
 1004.66699219 796.666992188 1077.33300781 778.666992188 1112 746 c 1
 1166 701.333007812 1197 631.666992188 1205 537 c 1
 1207 431 1187.66699219 353 1147 303 c 1
 1111.66699219 281 1094 287.333007812 1094 322 c 2
 1094 332 l 1
 1100 366 l 1
 1098.66699219 473.333007812 1074 541 1026 569 c 1
 1000 579.666992188 956 585.666992188 894 587 c 1
 894 800 l 1
258 800 m 1
 258 586 l 1
 -42 586 l 1
 -42 800 l 1
 258 800 l 1
764 137 m 0
 763.333007812 189 736.333007812 217.333007812 683 222 c 1
 625 219.333007812 594 188.333007812 590 129 c 1
 595.333007812 74.3330078125 623.666992188 45 675 41 c 1
 734.333007812 45 764 77 764 137 c 0
580 279 m 1
 601.333007812 300.333007812 637 308.666992188 687 304 c 0
 779 296.666992188 829 239.333007812 837 132 c 1
 826.333007812 14.6669921875 772 -41 674 -35 c 1
 581.333007812 -37 530.666992188 13.3330078125 522 116 c 2
 520 149 l 1
 478 151.666992188 437.666992188 152.666992188 399 152 c 0
 283 152 202.333007812 134 157 98 c 1
 133.666992188 96.6669921875 125.333007812 125.666992188 132 185 c 1
 144.666992188 255.666992188 183.666992188 305.333007812 249 334 c 0
 297 357.333007812 355 368.333007812 423 367 c 1
 471.666992188 357 495 366 493 394 c 1
 477 464.666992188 476 528.666992188 490 586 c 1
 108 586 l 1
 108 800 l 1
 914 800 l 1
 914 586 l 1
 568 586 l 1
 552.666992188 522.666992188 549.333007812 461.666992188 558 403 c 1
 560 367.666992188 567.333007812 326.333007812 580 279 c 1
EndSplineSet
EndChar

StartChar: uniE062
Encoding: 57442 57442 67
Width: 913
Flags: HW
LayerCount: 2
Fore
SplineSet
635 130 m 0
 664.333007812 63.3330078125 703.666992188 30 753 30 c 0
 799 28 841.333007812 48.3330078125 880 91 c 1
 894 91 l 1
 917.333007812 71.6669921875 925.666992188 34 919 -22 c 1
 898.333007812 -76 850.666992188 -104.333007812 776 -107 c 1
 701.333007812 -101 642.333007812 -64.3330078125 599 3 c 1
 567.666992188 58.3330078125 550 103.333007812 546 138 c 0
 544.666992188 143.333007812 540.333007812 147.666992188 533 151 c 1
 497.666992188 152.333007812 463 152.666992188 429 152 c 0
 313 152 232.333007812 134 187 98 c 1
 163.666992188 96.6669921875 155.333007812 125.666992188 162 185 c 1
 174.666992188 255.666992188 213.666992188 305.333007812 279 334 c 0
 327 357.333007812 381.666992188 368.333007812 443 367 c 1
 491.666992188 357 515 366 513 394 c 1
 497 464.666992188 496 528.666992188 510 586 c 1
 148 586 l 1
 148 800 l 1
 944 800 l 1
 944 586 l 1
 598 586 l 1
 582.666992188 522.666992188 579.333007812 461.666992188 588 403 c 1
 590 360.333007812 595.333007812 309.666992188 604 251 c 0
 610.666992188 199.666992188 621 159.333007812 635 130 c 0
EndSplineSet
EndChar

StartChar: uniE063
Encoding: 57443 57443 68
Width: 869
Flags: HW
LayerCount: 2
Fore
SplineSet
254 800 m 1
 254 586 l 1
 -46 586 l 1
 -46 800 l 1
 254 800 l 1
591 130 m 0
 620.333007812 63.3330078125 659.666992188 30 709 30 c 0
 755 28 797.333007812 48.3330078125 836 91 c 1
 850 91 l 1
 873.333007812 71.6669921875 881.666992188 34 875 -22 c 1
 854.333007812 -76 806.666992188 -104.333007812 732 -107 c 1
 657.333007812 -101 598.333007812 -64.3330078125 555 3 c 1
 523.666992188 58.3330078125 506 103.333007812 502 138 c 0
 500.666992188 143.333007812 496.333007812 147.666992188 489 151 c 1
 453.666992188 152.333007812 419 152.666992188 385 152 c 0
 269 152 188.333007812 134 143 98 c 1
 119.666992188 96.6669921875 111.333007812 125.666992188 118 185 c 1
 130.666992188 255.666992188 169.666992188 305.333007812 235 334 c 0
 283 357.333007812 337.666992188 368.333007812 399 367 c 1
 447.666992188 357 471 366 469 394 c 1
 453 464.666992188 452 528.666992188 466 586 c 1
 104 586 l 1
 104 800 l 1
 900 800 l 1
 900 586 l 1
 554 586 l 1
 538.666992188 522.666992188 535.333007812 461.666992188 544 403 c 1
 546 360.333007812 551.333007812 309.666992188 560 251 c 0
 566.666992188 199.666992188 577 159.333007812 591 130 c 0
EndSplineSet
EndChar

StartChar: uniE064
Encoding: 57444 57444 69
Width: 1311
Flags: HW
LayerCount: 2
Fore
SplineSet
254 800 m 1
 254 586 l 1
 -46 586 l 1
 -46 800 l 1
 254 800 l 1
868 800 m 1
 978.666992188 796.666992188 1051.33300781 778.666992188 1086 746 c 1
 1140 701.333007812 1171 631.666992188 1179 537 c 1
 1181 431 1161.66699219 353 1121 303 c 1
 1085.66699219 281 1068 287.333007812 1068 322 c 2
 1068 332 l 1
 1074 366 l 1
 1072.66699219 473.333007812 1048 541 1000 569 c 1
 974 579.666992188 930 585.666992188 868 587 c 1
 868 800 l 1
591 130 m 0
 620.333007812 63.3330078125 659.666992188 30 709 30 c 0
 755 28 797.333007812 48.3330078125 836 91 c 1
 850 91 l 1
 873.333007812 71.6669921875 881.666992188 34 875 -22 c 1
 854.333007812 -76 806.666992188 -104.333007812 732 -107 c 1
 657.333007812 -101 598.333007812 -64.3330078125 555 3 c 1
 523.666992188 58.3330078125 506 103.333007812 502 138 c 0
 500.666992188 143.333007812 496.333007812 147.666992188 489 151 c 1
 453.666992188 152.333007812 419 152.666992188 385 152 c 0
 269 152 188.333007812 134 143 98 c 1
 119.666992188 96.6669921875 111.333007812 125.666992188 118 185 c 1
 130.666992188 255.666992188 169.666992188 305.333007812 235 334 c 0
 283 357.333007812 337.666992188 368.333007812 399 367 c 1
 447.666992188 357 471 366 469 394 c 1
 453 464.666992188 452 528.666992188 466 586 c 1
 104 586 l 1
 104 800 l 1
 900 800 l 1
 900 586 l 1
 554 586 l 1
 538.666992188 522.666992188 535.333007812 461.666992188 544 403 c 1
 546 360.333007812 551.333007812 309.666992188 560 251 c 0
 566.666992188 199.666992188 577 159.333007812 591 130 c 0
EndSplineSet
EndChar

StartChar: uniE066
Encoding: 57446 57446 70
Width: 854
Flags: HW
LayerCount: 2
Fore
SplineSet
250 800 m 1
 250 586 l 1
 -50 586 l 1
 -50 800 l 1
 250 800 l 1
100 800 m 1
 278 800 l 1
 275 655 l 1
 289 503.666992188 344 351.666992188 440 199 c 0
 470.666992188 151.666992188 494.333007812 122.666992188 511 112 c 1
 520 114 l 1
 542 150.666992188 567.666992188 207.666992188 597 285 c 1
 515 429 l 1
 404.333007812 641.666992188 386 765.333007812 460 800 c 1
 878 800 l 1
 878 586 l 1
 605 586 l 2
 574.333007812 588 559.333007812 580.666992188 560 564 c 0
 560 520 615 430 725 294 c 1
 710.333007812 246.666992188 685.666992188 191.333007812 651 128 c 1
 546 -86 l 1
 518 -89 l 1
 440 -0.3330078125 378 87 332 173 c 1
 276.666992188 265.666992188 227.666992188 381 185 519 c 0
 177 546.333007812 168.333007812 568.666992188 159 586 c 1
 100 586 l 1
 100 800 l 1
EndSplineSet
EndChar

StartChar: uniE067
Encoding: 57447 57447 71
Width: 852
Flags: HW
LayerCount: 2
Fore
SplineSet
248 800 m 1
 248 586 l 1
 -52 586 l 1
 -52 800 l 1
 248 800 l 1
852 800 m 1
 962.666992188 796.666992188 1035.33300781 778.666992188 1070 746 c 1
 1124 701.333007812 1155 631.666992188 1163 537 c 1
 1165 431 1145.66699219 353 1105 303 c 1
 1069.66699219 281 1052 287.333007812 1052 322 c 2
 1052 332 l 1
 1058 366 l 1
 1056.66699219 473.333007812 1032 541 984 569 c 1
 958 579.666992188 914 585.666992188 852 587 c 1
 852 800 l 1
98 800 m 1
 276 800 l 1
 273 655 l 1
 287 503.666992188 342 351.666992188 438 199 c 0
 468.666992188 151.666992188 492.333007812 122.666992188 509 112 c 1
 518 114 l 1
 540 150.666992188 565.666992188 207.666992188 595 285 c 1
 513 429 l 1
 402.333007812 641.666992188 384 765.333007812 458 800 c 1
 876 800 l 1
 876 586 l 1
 603 586 l 2
 572.333007812 588 557.333007812 580.666992188 558 564 c 0
 558 520 613 430 723 294 c 1
 708.333007812 246.666992188 683.666992188 191.333007812 649 128 c 1
 544 -86 l 1
 516 -89 l 1
 438 -0.3330078125 376 87 330 173 c 1
 274.666992188 265.666992188 225.666992188 381 183 519 c 0
 175 546.333007812 166.333007812 568.666992188 157 586 c 1
 98 586 l 1
 98 800 l 1
EndSplineSet
EndChar

StartChar: uniE068
Encoding: 57448 57448 72
Width: 1118
Flags: HW
LayerCount: 2
Fore
SplineSet
158 697 m 0
 158 839 204.666992188 975.666992188 298 1107 c 1
 362.666992188 1184.33300781 437.666992188 1243 523 1283 c 0
 571 1307 625.666992188 1317.66699219 687 1315 c 1
 804.333007812 1302.33300781 870.333007812 1231.66699219 885 1103 c 1
 886.333007812 1041 890 991.5 896 954.5 c 128
 902 917.5 902.333007812 866 897 800 c 1
 1124 800 l 1
 1124 586 l 1
 959 586 l 1
 942.333007812 467.333007812 923.666992188 355.666992188 903 251 c 1
 889.666992188 241.666992188 875.333007812 241.333007812 860 250 c 1
 846 283.333007812 826.666992188 349.333007812 802 448 c 1
 788 608 l 1
 793 723 l 1
 793.666992188 821 771.333007812 870 726 870 c 1
 692 864.666992188 638.666992188 835 566 781 c 1
 527.333007812 758.333007812 508.333007812 764.333007812 509 799 c 1
 581 910.333007812 657.333007812 993.333007812 738 1048 c 1
 766 1070.66699219 791.666992188 1078 815 1070 c 1
 825 1070 830.333007812 1078.33300781 831 1095 c 1
 821 1143 791 1180 741 1206 c 0
 715.666992188 1221.33300781 682.333007812 1226.33300781 641 1221 c 0
 556.333007812 1212.33300781 475.333007812 1167 398 1085 c 1
 308.666992188 969.666992188 257.666992188 845.666992188 245 713 c 1
 242.333007812 597 272 484.333007812 334 375 c 1
 428 247 518.666992188 179.333007812 606 172 c 0
 634 170 650 179.333007812 654 200 c 1
 632 304 l 1
 632 310 l 1
 641 320 l 1
 667 318 l 1
 736.333007812 272.666992188 772.666992188 224.666992188 776 174 c 1
 776 142 l 1
 772.666992188 104 741.333007812 80.6669921875 682 72 c 1
 584 70 485.666992188 108 387 186 c 1
 235.666992188 334.666992188 159.333007812 505 158 697 c 0
EndSplineSet
EndChar

StartChar: uniE077
Encoding: 57463 57463 73
Width: 1671
Flags: HW
LayerCount: 2
Fore
SplineSet
242 800 m 1
 242 586 l 1
 -58 586 l 1
 -58 800 l 1
 242 800 l 1
1352 800 m 1
 1487.33300781 774 1551.33300781 601 1544 281 c 1
 1547.33300781 171.666992188 1542.5 71.1669921875 1529.5 -20.5 c 128
 1516.5 -112.166992188 1478.33300781 -181.333007812 1415 -228 c 0
 1366.33300781 -262.666992188 1324.33300781 -306.666992188 1289 -360 c 1
 1263.66699219 -410.666992188 1241.33300781 -436.333007812 1222 -437 c 0
 1202.66699219 -440.333007812 1191.66699219 -432.666992188 1189 -414 c 1
 1258 -115 l 1
 1287.33300781 -111 1315.33300781 -103.666992188 1342 -93 c 1
 1403.33300781 -53.6669921875 1437 -1.6669921875 1443 63 c 1
 1448 163 l 1
 1448 424 l 1
 1435.33300781 476.666992188 1416 514.666992188 1390 538 c 1
 1360 573.333007812 1309 589.333007812 1237 586 c 1
 982 586 l 1
 982 800 l 1
 1352 800 l 1
92 800 m 1
 250 800 l 1
 246.666992188 734.666992188 249.333007812 678.333007812 258 631 c 1
 276.666992188 559 301.333007812 508 332 478 c 128
 362.666992188 448 381 450.666992188 387 486 c 128
 393 521.333007812 402.333007812 564.666992188 415 616 c 1
 433.666992188 772.666992188 502 976.666992188 620 1228 c 1
 682 1344.66699219 709 1424.33300781 701 1467 c 1
 689 1605 l 1
 690 1635 l 1
 698 1672.33300781 721 1683.33300781 759 1668 c 1
 836.333007812 1510.66699219 898.333007812 1384.33300781 945 1289 c 1
 881 1203 l 2
 854.333007812 1169 813.333007812 1107.66699219 758 1019 c 0
 712 946.333007812 667.333007812 855 624 745 c 1
 582.666992188 650.333007812 555 534.333007812 541 397 c 0
 535.666992188 347.666992188 533.833007812 301.333007812 535.5 258 c 128
 537.166992188 214.666992188 535 183.666992188 529 165 c 1
 509.666992188 154.333007812 491.666992188 153 475 161 c 0
 401 201 331.666992188 274.666992188 267 382 c 0
 217.666992188 462 184.666992188 530 168 586 c 1
 92 586 l 1
 92 800 l 1
985 331 m 0
 985 319.666992188 978.333007812 308 965 296 c 128
 951.666992188 284 939.5 274.166992188 928.5 266.5 c 128
 917.5 258.833007812 907 249.666992188 897 239 c 0
 880.333007812 221.666992188 865.833007812 204.5 853.5 187.5 c 128
 841.166992188 170.5 829.666992188 161.333007812 819 160 c 0
 803 159.333007812 790.166992188 163 780.5 171 c 128
 770.833007812 179 766 191.333007812 766 208 c 0
 764 233.333007812 770.666992188 267 786 309 c 0
 796 335.666992188 807.833007812 357.166992188 821.5 373.5 c 128
 835.166992188 389.833007812 847.333007812 401.333007812 858 408 c 128
 868.666992188 414.666992188 881 418 895 418 c 256
 909 418 924.666992188 411 942 397 c 0
 970.666992188 372.333007812 985 350.333007812 985 331 c 0
EndSplineSet
EndChar

StartChar: uniE079
Encoding: 57465 57465 74
Width: 1660
Flags: HW
LayerCount: 2
Fore
SplineSet
1197 800 m 1
 1307.66699219 796.666992188 1380.33300781 778.666992188 1415 746 c 1
 1469 701.333007812 1500 631.666992188 1508 537 c 1
 1510 431 1490.66699219 353 1450 303 c 1
 1414.66699219 281 1397 287.333007812 1397 322 c 2
 1397 332 l 1
 1403 366 l 1
 1401.66699219 473.333007812 1377 541 1329 569 c 1
 1303 579.666992188 1259 585.666992188 1197 587 c 1
 1197 800 l 1
1227 800 m 1
 1227 586 l 1
 883 586 l 2
 857.666992188 585.333007812 844.333007812 573.666992188 843 551 c 1
 831 514.333007812 871.666992188 420.666992188 965 270 c 1
 971 237 l 1
 957.666992188 93.6669921875 942.666992188 22.3330078125 926 23 c 2
 911 24 l 1
 855.666992188 100.666992188 807.333007812 209.333007812 766 350 c 0
 740 444.666992188 723 523.333007812 715 586 c 1
 715 800 l 1
 1227 800 l 1
153 800 m 1
 167 1014.66699219 252 1149.66699219 408 1205 c 1
 509.333007812 1229 590 1202.33300781 650 1125 c 1
 716 1048.33300781 755.333007812 940 768 800 c 1
 715 586 l 1
 690.333007812 729.333007812 663 832 633 894 c 0
 587.666992188 995.333007812 531.333007812 1044.66699219 464 1042 c 1
 403.333007812 1036 352.666992188 1008 312 958 c 128
 271.333007812 908 248.333007812 855.333007812 243 800 c 1
 456 800 l 1
 571.333007812 768.666992188 617.333007812 638.666992188 594 410 c 1
 574 244 511.333007812 160.333007812 406 159 c 0
 304 159 235.333007812 212.666992188 200 320 c 0
 180.666992188 378 165 466.666992188 153 586 c 1
 153 800 l 1
393 344 m 1
 481 344 522 424.666992188 516 586 c 1
 252 586 l 1
 246.666992188 432 293.666992188 351.333007812 393 344 c 1
EndSplineSet
EndChar

StartChar: uniE07F
Encoding: 57471 57471 75
Width: 1139
Flags: HW
LayerCount: 2
Fore
SplineSet
1200 800 m 1
 1200 586 l 1
 856 586 l 2
 830.666992188 585.333007812 817.333007812 573.666992188 816 551 c 1
 804 514.333007812 844.666992188 420.666992188 938 270 c 1
 944 237 l 1
 930.666992188 93.6669921875 915.666992188 22.3330078125 899 23 c 2
 884 24 l 1
 828.666992188 100.666992188 780.333007812 209.333007812 739 350 c 0
 713 444.666992188 696 523.333007812 688 586 c 1
 688 800 l 1
 1200 800 l 1
126 800 m 1
 140 1014.66699219 225 1149.66699219 381 1205 c 1
 482.333007812 1229 563 1202.33300781 623 1125 c 1
 689 1048.33300781 728.333007812 940 741 800 c 1
 688 586 l 1
 663.333007812 729.333007812 636 832 606 894 c 0
 560.666992188 995.333007812 504.333007812 1044.66699219 437 1042 c 1
 376.333007812 1036 325.666992188 1008 285 958 c 128
 244.333007812 908 221.333007812 855.333007812 216 800 c 1
 429 800 l 1
 544.333007812 768.666992188 590.333007812 638.666992188 567 410 c 1
 547 244 484.333007812 160.333007812 379 159 c 0
 277 159 208.333007812 212.666992188 173 320 c 0
 153.666992188 378 138 466.666992188 126 586 c 1
 126 800 l 1
366 344 m 1
 454 344 495 424.666992188 489 586 c 1
 225 586 l 1
 219.666992188 432 266.666992188 351.333007812 366 344 c 1
EndSplineSet
EndChar

StartChar: uniE07A
Encoding: 57466 57466 76
Width: 1005
Flags: HW
LayerCount: 2
Fore
SplineSet
683 327 m 1
 741 327 775.333007812 365.333007812 786 442 c 0
 792.666992188 482 793 530 787 586 c 1
 598 586 l 1
 580 582.666992188 571 551.333007812 571 492 c 0
 575 388 612.333007812 333 683 327 c 1
867 586 m 2
 867.666992188 516.666992188 867 459.333007812 865 414 c 1
 845 250.666992188 784.666992188 171 684 175 c 1
 621.333007812 172.333007812 575.333007812 202 546 264 c 0
 514.666992188 336.666992188 502 444 508 586 c 0
 515.333007812 707.333007812 551.666992188 778.666992188 617 800 c 1
 867 800 l 1
 867 586 l 2
130 800 m 1
 146 859.333007812 167.333007812 916 194 970 c 0
 253.333007812 1080.66699219 331 1158.33300781 427 1203 c 1
 578.333007812 1257.66699219 699 1212.66699219 789 1068 c 1
 839.666992188 978.666992188 865.666992188 886 867 790 c 1
 863.666992188 732.666992188 854.666992188 668 840 596 c 1
 831 790 l 1
 787 790 l 1
 753.666992188 946.666992188 670 1025.66699219 536 1027 c 0
 393.333007812 1025.66699219 291.333007812 950 230 800 c 1
 409 800 l 1
 491 769.333007812 538 698 550 586 c 1
 555.333007812 458 539.666992188 351 503 265 c 1
 464.333007812 195.666992188 416 160.666992188 358 160 c 1
 272 164.666992188 207.333007812 233.666992188 164 367 c 0
 142 440.333007812 130.666992188 513.333007812 130 586 c 2
 130 800 l 1
354 349 m 1
 444.666992188 353 483 432 469 586 c 1
 215 586 l 1
 224.333007812 430 270.666992188 351 354 349 c 1
EndSplineSet
EndChar

StartChar: uniE07B
Encoding: 57467 57467 77
Width: 1319
Flags: HW
LayerCount: 2
Fore
SplineSet
879 800 m 1
 989.666992188 796.666992188 1062.33300781 778.666992188 1097 746 c 1
 1151 701.333007812 1182 631.666992188 1190 537 c 1
 1192 431 1172.66699219 353 1132 303 c 1
 1096.66699219 281 1079 287.333007812 1079 322 c 2
 1079 332 l 1
 1085 366 l 1
 1083.66699219 473.333007812 1059 541 1011 569 c 1
 985 579.666992188 941 585.666992188 879 587 c 1
 879 800 l 1
700 327 m 1
 758 327 792.333007812 365.333007812 803 442 c 0
 809.666992188 482 810 530 804 586 c 1
 615 586 l 1
 597 582.666992188 588 551.333007812 588 492 c 0
 592 388 629.333007812 333 700 327 c 1
884 586 m 2
 884.666992188 516.666992188 884 459.333007812 882 414 c 1
 862 250.666992188 801.666992188 171 701 175 c 1
 638.333007812 172.333007812 592.333007812 202 563 264 c 0
 531.666992188 336.666992188 519 444 525 586 c 0
 532.333007812 707.333007812 568.666992188 778.666992188 634 800 c 1
 884 800 l 1
 884 586 l 2
147 800 m 1
 163 859.333007812 184.333007812 916 211 970 c 0
 270.333007812 1080.66699219 348 1158.33300781 444 1203 c 1
 595.333007812 1257.66699219 716 1212.66699219 806 1068 c 1
 856.666992188 978.666992188 882.666992188 886 884 790 c 1
 880.666992188 732.666992188 871.666992188 668 857 596 c 1
 848 790 l 1
 804 790 l 1
 770.666992188 946.666992188 687 1025.66699219 553 1027 c 0
 410.333007812 1025.66699219 308.333007812 950 247 800 c 1
 426 800 l 1
 508 769.333007812 555 698 567 586 c 1
 572.333007812 458 556.666992188 351 520 265 c 1
 481.333007812 195.666992188 433 160.666992188 375 160 c 1
 289 164.666992188 224.333007812 233.666992188 181 367 c 0
 159 440.333007812 147.666992188 513.333007812 147 586 c 2
 147 800 l 1
371 349 m 1
 461.666992188 353 500 432 486 586 c 1
 232 586 l 1
 241.333007812 430 287.666992188 351 371 349 c 1
EndSplineSet
EndChar

StartChar: uniE07C
Encoding: 57468 57468 78
Width: 1024
Flags: HW
LayerCount: 2
Fore
SplineSet
694 800 m 1
 1067 800 l 1
 1067 586 l 1
 889 586 l 1
 869 448.666992188 849 336.666992188 829 250 c 1
 811 230 791 230 769 250 c 1
 742.333007812 336.666992188 717.333007812 448.666992188 694 586 c 1
 694 800 l 1
132 800 m 1
 146 1014.66699219 231 1149.66699219 387 1205 c 1
 488.333007812 1229 569 1202.33300781 629 1125 c 1
 695 1048.33300781 734.333007812 940 747 800 c 1
 694 586 l 1
 669.333007812 729.333007812 642 832 612 894 c 0
 566.666992188 995.333007812 510.333007812 1044.66699219 443 1042 c 1
 382.333007812 1036 331.666992188 1008 291 958 c 128
 250.333007812 908 227.333007812 855.333007812 222 800 c 1
 435 800 l 1
 550.333007812 768.666992188 596.333007812 638.666992188 573 410 c 1
 553 244 490.333007812 160.333007812 385 159 c 0
 283 159 214.333007812 212.666992188 179 320 c 0
 159.666992188 378 144 466.666992188 132 586 c 1
 132 800 l 1
372 344 m 1
 460 344 501 424.666992188 495 586 c 1
 231 586 l 1
 225.666992188 432 272.666992188 351.333007812 372 344 c 1
EndSplineSet
EndChar

StartChar: uniE07D
Encoding: 57469 57469 79
Width: 997
Flags: HW
LayerCount: 2
Fore
SplineSet
253 800 m 1
 253 586 l 1
 -47 586 l 1
 -47 800 l 1
 253 800 l 1
667 800 m 1
 1040 800 l 1
 1040 586 l 1
 862 586 l 1
 842 448.666992188 822 336.666992188 802 250 c 1
 784 230 764 230 742 250 c 1
 715.333007812 336.666992188 690.333007812 448.666992188 667 586 c 1
 667 800 l 1
105 800 m 1
 119 1014.66699219 204 1149.66699219 360 1205 c 1
 461.333007812 1229 542 1202.33300781 602 1125 c 1
 668 1048.33300781 707.333007812 940 720 800 c 1
 667 586 l 1
 642.333007812 729.333007812 615 832 585 894 c 0
 539.666992188 995.333007812 483.333007812 1044.66699219 416 1042 c 1
 355.333007812 1036 304.666992188 1008 264 958 c 128
 223.333007812 908 200.333007812 855.333007812 195 800 c 1
 408 800 l 1
 523.333007812 768.666992188 569.333007812 638.666992188 546 410 c 1
 526 244 463.333007812 160.333007812 358 159 c 0
 256 159 187.333007812 212.666992188 152 320 c 0
 132.666992188 378 117 466.666992188 105 586 c 1
 105 800 l 1
345 344 m 1
 433 344 474 424.666992188 468 586 c 1
 204 586 l 1
 198.666992188 432 245.666992188 351.333007812 345 344 c 1
EndSplineSet
EndChar

StartChar: uniE080
Encoding: 57472 57472 80
Width: 1103
Flags: HW
LayerCount: 2
Fore
SplineSet
250 800 m 1
 250 586 l 1
 -50 586 l 1
 -50 800 l 1
 250 800 l 1
1174 800 m 1
 1174 586 l 1
 830 586 l 2
 804.666992188 585.333007812 791.333007812 573.666992188 790 551 c 1
 778 514.333007812 818.666992188 420.666992188 912 270 c 1
 918 237 l 1
 904.666992188 93.6669921875 889.666992188 22.3330078125 873 23 c 2
 858 24 l 1
 802.666992188 100.666992188 754.333007812 209.333007812 713 350 c 0
 687 444.666992188 670 523.333007812 662 586 c 1
 662 800 l 1
 1174 800 l 1
100 800 m 1
 114 1014.66699219 199 1149.66699219 355 1205 c 1
 456.333007812 1229 537 1202.33300781 597 1125 c 1
 663 1048.33300781 702.333007812 940 715 800 c 1
 662 586 l 1
 637.333007812 729.333007812 610 832 580 894 c 0
 534.666992188 995.333007812 478.333007812 1044.66699219 411 1042 c 1
 350.333007812 1036 299.666992188 1008 259 958 c 128
 218.333007812 908 195.333007812 855.333007812 190 800 c 1
 403 800 l 1
 518.333007812 768.666992188 564.333007812 638.666992188 541 410 c 1
 521 244 458.333007812 160.333007812 353 159 c 0
 251 159 182.333007812 212.666992188 147 320 c 0
 127.666992188 378 112 466.666992188 100 586 c 1
 100 800 l 1
340 344 m 1
 428 344 469 424.666992188 463 586 c 1
 199 586 l 1
 193.666992188 432 240.666992188 351.333007812 340 344 c 1
EndSplineSet
EndChar

StartChar: uniE081
Encoding: 57473 57473 81
Width: 1609
Flags: HW
LayerCount: 2
Fore
SplineSet
249 800 m 1
 249 586 l 1
 -51 586 l 1
 -51 800 l 1
 249 800 l 1
1146 800 m 1
 1256.66699219 796.666992188 1329.33300781 778.666992188 1364 746 c 1
 1418 701.333007812 1449 631.666992188 1457 537 c 1
 1459 431 1439.66699219 353 1399 303 c 1
 1363.66699219 281 1346 287.333007812 1346 322 c 2
 1346 332 l 1
 1352 366 l 1
 1350.66699219 473.333007812 1326 541 1278 569 c 1
 1252 579.666992188 1208 585.666992188 1146 587 c 1
 1146 800 l 1
1176 800 m 1
 1176 586 l 1
 832 586 l 2
 806.666992188 585.333007812 793.333007812 573.666992188 792 551 c 1
 780 514.333007812 820.666992188 420.666992188 914 270 c 1
 920 237 l 1
 906.666992188 93.6669921875 891.666992188 22.3330078125 875 23 c 2
 860 24 l 1
 804.666992188 100.666992188 756.333007812 209.333007812 715 350 c 0
 689 444.666992188 672 523.333007812 664 586 c 1
 664 800 l 1
 1176 800 l 1
102 800 m 1
 116 1014.66699219 201 1149.66699219 357 1205 c 1
 458.333007812 1229 539 1202.33300781 599 1125 c 1
 665 1048.33300781 704.333007812 940 717 800 c 1
 664 586 l 1
 639.333007812 729.333007812 612 832 582 894 c 0
 536.666992188 995.333007812 480.333007812 1044.66699219 413 1042 c 1
 352.333007812 1036 301.666992188 1008 261 958 c 128
 220.333007812 908 197.333007812 855.333007812 192 800 c 1
 405 800 l 1
 520.333007812 768.666992188 566.333007812 638.666992188 543 410 c 1
 523 244 460.333007812 160.333007812 355 159 c 0
 253 159 184.333007812 212.666992188 149 320 c 0
 129.666992188 378 114 466.666992188 102 586 c 1
 102 800 l 1
342 344 m 1
 430 344 471 424.666992188 465 586 c 1
 201 586 l 1
 195.666992188 432 242.666992188 351.333007812 342 344 c 1
EndSplineSet
EndChar

StartChar: uniE082
Encoding: 57474 57474 82
Width: 966
Flags: HW
LayerCount: 2
Fore
SplineSet
1010 800 m 1
 1010 586 l 1
 710 586 l 1
 710 800 l 1
 1010 800 l 1
683 327 m 1
 741 327 775.333007812 365.333007812 786 442 c 0
 792.666992188 482 793 530 787 586 c 1
 598 586 l 1
 580 582.666992188 571 551.333007812 571 492 c 0
 575 388 612.333007812 333 683 327 c 1
867 586 m 2
 867.666992188 516.666992188 867 459.333007812 865 414 c 1
 845 250.666992188 784.666992188 171 684 175 c 1
 621.333007812 172.333007812 575.333007812 202 546 264 c 0
 514.666992188 336.666992188 502 444 508 586 c 0
 515.333007812 707.333007812 551.666992188 778.666992188 617 800 c 1
 867 800 l 1
 867 586 l 2
130 800 m 1
 146 859.333007812 167.333007812 916 194 970 c 0
 253.333007812 1080.66699219 331 1158.33300781 427 1203 c 1
 578.333007812 1257.66699219 699 1212.66699219 789 1068 c 1
 839.666992188 978.666992188 865.666992188 886 867 790 c 1
 863.666992188 732.666992188 854.666992188 668 840 596 c 1
 831 790 l 1
 787 790 l 1
 753.666992188 946.666992188 670 1025.66699219 536 1027 c 0
 393.333007812 1025.66699219 291.333007812 950 230 800 c 1
 409 800 l 1
 491 769.333007812 538 698 550 586 c 1
 555.333007812 458 539.666992188 351 503 265 c 1
 464.333007812 195.666992188 416 160.666992188 358 160 c 1
 272 164.666992188 207.333007812 233.666992188 164 367 c 0
 142 440.333007812 130.666992188 513.333007812 130 586 c 2
 130 800 l 1
354 349 m 1
 444.666992188 353 483 432 469 586 c 1
 215 586 l 1
 224.333007812 430 270.666992188 351 354 349 c 1
EndSplineSet
EndChar

StartChar: uniE083
Encoding: 57475 57475 83
Width: 936
Flags: HW
LayerCount: 2
Fore
SplineSet
980 800 m 1
 980 586 l 1
 680 586 l 1
 680 800 l 1
 980 800 l 1
247 800 m 1
 247 586 l 1
 -53 586 l 1
 -53 800 l 1
 247 800 l 1
650 327 m 1
 708 327 742.333007812 365.333007812 753 442 c 0
 759.666992188 482 760 530 754 586 c 1
 565 586 l 1
 547 582.666992188 538 551.333007812 538 492 c 0
 542 388 579.333007812 333 650 327 c 1
834 586 m 2
 834.666992188 516.666992188 834 459.333007812 832 414 c 1
 812 250.666992188 751.666992188 171 651 175 c 1
 588.333007812 172.333007812 542.333007812 202 513 264 c 0
 481.666992188 336.666992188 469 444 475 586 c 0
 482.333007812 707.333007812 518.666992188 778.666992188 584 800 c 1
 834 800 l 1
 834 586 l 2
97 800 m 1
 113 859.333007812 134.333007812 916 161 970 c 0
 220.333007812 1080.66699219 298 1158.33300781 394 1203 c 1
 545.333007812 1257.66699219 666 1212.66699219 756 1068 c 1
 806.666992188 978.666992188 832.666992188 886 834 790 c 1
 830.666992188 732.666992188 821.666992188 668 807 596 c 1
 798 790 l 1
 754 790 l 1
 720.666992188 946.666992188 637 1025.66699219 503 1027 c 0
 360.333007812 1025.66699219 258.333007812 950 197 800 c 1
 376 800 l 1
 458 769.333007812 505 698 517 586 c 1
 522.333007812 458 506.666992188 351 470 265 c 1
 431.333007812 195.666992188 383 160.666992188 325 160 c 1
 239 164.666992188 174.333007812 233.666992188 131 367 c 0
 109 440.333007812 97.6669921875 513.333007812 97 586 c 2
 97 800 l 1
321 349 m 1
 411.666992188 353 450 432 436 586 c 1
 182 586 l 1
 191.333007812 430 237.666992188 351 321 349 c 1
EndSplineSet
EndChar

StartChar: uniE084
Encoding: 57476 57476 84
Width: 975
Flags: HW
LayerCount: 2
Fore
SplineSet
250 800 m 1
 250 586 l 1
 -50 586 l 1
 -50 800 l 1
 250 800 l 1
653 327 m 1
 711 327 745.333007812 365.333007812 756 442 c 0
 762.666992188 482 763 530 757 586 c 1
 568 586 l 1
 550 582.666992188 541 551.333007812 541 492 c 0
 545 388 582.333007812 333 653 327 c 1
837 586 m 2
 837.666992188 516.666992188 837 459.333007812 835 414 c 1
 815 250.666992188 754.666992188 171 654 175 c 1
 591.333007812 172.333007812 545.333007812 202 516 264 c 0
 484.666992188 336.666992188 472 444 478 586 c 0
 485.333007812 707.333007812 521.666992188 778.666992188 587 800 c 1
 837 800 l 1
 837 586 l 2
100 800 m 1
 116 859.333007812 137.333007812 916 164 970 c 0
 223.333007812 1080.66699219 301 1158.33300781 397 1203 c 1
 548.333007812 1257.66699219 669 1212.66699219 759 1068 c 1
 809.666992188 978.666992188 835.666992188 886 837 790 c 1
 833.666992188 732.666992188 824.666992188 668 810 596 c 1
 801 790 l 1
 757 790 l 1
 723.666992188 946.666992188 640 1025.66699219 506 1027 c 0
 363.333007812 1025.66699219 261.333007812 950 200 800 c 1
 379 800 l 1
 461 769.333007812 508 698 520 586 c 1
 525.333007812 458 509.666992188 351 473 265 c 1
 434.333007812 195.666992188 386 160.666992188 328 160 c 1
 242 164.666992188 177.333007812 233.666992188 134 367 c 0
 112 440.333007812 100.666992188 513.333007812 100 586 c 2
 100 800 l 1
324 349 m 1
 414.666992188 353 453 432 439 586 c 1
 185 586 l 1
 194.333007812 430 240.666992188 351 324 349 c 1
EndSplineSet
EndChar

StartChar: uniE086
Encoding: 57478 57478 85
Width: 1689
Flags: HW
LayerCount: 2
Fore
SplineSet
1238 800 m 1
 1348.66699219 796.666992188 1421.33300781 778.666992188 1456 746 c 1
 1510 701.333007812 1541 631.666992188 1549 537 c 1
 1551 431 1531.66699219 353 1491 303 c 1
 1455.66699219 281 1438 287.333007812 1438 322 c 2
 1438 332 l 1
 1444 366 l 1
 1442.66699219 473.333007812 1418 541 1370 569 c 1
 1344 579.666992188 1300 585.666992188 1238 587 c 1
 1238 800 l 1
1262 800 m 1
 1262 586 l 1
 918 586 l 2
 892.666992188 585.333007812 879.333007812 573.666992188 878 551 c 1
 866 514.333007812 906.666992188 420.666992188 1000 270 c 1
 1006 237 l 1
 992.666992188 93.6669921875 977.666992188 22.3330078125 961 23 c 2
 946 24 l 1
 890.666992188 100.666992188 842.333007812 209.333007812 801 350 c 0
 775 444.666992188 758 523.333007812 750 586 c 1
 750 800 l 1
 1262 800 l 1
150 800 m 1
 174.666992188 932 219.333007812 1037.66699219 284 1117 c 0
 343.333007812 1185.66699219 410.666992188 1223 486 1229 c 1
 664.666992188 1232.33300781 769.333007812 1089.33300781 800 800 c 1
 784.666992188 735.333007812 768.333007812 664 751 586 c 1
 704.333007812 867.333007812 618.666992188 1015 494 1029 c 1
 439.333007812 1030.33300781 387 1007.16699219 337 959.5 c 128
 287 911.833007812 253.333007812 858.666992188 236 800 c 1
 481 800 l 1
 559.666992188 790 606.333007812 728.333007812 621 615 c 1
 623.666992188 426.333007812 590 298.666992188 520 232 c 0
 492.666992188 204 428 182.666992188 326 168 c 1
 198 127 l 1
 193 127 l 1
 192 132 l 1
 197 189 l 1
 215.666992188 297 254 358.333007812 312 373 c 1
 457 391 l 2
 499.666992188 398.333007812 528 423 542 465 c 1
 554 511.666992188 557.333007812 552 552 586 c 1
 150 586 l 1
 150 800 l 1
EndSplineSet
EndChar

StartChar: uniE089
Encoding: 57481 57481 86
Width: 1065
Flags: HW
LayerCount: 2
Fore
SplineSet
747 800 m 1
 1120 800 l 1
 1120 586 l 1
 942 586 l 1
 922 448.666992188 902 336.666992188 882 250 c 1
 864 230 844 230 822 250 c 1
 795.333007812 336.666992188 770.333007812 448.666992188 747 586 c 1
 747 800 l 1
147 800 m 1
 171.666992188 932 216.333007812 1037.66699219 281 1117 c 0
 340.333007812 1185.66699219 407.666992188 1223 483 1229 c 1
 661.666992188 1232.33300781 766.333007812 1089.33300781 797 800 c 1
 781.666992188 735.333007812 765.333007812 664 748 586 c 1
 701.333007812 867.333007812 615.666992188 1015 491 1029 c 1
 436.333007812 1030.33300781 384 1007.16699219 334 959.5 c 128
 284 911.833007812 250.333007812 858.666992188 233 800 c 1
 478 800 l 1
 556.666992188 790 603.333007812 728.333007812 618 615 c 1
 620.666992188 426.333007812 587 298.666992188 517 232 c 0
 489.666992188 204 425 182.666992188 323 168 c 1
 195 127 l 1
 190 127 l 1
 189 132 l 1
 194 189 l 1
 212.666992188 297 251 358.333007812 309 373 c 1
 454 391 l 2
 496.666992188 398.333007812 525 423 539 465 c 1
 551 511.666992188 554.333007812 552 549 586 c 1
 147 586 l 1
 147 800 l 1
EndSplineSet
EndChar

StartChar: uniE08A
Encoding: 57482 57482 87
Width: 1019
Flags: HW
LayerCount: 2
Fore
SplineSet
254 800 m 1
 254 586 l 1
 -46 586 l 1
 -46 800 l 1
 254 800 l 1
701 800 m 1
 1074 800 l 1
 1074 586 l 1
 896 586 l 1
 876 448.666992188 856 336.666992188 836 250 c 1
 818 230 798 230 776 250 c 1
 749.333007812 336.666992188 724.333007812 448.666992188 701 586 c 1
 701 800 l 1
101 800 m 1
 125.666992188 932 170.333007812 1037.66699219 235 1117 c 0
 294.333007812 1185.66699219 361.666992188 1223 437 1229 c 1
 615.666992188 1232.33300781 720.333007812 1089.33300781 751 800 c 1
 735.666992188 735.333007812 719.333007812 664 702 586 c 1
 655.333007812 867.333007812 569.666992188 1015 445 1029 c 1
 390.333007812 1030.33300781 338 1007.16699219 288 959.5 c 128
 238 911.833007812 204.333007812 858.666992188 187 800 c 1
 432 800 l 1
 510.666992188 790 557.333007812 728.333007812 572 615 c 1
 574.666992188 426.333007812 541 298.666992188 471 232 c 0
 443.666992188 204 379 182.666992188 277 168 c 1
 149 127 l 1
 144 127 l 1
 143 132 l 1
 148 189 l 1
 166.666992188 297 205 358.333007812 263 373 c 1
 408 391 l 2
 450.666992188 398.333007812 479 423 493 465 c 1
 505 511.666992188 508.333007812 552 503 586 c 1
 101 586 l 1
 101 800 l 1
EndSplineSet
EndChar

StartChar: uniE08C
Encoding: 57484 57484 88
Width: 1218
Flags: HW
LayerCount: 2
Fore
SplineSet
1271 800 m 1
 1271 586 l 1
 927 586 l 2
 901.666992188 585.333007812 888.333007812 573.666992188 887 551 c 1
 875 514.333007812 915.666992188 420.666992188 1009 270 c 1
 1015 237 l 1
 1001.66699219 93.6669921875 986.666992188 22.3330078125 970 23 c 2
 955 24 l 1
 899.666992188 100.666992188 851.333007812 209.333007812 810 350 c 0
 784 444.666992188 767 523.333007812 759 586 c 1
 759 800 l 1
 1271 800 l 1
159 800 m 1
 183.666992188 932 228.333007812 1037.66699219 293 1117 c 0
 352.333007812 1185.66699219 419.666992188 1223 495 1229 c 1
 673.666992188 1232.33300781 778.333007812 1089.33300781 809 800 c 1
 793.666992188 735.333007812 777.333007812 664 760 586 c 1
 713.333007812 867.333007812 627.666992188 1015 503 1029 c 1
 448.333007812 1030.33300781 396 1007.16699219 346 959.5 c 128
 296 911.833007812 262.333007812 858.666992188 245 800 c 1
 490 800 l 1
 568.666992188 790 615.333007812 728.333007812 630 615 c 1
 632.666992188 426.333007812 599 298.666992188 529 232 c 0
 501.666992188 204 437 182.666992188 335 168 c 1
 207 127 l 1
 202 127 l 1
 201 132 l 1
 206 189 l 1
 224.666992188 297 263 358.333007812 321 373 c 1
 466 391 l 2
 508.666992188 398.333007812 537 423 551 465 c 1
 563 511.666992188 566.333007812 552 561 586 c 1
 159 586 l 1
 159 800 l 1
EndSplineSet
EndChar

StartChar: uniE08D
Encoding: 57485 57485 89
Width: 1161
Flags: HW
LayerCount: 2
Fore
SplineSet
253 800 m 1
 253 586 l 1
 -47 586 l 1
 -47 800 l 1
 253 800 l 1
1214 800 m 1
 1214 586 l 1
 870 586 l 2
 844.666992188 585.333007812 831.333007812 573.666992188 830 551 c 1
 818 514.333007812 858.666992188 420.666992188 952 270 c 1
 958 237 l 1
 944.666992188 93.6669921875 929.666992188 22.3330078125 913 23 c 2
 898 24 l 1
 842.666992188 100.666992188 794.333007812 209.333007812 753 350 c 0
 727 444.666992188 710 523.333007812 702 586 c 1
 702 800 l 1
 1214 800 l 1
102 800 m 1
 126.666992188 932 171.333007812 1037.66699219 236 1117 c 0
 295.333007812 1185.66699219 362.666992188 1223 438 1229 c 1
 616.666992188 1232.33300781 721.333007812 1089.33300781 752 800 c 1
 736.666992188 735.333007812 720.333007812 664 703 586 c 1
 656.333007812 867.333007812 570.666992188 1015 446 1029 c 1
 391.333007812 1030.33300781 339 1007.16699219 289 959.5 c 128
 239 911.833007812 205.333007812 858.666992188 188 800 c 1
 433 800 l 1
 511.666992188 790 558.333007812 728.333007812 573 615 c 1
 575.666992188 426.333007812 542 298.666992188 472 232 c 0
 444.666992188 204 380 182.666992188 278 168 c 1
 150 127 l 1
 145 127 l 1
 144 132 l 1
 149 189 l 1
 167.666992188 297 206 358.333007812 264 373 c 1
 409 391 l 2
 451.666992188 398.333007812 480 423 494 465 c 1
 506 511.666992188 509.333007812 552 504 586 c 1
 102 586 l 1
 102 800 l 1
EndSplineSet
EndChar

StartChar: uniE08E
Encoding: 57486 57486 90
Width: 1667
Flags: HW
LayerCount: 2
Fore
SplineSet
249 800 m 1
 249 586 l 1
 -51 586 l 1
 -51 800 l 1
 249 800 l 1
1187 800 m 1
 1297.66699219 796.666992188 1370.33300781 778.666992188 1405 746 c 1
 1459 701.333007812 1490 631.666992188 1498 537 c 1
 1500 431 1480.66699219 353 1440 303 c 1
 1404.66699219 281 1387 287.333007812 1387 322 c 2
 1387 332 l 1
 1393 366 l 1
 1391.66699219 473.333007812 1367 541 1319 569 c 1
 1293 579.666992188 1249 585.666992188 1187 587 c 1
 1187 800 l 1
1211 800 m 1
 1211 586 l 1
 867 586 l 2
 841.666992188 585.333007812 828.333007812 573.666992188 827 551 c 1
 815 514.333007812 855.666992188 420.666992188 949 270 c 1
 955 237 l 1
 941.666992188 93.6669921875 926.666992188 22.3330078125 910 23 c 2
 895 24 l 1
 839.666992188 100.666992188 791.333007812 209.333007812 750 350 c 0
 724 444.666992188 707 523.333007812 699 586 c 1
 699 800 l 1
 1211 800 l 1
99 800 m 1
 123.666992188 932 168.333007812 1037.66699219 233 1117 c 0
 292.333007812 1185.66699219 359.666992188 1223 435 1229 c 1
 613.666992188 1232.33300781 718.333007812 1089.33300781 749 800 c 1
 733.666992188 735.333007812 717.333007812 664 700 586 c 1
 653.333007812 867.333007812 567.666992188 1015 443 1029 c 1
 388.333007812 1030.33300781 336 1007.16699219 286 959.5 c 128
 236 911.833007812 202.333007812 858.666992188 185 800 c 1
 430 800 l 1
 508.666992188 790 555.333007812 728.333007812 570 615 c 1
 572.666992188 426.333007812 539 298.666992188 469 232 c 0
 441.666992188 204 377 182.666992188 275 168 c 1
 147 127 l 1
 142 127 l 1
 141 132 l 1
 146 189 l 1
 164.666992188 297 203 358.333007812 261 373 c 1
 406 391 l 2
 448.666992188 398.333007812 477 423 491 465 c 1
 503 511.666992188 506.333007812 552 501 586 c 1
 99 586 l 1
 99 800 l 1
EndSplineSet
EndChar

StartChar: uniE087
Encoding: 57479 57479 91
Width: 956
Flags: HW
LayerCount: 2
Fore
SplineSet
650 327 m 1
 708 327 742.333007812 365.333007812 753 442 c 0
 759.666992188 482 760 530 754 586 c 1
 565 586 l 1
 547 582.666992188 538 551.333007812 538 492 c 0
 542 388 579.333007812 333 650 327 c 1
834 586 m 2
 834.666992188 516.666992188 834 459.333007812 832 414 c 1
 812 250.666992188 751.666992188 171 651 175 c 1
 588.333007812 172.333007812 542.333007812 202 513 264 c 0
 481.666992188 336.666992188 469 444 475 586 c 0
 482.333007812 707.333007812 518.666992188 778.666992188 584 800 c 1
 834 800 l 1
 834 586 l 2
114 800 m 1
 125.333007812 860 148 924.666992188 182 994 c 0
 239.333007812 1105.33300781 303.333007812 1175.66699219 374 1205 c 1
 417.333007812 1228.33300781 469.666992188 1237 531 1231 c 1
 627 1211.66699219 702.666992188 1158 758 1070 c 1
 804 988 829.333007812 896.666992188 834 796 c 1
 810 588 l 1
 797 796 l 1
 754 796 l 1
 749.333007812 876 715.333007812 945 652 1003 c 1
 596 1042.33300781 533 1057 463 1047 c 0
 351.666992188 1032.33300781 266.666992188 950 208 800 c 1
 402 800 l 1
 482 787.333007812 522.333007812 722.666992188 523 606 c 1
 529 414 499.333007812 289.333007812 434 232 c 0
 400.666992188 201.333007812 341 179.666992188 255 167 c 1
 135 127 l 1
 131 128 l 1
 128 132 l 1
 134 188 l 1
 150.666992188 296.666992188 186.333007812 358.333007812 241 373 c 1
 376 391 l 2
 415.333007812 398.333007812 441.666992188 423 455 465 c 0
 466.333007812 507 469.333007812 547.333007812 464 586 c 1
 114 586 l 1
 114 800 l 1
EndSplineSet
EndChar

StartChar: uniE088
Encoding: 57480 57480 92
Width: 1307
Flags: HW
LayerCount: 2
Fore
SplineSet
859 800 m 1
 969.666992188 796.666992188 1042.33300781 778.666992188 1077 746 c 1
 1131 701.333007812 1162 631.666992188 1170 537 c 1
 1172 431 1152.66699219 353 1112 303 c 1
 1076.66699219 281 1059 287.333007812 1059 322 c 2
 1059 332 l 1
 1065 366 l 1
 1063.66699219 473.333007812 1039 541 991 569 c 1
 965 579.666992188 921 585.666992188 859 587 c 1
 859 800 l 1
680 327 m 1
 738 327 772.333007812 365.333007812 783 442 c 0
 789.666992188 482 790 530 784 586 c 1
 595 586 l 1
 577 582.666992188 568 551.333007812 568 492 c 0
 572 388 609.333007812 333 680 327 c 1
864 586 m 2
 864.666992188 516.666992188 864 459.333007812 862 414 c 1
 842 250.666992188 781.666992188 171 681 175 c 1
 618.333007812 172.333007812 572.333007812 202 543 264 c 0
 511.666992188 336.666992188 499 444 505 586 c 0
 512.333007812 707.333007812 548.666992188 778.666992188 614 800 c 1
 864 800 l 1
 864 586 l 2
144 800 m 1
 155.333007812 860 178 924.666992188 212 994 c 0
 269.333007812 1105.33300781 333.333007812 1175.66699219 404 1205 c 1
 447.333007812 1228.33300781 499.666992188 1237 561 1231 c 1
 657 1211.66699219 732.666992188 1158 788 1070 c 1
 834 988 859.333007812 896.666992188 864 796 c 1
 840 588 l 1
 827 796 l 1
 784 796 l 1
 779.333007812 876 745.333007812 945 682 1003 c 1
 626 1042.33300781 563 1057 493 1047 c 0
 381.666992188 1032.33300781 296.666992188 950 238 800 c 1
 432 800 l 1
 512 787.333007812 552.333007812 722.666992188 553 606 c 1
 559 414 529.333007812 289.333007812 464 232 c 0
 430.666992188 201.333007812 371 179.666992188 285 167 c 1
 165 127 l 1
 161 128 l 1
 158 132 l 1
 164 188 l 1
 180.666992188 296.666992188 216.333007812 358.333007812 271 373 c 1
 406 391 l 2
 445.333007812 398.333007812 471.666992188 423 485 465 c 0
 496.333007812 507 499.333007812 547.333007812 494 586 c 1
 144 586 l 1
 144 800 l 1
EndSplineSet
EndChar

StartChar: uniE08F
Encoding: 57487 57487 93
Width: 935
Flags: HW
LayerCount: 2
Fore
SplineSet
980 800 m 1
 980 586 l 1
 680 586 l 1
 680 800 l 1
 980 800 l 1
650 327 m 1
 708 327 742.333007812 365.333007812 753 442 c 0
 759.666992188 482 760 530 754 586 c 1
 565 586 l 1
 547 582.666992188 538 551.333007812 538 492 c 0
 542 388 579.333007812 333 650 327 c 1
834 586 m 2
 834.666992188 516.666992188 834 459.333007812 832 414 c 1
 812 250.666992188 751.666992188 171 651 175 c 1
 588.333007812 172.333007812 542.333007812 202 513 264 c 0
 481.666992188 336.666992188 469 444 475 586 c 0
 482.333007812 707.333007812 518.666992188 778.666992188 584 800 c 1
 834 800 l 1
 834 586 l 2
114 800 m 1
 125.333007812 860 148 924.666992188 182 994 c 0
 239.333007812 1105.33300781 303.333007812 1175.66699219 374 1205 c 1
 417.333007812 1228.33300781 469.666992188 1237 531 1231 c 1
 627 1211.66699219 702.666992188 1158 758 1070 c 1
 804 988 829.333007812 896.666992188 834 796 c 1
 810 588 l 1
 797 796 l 1
 754 796 l 1
 749.333007812 876 715.333007812 945 652 1003 c 1
 596 1042.33300781 533 1057 463 1047 c 0
 351.666992188 1032.33300781 266.666992188 950 208 800 c 1
 402 800 l 1
 482 787.333007812 522.333007812 722.666992188 523 606 c 1
 529 414 499.333007812 289.333007812 434 232 c 0
 400.666992188 201.333007812 341 179.666992188 255 167 c 1
 135 127 l 1
 131 128 l 1
 128 132 l 1
 134 188 l 1
 150.666992188 296.666992188 186.333007812 358.333007812 241 373 c 1
 376 391 l 2
 415.333007812 398.333007812 441.666992188 423 455 465 c 0
 466.333007812 507 469.333007812 547.333007812 464 586 c 1
 114 586 l 1
 114 800 l 1
EndSplineSet
EndChar

StartChar: uniE090
Encoding: 57488 57488 94
Width: 938
Flags: HW
LayerCount: 2
Fore
SplineSet
980 800 m 1
 980 586 l 1
 680 586 l 1
 680 800 l 1
 980 800 l 1
260 800 m 1
 260 586 l 1
 -40 586 l 1
 -40 800 l 1
 260 800 l 1
650 327 m 1
 708 327 742.333007812 365.333007812 753 442 c 0
 759.666992188 482 760 530 754 586 c 1
 565 586 l 1
 547 582.666992188 538 551.333007812 538 492 c 0
 542 388 579.333007812 333 650 327 c 1
834 586 m 2
 834.666992188 516.666992188 834 459.333007812 832 414 c 1
 812 250.666992188 751.666992188 171 651 175 c 1
 588.333007812 172.333007812 542.333007812 202 513 264 c 0
 481.666992188 336.666992188 469 444 475 586 c 0
 482.333007812 707.333007812 518.666992188 778.666992188 584 800 c 1
 834 800 l 1
 834 586 l 2
114 800 m 1
 125.333007812 860 148 924.666992188 182 994 c 0
 239.333007812 1105.33300781 303.333007812 1175.66699219 374 1205 c 1
 417.333007812 1228.33300781 469.666992188 1237 531 1231 c 1
 627 1211.66699219 702.666992188 1158 758 1070 c 1
 804 988 829.333007812 896.666992188 834 796 c 1
 810 588 l 1
 797 796 l 1
 754 796 l 1
 749.333007812 876 715.333007812 945 652 1003 c 1
 596 1042.33300781 533 1057 463 1047 c 0
 351.666992188 1032.33300781 266.666992188 950 208 800 c 1
 402 800 l 1
 482 787.333007812 522.333007812 722.666992188 523 606 c 1
 529 414 499.333007812 289.333007812 434 232 c 0
 400.666992188 201.333007812 341 179.666992188 255 167 c 1
 135 127 l 1
 131 128 l 1
 128 132 l 1
 134 188 l 1
 150.666992188 296.666992188 186.333007812 358.333007812 241 373 c 1
 376 391 l 2
 415.333007812 398.333007812 441.666992188 423 455 465 c 0
 466.333007812 507 469.333007812 547.333007812 464 586 c 1
 114 586 l 1
 114 800 l 1
EndSplineSet
EndChar

StartChar: uniE091
Encoding: 57489 57489 95
Width: 939
Flags: HW
LayerCount: 2
Fore
SplineSet
253 800 m 1
 253 586 l 1
 -47 586 l 1
 -47 800 l 1
 253 800 l 1
633 327 m 1
 691 327 725.333007812 365.333007812 736 442 c 0
 742.666992188 482 743 530 737 586 c 1
 548 586 l 1
 530 582.666992188 521 551.333007812 521 492 c 0
 525 388 562.333007812 333 633 327 c 1
817 586 m 2
 817.666992188 516.666992188 817 459.333007812 815 414 c 1
 795 250.666992188 734.666992188 171 634 175 c 1
 571.333007812 172.333007812 525.333007812 202 496 264 c 0
 464.666992188 336.666992188 452 444 458 586 c 0
 465.333007812 707.333007812 501.666992188 778.666992188 567 800 c 1
 817 800 l 1
 817 586 l 2
97 800 m 1
 108.333007812 860 131 924.666992188 165 994 c 0
 222.333007812 1105.33300781 286.333007812 1175.66699219 357 1205 c 1
 400.333007812 1228.33300781 452.666992188 1237 514 1231 c 1
 610 1211.66699219 685.666992188 1158 741 1070 c 1
 787 988 812.333007812 896.666992188 817 796 c 1
 793 588 l 1
 780 796 l 1
 737 796 l 1
 732.333007812 876 698.333007812 945 635 1003 c 1
 579 1042.33300781 516 1057 446 1047 c 0
 334.666992188 1032.33300781 249.666992188 950 191 800 c 1
 385 800 l 1
 465 787.333007812 505.333007812 722.666992188 506 606 c 1
 512 414 482.333007812 289.333007812 417 232 c 0
 383.666992188 201.333007812 324 179.666992188 238 167 c 1
 118 127 l 1
 114 128 l 1
 111 132 l 1
 117 188 l 1
 133.666992188 296.666992188 169.333007812 358.333007812 224 373 c 1
 359 391 l 2
 398.333007812 398.333007812 424.666992188 423 438 465 c 0
 449.333007812 507 452.333007812 547.333007812 447 586 c 1
 97 586 l 1
 97 800 l 1
EndSplineSet
EndChar

StartChar: uniE092
Encoding: 57490 57490 96
Width: 1557
Flags: HW
LayerCount: 2
Fore
SplineSet
1105 800 m 1
 1215.66699219 796.666992188 1288.33300781 778.666992188 1323 746 c 1
 1377 701.333007812 1408 631.666992188 1416 537 c 1
 1418 431 1398.66699219 353 1358 303 c 1
 1322.66699219 281 1305 287.333007812 1305 322 c 2
 1305 332 l 1
 1311 366 l 1
 1309.66699219 473.333007812 1285 541 1237 569 c 1
 1211 579.666992188 1167 585.666992188 1105 587 c 1
 1105 800 l 1
1129 800 m 1
 1129 586 l 1
 785 586 l 2
 759.666992188 585.333007812 746.333007812 573.666992188 745 551 c 1
 733 514.333007812 773.666992188 420.666992188 867 270 c 1
 873 237 l 1
 859.666992188 93.6669921875 844.666992188 22.3330078125 828 23 c 2
 813 24 l 1
 757.666992188 100.666992188 709.333007812 209.333007812 668 350 c 0
 642 444.666992188 625 523.333007812 617 586 c 1
 617 800 l 1
 1129 800 l 1
586 818 m 1
 554 924 498.333007812 978.333007812 419 981 c 1
 325.666992188 974.333007812 261.333007812 906.666992188 226 778 c 1
 214.666992188 725.333007812 212.333007812 672.666992188 219 620 c 0
 235.666992188 512.666992188 293.333007812 407.333007812 392 304 c 1
 402 292 l 1
 396 280 382.666992188 252.666992188 362 210 c 0
 346.666992188 176.666992188 335 149.666992188 327 129 c 1
 310.333007812 135 282.333007812 172.333007812 243 241 c 0
 193 333.666992188 158 448.666992188 138 586 c 1
 138 800 l 1
 151.333007812 865.333007812 173 930.666992188 203 996 c 1
 269 1121.33300781 345.333007812 1184.33300781 432 1185 c 1
 561.333007812 1174.33300781 640.333007812 1055.33300781 669 828 c 0
 671 808 671 791.666992188 669 779 c 2
 618 576 l 1
 608 655.333007812 601.666992188 707.833007812 599 733.5 c 128
 596.333007812 759.166992188 592 787.333007812 586 818 c 1
EndSplineSet
EndChar

StartChar: uniE094
Encoding: 57492 57492 97
Width: 924
Flags: HW
LayerCount: 2
Fore
SplineSet
598 800 m 1
 971 800 l 1
 971 586 l 1
 793 586 l 1
 773 448.666992188 753 336.666992188 733 250 c 1
 715 230 695 230 673 250 c 1
 646.333007812 336.666992188 621.333007812 448.666992188 598 586 c 1
 598 800 l 1
568 818 m 1
 536 924 480.333007812 978.333007812 401 981 c 1
 307.666992188 974.333007812 243.333007812 906.666992188 208 778 c 1
 196.666992188 725.333007812 194.333007812 672.666992188 201 620 c 0
 217.666992188 512.666992188 275.333007812 407.333007812 374 304 c 1
 384 292 l 1
 378 280 364.666992188 252.666992188 344 210 c 0
 328.666992188 176.666992188 317 149.666992188 309 129 c 1
 292.333007812 135 264.333007812 172.333007812 225 241 c 0
 175 333.666992188 140 448.666992188 120 586 c 1
 120 800 l 1
 133.333007812 865.333007812 155 930.666992188 185 996 c 1
 251 1121.33300781 327.333007812 1184.33300781 414 1185 c 1
 543.333007812 1174.33300781 622.333007812 1055.33300781 651 828 c 0
 653 808 653 791.666992188 651 779 c 2
 600 576 l 1
 590 655.333007812 583.666992188 707.833007812 581 733.5 c 128
 578.333007812 759.166992188 574 787.333007812 568 818 c 1
EndSplineSet
EndChar

StartChar: uniE095
Encoding: 57493 57493 98
Width: 897
Flags: HW
LayerCount: 2
Fore
SplineSet
133 800 m 5
 133 586 l 5
 -57 586 l 1
 -57 800 l 1
 133 800 l 5
571 800 m 1
 944 800 l 1
 944 586 l 1
 766 586 l 1
 746 448.666992188 726 336.666992188 706 250 c 1
 688 230 668 230 646 250 c 1
 619.333007812 336.666992188 594.333007812 448.666992188 571 586 c 1
 571 800 l 1
541 818 m 1
 509 924 453.333007812 978.333007812 374 981 c 1
 280.666992188 974.333007812 216.333007812 906.666992188 181 778 c 1
 169.666992188 725.333007812 167.333007812 672.666992188 174 620 c 0
 190.666992188 512.666992188 248.333007812 407.333007812 347 304 c 1
 357 292 l 1
 351 280 337.666992188 252.666992188 317 210 c 0
 301.666992188 176.666992188 290 149.666992188 282 129 c 1
 265.333007812 135 237.333007812 172.333007812 198 241 c 0
 148 333.666992188 113 448.666992188 93 586 c 1
 93 800 l 1
 106.333007812 865.333007812 128 930.666992188 158 996 c 1
 224 1121.33300781 300.333007812 1184.33300781 387 1185 c 1
 516.333007812 1174.33300781 595.333007812 1055.33300781 624 828 c 0
 626 808 626 791.666992188 624 779 c 2
 573 576 l 1
 563 655.333007812 556.666992188 707.833007812 554 733.5 c 128
 551.333007812 759.166992188 547 787.333007812 541 818 c 1
EndSplineSet
EndChar

StartChar: uniE097
Encoding: 57495 57495 99
Width: 1065
Flags: HW
LayerCount: 2
Fore
SplineSet
1129 800 m 1
 1129 586 l 1
 785 586 l 2
 759.666992188 585.333007812 746.333007812 573.666992188 745 551 c 1
 733 514.333007812 773.666992188 420.666992188 867 270 c 1
 873 237 l 1
 859.666992188 93.6669921875 844.666992188 22.3330078125 828 23 c 2
 813 24 l 1
 757.666992188 100.666992188 709.333007812 209.333007812 668 350 c 0
 642 444.666992188 625 523.333007812 617 586 c 1
 617 800 l 1
 1129 800 l 1
586 818 m 1
 554 924 498.333007812 978.333007812 419 981 c 1
 325.666992188 974.333007812 261.333007812 906.666992188 226 778 c 1
 214.666992188 725.333007812 212.333007812 672.666992188 219 620 c 0
 235.666992188 512.666992188 293.333007812 407.333007812 392 304 c 1
 402 292 l 1
 396 280 382.666992188 252.666992188 362 210 c 0
 346.666992188 176.666992188 335 149.666992188 327 129 c 1
 310.333007812 135 282.333007812 172.333007812 243 241 c 0
 193 333.666992188 158 448.666992188 138 586 c 1
 138 800 l 1
 151.333007812 865.333007812 173 930.666992188 203 996 c 1
 269 1121.33300781 345.333007812 1184.33300781 432 1185 c 1
 561.333007812 1174.33300781 640.333007812 1055.33300781 669 828 c 0
 671 808 671 791.666992188 669 779 c 2
 618 576 l 1
 608 655.333007812 601.666992188 707.833007812 599 733.5 c 128
 596.333007812 759.166992188 592 787.333007812 586 818 c 1
EndSplineSet
EndChar

StartChar: uniE098
Encoding: 57496 57496 100
Width: 1002
Flags: HW
LayerCount: 2
Fore
SplineSet
140 800 m 1
 140 586 l 1
 -60 586 l 1
 -60 800 l 1
 140 800 l 1
1081 800 m 1
 1081 586 l 1
 737 586 l 2
 711.666992188 585.333007812 698.333007812 573.666992188 697 551 c 1
 685 514.333007812 725.666992188 420.666992188 819 270 c 1
 825 237 l 1
 811.666992188 93.6669921875 796.666992188 22.3330078125 780 23 c 2
 765 24 l 1
 709.666992188 100.666992188 661.333007812 209.333007812 620 350 c 0
 594 444.666992188 577 523.333007812 569 586 c 1
 569 800 l 1
 1081 800 l 1
538 818 m 1
 506 924 450.333007812 978.333007812 371 981 c 1
 277.666992188 974.333007812 213.333007812 906.666992188 178 778 c 1
 166.666992188 725.333007812 164.333007812 672.666992188 171 620 c 0
 187.666992188 512.666992188 245.333007812 407.333007812 344 304 c 1
 354 292 l 1
 348 280 334.666992188 252.666992188 314 210 c 0
 298.666992188 176.666992188 287 149.666992188 279 129 c 1
 262.333007812 135 234.333007812 172.333007812 195 241 c 0
 145 333.666992188 110 448.666992188 90 586 c 1
 90 800 l 1
 103.333007812 865.333007812 125 930.666992188 155 996 c 1
 221 1121.33300781 297.333007812 1184.33300781 384 1185 c 1
 513.333007812 1174.33300781 592.333007812 1055.33300781 621 828 c 0
 623 808 623 791.666992188 621 779 c 2
 570 576 l 1
 560 655.333007812 553.666992188 707.833007812 551 733.5 c 128
 548.333007812 759.166992188 544 787.333007812 538 818 c 1
EndSplineSet
EndChar

StartChar: uniE099
Encoding: 57497 57497 101
Width: 1515
Flags: HW
LayerCount: 2
Fore
SplineSet
146 800 m 5
 146 586 l 5
 -52 586 l 1
 -52 800 l 1
 146 800 l 5
1063 800 m 1
 1173.66699219 796.666992188 1246.33300781 778.666992188 1281 746 c 1
 1335 701.333007812 1366 631.666992188 1374 537 c 1
 1376 431 1356.66699219 353 1316 303 c 1
 1280.66699219 281 1263 287.333007812 1263 322 c 2
 1263 332 l 1
 1269 366 l 1
 1267.66699219 473.333007812 1243 541 1195 569 c 1
 1169 579.666992188 1125 585.666992188 1063 587 c 1
 1063 800 l 1
1087 800 m 1
 1087 586 l 1
 743 586 l 2
 717.666992188 585.333007812 704.333007812 573.666992188 703 551 c 1
 691 514.333007812 731.666992188 420.666992188 825 270 c 1
 831 237 l 1
 817.666992188 93.6669921875 802.666992188 22.3330078125 786 23 c 2
 771 24 l 1
 715.666992188 100.666992188 667.333007812 209.333007812 626 350 c 0
 600 444.666992188 583 523.333007812 575 586 c 1
 575 800 l 1
 1087 800 l 1
544 818 m 1
 512 924 456.333007812 978.333007812 377 981 c 1
 283.666992188 974.333007812 219.333007812 906.666992188 184 778 c 1
 172.666992188 725.333007812 170.333007812 672.666992188 177 620 c 0
 193.666992188 512.666992188 251.333007812 407.333007812 350 304 c 1
 360 292 l 1
 354 280 340.666992188 252.666992188 320 210 c 0
 304.666992188 176.666992188 293 149.666992188 285 129 c 1
 268.333007812 135 240.333007812 172.333007812 201 241 c 0
 151 333.666992188 116 448.666992188 96 586 c 1
 96 800 l 1
 109.333007812 865.333007812 131 930.666992188 161 996 c 1
 227 1121.33300781 303.333007812 1184.33300781 390 1185 c 1
 519.333007812 1174.33300781 598.333007812 1055.33300781 627 828 c 0
 629 808 629 791.666992188 627 779 c 2
 576 576 l 1
 566 655.333007812 559.666992188 707.833007812 557 733.5 c 128
 554.333007812 759.166992188 550 787.333007812 544 818 c 1
EndSplineSet
EndChar

StartChar: uniE093
Encoding: 57491 57491 102
Width: 1297
Flags: HW
LayerCount: 2
Fore
SplineSet
843 800 m 1
 953.666992188 796.666992188 1026.33300781 778.666992188 1061 746 c 1
 1115 701.333007812 1146 631.666992188 1154 537 c 1
 1156 431 1136.66699219 353 1096 303 c 1
 1060.66699219 281 1043 287.333007812 1043 322 c 2
 1043 332 l 1
 1049 366 l 1
 1047.66699219 473.333007812 1023 541 975 569 c 1
 949 579.666992188 905 585.666992188 843 587 c 1
 843 800 l 1
664 327 m 1
 722 327 756.333007812 365.333007812 767 442 c 0
 773.666992188 482 774 530 768 586 c 1
 579 586 l 1
 561 582.666992188 552 551.333007812 552 492 c 0
 556 388 593.333007812 333 664 327 c 1
848 586 m 2
 848.666992188 516.666992188 848 459.333007812 846 414 c 1
 826 250.666992188 765.666992188 171 665 175 c 1
 602.333007812 172.333007812 556.333007812 202 527 264 c 0
 495.666992188 336.666992188 483 444 489 586 c 0
 496.333007812 707.333007812 532.666992188 778.666992188 598 800 c 1
 848 800 l 1
 848 586 l 2
147 800 m 1
 166 800 l 1
 211.333007812 954.666992188 286.666992188 1075.33300781 392 1162 c 1
 448 1203.33300781 503 1222.66699219 557 1220 c 0
 654.333007812 1215.33300781 734.333007812 1160.66699219 797 1056 c 1
 834.333007812 970 851.333007812 881.333007812 848 790 c 1
 830.666992188 715.333007812 811.666992188 643.333007812 791 574 c 1
 818 790 l 1
 768 790 l 1
 756.666992188 884 724.666992188 951.333007812 672 992 c 0
 634.666992188 1022.66699219 593.666992188 1036 549 1032 c 1
 456.333007812 1032 375.333007812 984 306 888 c 1
 262.666992188 816.666992188 239.333007812 747 236 679 c 0
 234.666992188 646.333007812 236.666992188 612 242 576 c 0
 260.666992188 466.666992188 311.333007812 376.666992188 394 306 c 1
 394 294 l 1
 356 231.333007812 331 177 319 131 c 1
 307 130 l 1
 283.666992188 159.333007812 259.666992188 203.666992188 235 263 c 0
 194.333007812 360.333007812 165 468 147 586 c 1
 147 800 l 1
EndSplineSet
EndChar

StartChar: uniE09A
Encoding: 57498 57498 103
Width: 1405
Flags: HW
LayerCount: 2
Fore
SplineSet
1468 800 m 1
 1468 586 l 1
 1089 586 l 1
 1137.66699219 514.666992188 1210.33300781 410 1307 272 c 1
 1298 251 l 2
 1280 209.666992188 1264 137.333007812 1250 34 c 1
 1242 23.3330078125 1231.66699219 21 1219 27 c 1
 1195.66699219 59 1160.33300781 141.666992188 1113 275 c 1
 1027 474.333007812 968 586 968 586 c 1
 789 586 l 1
 789 800 l 1
 1468 800 l 1
661 327 m 1
 719 327 753.333007812 365.333007812 764 442 c 0
 770.666992188 482 771 530 765 586 c 1
 576 586 l 1
 558 582.666992188 549 551.333007812 549 492 c 0
 553 388 590.333007812 333 661 327 c 1
845 586 m 2
 845.666992188 516.666992188 845 459.333007812 843 414 c 1
 823 250.666992188 762.666992188 171 662 175 c 1
 599.333007812 172.333007812 553.333007812 202 524 264 c 0
 492.666992188 336.666992188 480 444 486 586 c 0
 493.333007812 707.333007812 529.666992188 778.666992188 595 800 c 1
 845 800 l 1
 845 586 l 2
144 800 m 1
 163 800 l 1
 208.333007812 954.666992188 283.666992188 1075.33300781 389 1162 c 1
 445 1203.33300781 500 1222.66699219 554 1220 c 0
 651.333007812 1215.33300781 731.333007812 1160.66699219 794 1056 c 1
 831.333007812 970 848.333007812 881.333007812 845 790 c 1
 827.666992188 715.333007812 808.666992188 643.333007812 788 574 c 1
 815 790 l 1
 765 790 l 1
 753.666992188 884 721.666992188 951.333007812 669 992 c 0
 631.666992188 1022.66699219 590.666992188 1036 546 1032 c 1
 453.333007812 1032 372.333007812 984 303 888 c 1
 259.666992188 816.666992188 236.333007812 747 233 679 c 0
 231.666992188 646.333007812 233.666992188 612 239 576 c 0
 257.666992188 466.666992188 308.333007812 376.666992188 391 306 c 1
 391 294 l 1
 353 231.333007812 328 177 316 131 c 1
 304 130 l 1
 280.666992188 159.333007812 256.666992188 203.666992188 232 263 c 0
 191.333007812 360.333007812 162 468 144 586 c 1
 144 800 l 1
EndSplineSet
EndChar

StartChar: uniE09B
Encoding: 57499 57499 104
Width: 895
Flags: HW
LayerCount: 2
Fore
SplineSet
940 800 m 1
 940 586 l 1
 640 586 l 1
 640 800 l 1
 940 800 l 1
156 800 m 1
 156 586 l 1
 -54 586 l 1
 -54 800 l 1
 156 800 l 1
613 327 m 1
 671 327 705.333007812 365.333007812 716 442 c 0
 722.666992188 482 723 530 717 586 c 1
 528 586 l 1
 510 582.666992188 501 551.333007812 501 492 c 0
 505 388 542.333007812 333 613 327 c 1
797 586 m 2
 797.666992188 516.666992188 797 459.333007812 795 414 c 1
 775 250.666992188 714.666992188 171 614 175 c 1
 551.333007812 172.333007812 505.333007812 202 476 264 c 0
 444.666992188 336.666992188 432 444 438 586 c 0
 445.333007812 707.333007812 481.666992188 778.666992188 547 800 c 1
 797 800 l 1
 797 586 l 2
96 800 m 1
 115 800 l 1
 160.333007812 954.666992188 235.666992188 1075.33300781 341 1162 c 1
 397 1203.33300781 452 1222.66699219 506 1220 c 0
 603.333007812 1215.33300781 683.333007812 1160.66699219 746 1056 c 1
 783.333007812 970 800.333007812 881.333007812 797 790 c 1
 779.666992188 715.333007812 760.666992188 643.333007812 740 574 c 1
 767 790 l 1
 717 790 l 1
 705.666992188 884 673.666992188 951.333007812 621 992 c 0
 583.666992188 1022.66699219 542.666992188 1036 498 1032 c 1
 405.333007812 1032 324.333007812 984 255 888 c 1
 211.666992188 816.666992188 188.333007812 747 185 679 c 0
 183.666992188 646.333007812 185.666992188 612 191 576 c 0
 209.666992188 466.666992188 260.333007812 376.666992188 343 306 c 1
 343 294 l 1
 305 231.333007812 280 177 268 131 c 1
 256 130 l 1
 232.666992188 159.333007812 208.666992188 203.666992188 184 263 c 0
 143.333007812 360.333007812 114 468 96 586 c 1
 96 800 l 1
EndSplineSet
EndChar

StartChar: uniE09C
Encoding: 57500 57500 105
Width: 907
Flags: HW
LayerCount: 2
Fore
SplineSet
153 800 m 1
 153 586 l 1
 -57 586 l 1
 -57 800 l 1
 153 800 l 1
610 327 m 1
 668 327 702.333007812 365.333007812 713 442 c 0
 719.666992188 482 720 530 714 586 c 1
 525 586 l 1
 507 582.666992188 498 551.333007812 498 492 c 0
 502 388 539.333007812 333 610 327 c 1
794 586 m 2
 794.666992188 516.666992188 794 459.333007812 792 414 c 1
 772 250.666992188 711.666992188 171 611 175 c 1
 548.333007812 172.333007812 502.333007812 202 473 264 c 0
 441.666992188 336.666992188 429 444 435 586 c 0
 442.333007812 707.333007812 478.666992188 778.666992188 544 800 c 1
 794 800 l 1
 794 586 l 2
93 800 m 1
 112 800 l 1
 157.333007812 954.666992188 232.666992188 1075.33300781 338 1162 c 1
 394 1203.33300781 449 1222.66699219 503 1220 c 0
 600.333007812 1215.33300781 680.333007812 1160.66699219 743 1056 c 1
 780.333007812 970 797.333007812 881.333007812 794 790 c 1
 776.666992188 715.333007812 757.666992188 643.333007812 737 574 c 1
 764 790 l 1
 714 790 l 1
 702.666992188 884 670.666992188 951.333007812 618 992 c 0
 580.666992188 1022.66699219 539.666992188 1036 495 1032 c 1
 402.333007812 1032 321.333007812 984 252 888 c 1
 208.666992188 816.666992188 185.333007812 747 182 679 c 0
 180.666992188 646.333007812 182.666992188 612 188 576 c 0
 206.666992188 466.666992188 257.333007812 376.666992188 340 306 c 1
 340 294 l 1
 302 231.333007812 277 177 265 131 c 1
 253 130 l 1
 229.666992188 159.333007812 205.666992188 203.666992188 181 263 c 0
 140.333007812 360.333007812 111 468 93 586 c 1
 93 800 l 1
EndSplineSet
EndChar

StartChar: uniE09D
Encoding: 57501 57501 106
Width: 1580
Flags: HW
LayerCount: 2
Fore
SplineSet
250 800 m 1
 250 586 l 1
 -50 586 l 1
 -50 800 l 1
 250 800 l 1
1250 800 m 1
 1385.33300781 774 1449.33300781 601 1442 281 c 1
 1445.33300781 171.666992188 1440.5 71.1669921875 1427.5 -20.5 c 128
 1414.5 -112.166992188 1376.33300781 -181.333007812 1313 -228 c 0
 1264.33300781 -262.666992188 1222.33300781 -306.666992188 1187 -360 c 1
 1161.66699219 -410.666992188 1139.33300781 -436.333007812 1120 -437 c 0
 1100.66699219 -440.333007812 1089.66699219 -432.666992188 1087 -414 c 1
 1156 -115 l 1
 1185.33300781 -111 1213.33300781 -103.666992188 1240 -93 c 1
 1301.33300781 -53.6669921875 1335 -1.6669921875 1341 63 c 1
 1346 163 l 1
 1346 424 l 1
 1333.33300781 476.666992188 1314 514.666992188 1288 538 c 1
 1258 573.333007812 1207 589.333007812 1135 586 c 1
 880 586 l 1
 880 800 l 1
 1250 800 l 1
100 800 m 1
 467 800 l 1
 467 695 l 1
 481 588.333007812 496.333007812 529.666992188 513 519 c 128
 529.666992188 508.333007812 538.333007812 526 539 572 c 0
 544.333007812 673.333007812 563.333007812 781.666992188 596 897 c 0
 614.666992188 964.333007812 650.666992188 1062.33300781 704 1191 c 1
 658 1349 l 1
 659.333007812 1361.66699219 666.666992188 1372.33300781 680 1381 c 0
 696.666992188 1392.33300781 711.666992188 1391.66699219 725 1379 c 1
 779 1275.66699219 835.333007812 1167 894 1053 c 1
 891 1036 l 1
 798.333007812 911.333007812 729.333007812 768 684 606 c 0
 668.666992188 542 659.666992188 481.666992188 657 425 c 0
 657 368.333007812 657.333007812 320.333007812 658 281 c 1
 650 255.666992188 635 242.666992188 613 242 c 1
 588.333007812 249.333007812 551.666992188 289.666992188 503 363 c 0
 451 441.666992188 414.333007812 516 393 586 c 1
 295 586 l 1
 273.666992188 450 256 340.333007812 242 257 c 1
 222.666992188 237 202 236 180 254 c 1
 150.666992188 369.333007812 124 480 100 586 c 1
 100 800 l 1
724 -16 m 0
 724 -26.6669921875 717.333007812 -38.1669921875 704 -50.5 c 128
 690.666992188 -62.8330078125 678.5 -72.6669921875 667.5 -80 c 128
 656.5 -87.3330078125 646 -96.6669921875 636 -108 c 0
 619.333007812 -125.333007812 604.833007812 -142.333007812 592.5 -159 c 128
 580.166992188 -175.666992188 568.666992188 -184.666992188 558 -186 c 0
 542 -186.666992188 529.166992188 -183.166992188 519.5 -175.5 c 128
 509.833007812 -167.833007812 505 -155.666992188 505 -139 c 0
 503 -113.666992188 509.666992188 -80 525 -38 c 0
 535 -11.3330078125 546.833007812 10.1669921875 560.5 26.5 c 128
 574.166992188 42.8330078125 586.333007812 54.3330078125 597 61 c 128
 607.666992188 67.6669921875 620 71 634 71 c 256
 648 71 663.666992188 64 681 50 c 0
 709.666992188 25.3330078125 724 3.3330078125 724 -16 c 0
895 -243 m 0
 895 -253.666992188 888.333007812 -265.166992188 875 -277.5 c 128
 861.666992188 -289.833007812 849.5 -299.666992188 838.5 -307 c 128
 827.5 -314.333007812 817 -323.666992188 807 -335 c 0
 790.333007812 -352.333007812 775.833007812 -369.333007812 763.5 -386 c 128
 751.166992188 -402.666992188 739.666992188 -411.666992188 729 -413 c 0
 713 -413.666992188 700.166992188 -410.166992188 690.5 -402.5 c 128
 680.833007812 -394.833007812 676 -382.666992188 676 -366 c 0
 674 -340.666992188 680.666992188 -307 696 -265 c 0
 706 -237.666992188 717.833007812 -216 731.5 -200 c 128
 745.166992188 -184 757.333007812 -172.5 768 -165.5 c 128
 778.666992188 -158.5 791 -155 805 -155 c 256
 819 -155 834.666992188 -162.333007812 852 -177 c 0
 880.666992188 -201.666992188 895 -223.666992188 895 -243 c 0
EndSplineSet
EndChar

StartChar: uniE09F
Encoding: 57503 57503 107
Width: 1661
Flags: HW
LayerCount: 2
Fore
SplineSet
1201 800 m 1
 1311.66699219 796.666992188 1384.33300781 778.666992188 1419 746 c 1
 1473 701.333007812 1504 631.666992188 1512 537 c 1
 1514 431 1494.66699219 353 1454 303 c 1
 1418.66699219 281 1401 287.333007812 1401 322 c 2
 1401 332 l 1
 1407 366 l 1
 1405.66699219 473.333007812 1381 541 1333 569 c 1
 1307 579.666992188 1263 585.666992188 1201 587 c 1
 1201 800 l 1
1225 800 m 1
 1225 586 l 1
 881 586 l 2
 855.666992188 585.333007812 842.333007812 573.666992188 841 551 c 1
 829 514.333007812 869.666992188 420.666992188 963 270 c 1
 969 237 l 1
 955.666992188 93.6669921875 940.666992188 22.3330078125 924 23 c 2
 909 24 l 1
 853.666992188 100.666992188 805.333007812 209.333007812 764 350 c 0
 738 444.666992188 721 523.333007812 713 586 c 1
 713 800 l 1
 1225 800 l 1
356 163 m 1
 350 151.666992188 347 133.333007812 347 108 c 2
 347 84 l 2
 347 58 358.333007812 14.6669921875 381 -46 c 1
 381 -70.6669921875 359.666992188 -85 317 -89 c 1
 274.333007812 -89 239 -41.3330078125 211 54 c 1
 211 98.6669921875 230.666992188 146.666992188 270 198 c 1
 375 161 l 1
 368.333007812 161 362 161.666992188 356 163 c 1
368 349 m 1
 457.333007812 353 497.333007812 432 488 586 c 1
 228 586 l 1
 231.333007812 430 278 351 368 349 c 1
143 800 m 1
 156.333007812 1079.33300781 257.666992188 1223 447 1231 c 0
 545.666992188 1233.66699219 627.666992188 1178.66699219 693 1066 c 1
 736.333007812 974 763 883 773 793 c 1
 745 690 l 1
 717 586 l 1
 675.666992188 886.666992188 585 1043.33300781 445 1056 c 1
 323.666992188 1040 252.666992188 954.666992188 232 800 c 1
 436 800 l 1
 518.666992188 769.333007812 566 698 578 586 c 1
 586.666992188 457.333007812 571.666992188 350.333007812 533 265 c 1
 492.333007812 193.666992188 442.666992188 159.333007812 384 162 c 0
 286 166 216.333007812 232 175 360 c 1
 155.666992188 430 145 505.333007812 143 586 c 2
 143 800 l 1
EndSplineSet
EndChar

StartChar: uniE0A2
Encoding: 57506 57506 108
Width: 1022
Flags: HW
LayerCount: 2
Fore
SplineSet
702 800 m 1
 1075 800 l 1
 1075 586 l 1
 897 586 l 1
 877 448.666992188 857 336.666992188 837 250 c 1
 819 230 799 230 777 250 c 1
 750.333007812 336.666992188 725.333007812 448.666992188 702 586 c 1
 702 800 l 1
341 163 m 1
 335 151.666992188 332 133.333007812 332 108 c 2
 332 84 l 2
 332 58 343.333007812 14.6669921875 366 -46 c 1
 366 -70.6669921875 344.666992188 -85 302 -89 c 1
 259.333007812 -89 224 -41.3330078125 196 54 c 1
 196 98.6669921875 215.666992188 146.666992188 255 198 c 1
 360 161 l 1
 353.333007812 161 347 161.666992188 341 163 c 1
353 349 m 1
 442.333007812 353 482.333007812 432 473 586 c 1
 213 586 l 1
 216.333007812 430 263 351 353 349 c 1
128 800 m 1
 141.333007812 1079.33300781 242.666992188 1223 432 1231 c 0
 530.666992188 1233.66699219 612.666992188 1178.66699219 678 1066 c 1
 721.333007812 974 748 883 758 793 c 1
 730 690 l 1
 702 586 l 1
 660.666992188 886.666992188 570 1043.33300781 430 1056 c 1
 308.666992188 1040 237.666992188 954.666992188 217 800 c 1
 421 800 l 1
 503.666992188 769.333007812 551 698 563 586 c 1
 571.666992188 457.333007812 556.666992188 350.333007812 518 265 c 1
 477.333007812 193.666992188 427.666992188 159.333007812 369 162 c 0
 271 166 201.333007812 232 160 360 c 1
 140.666992188 430 130 505.333007812 128 586 c 2
 128 800 l 1
EndSplineSet
EndChar

StartChar: uniE0A3
Encoding: 57507 57507 109
Width: 995
Flags: HW
LayerCount: 2
Fore
SplineSet
253 800 m 1
 253 586 l 1
 -47 586 l 1
 -47 800 l 1
 253 800 l 1
675 800 m 1
 1048 800 l 1
 1048 586 l 1
 870 586 l 1
 850 448.666992188 830 336.666992188 810 250 c 1
 792 230 772 230 750 250 c 1
 723.333007812 336.666992188 698.333007812 448.666992188 675 586 c 1
 675 800 l 1
314 163 m 1
 308 151.666992188 305 133.333007812 305 108 c 2
 305 84 l 2
 305 58 316.333007812 14.6669921875 339 -46 c 1
 339 -70.6669921875 317.666992188 -85 275 -89 c 1
 232.333007812 -89 197 -41.3330078125 169 54 c 1
 169 98.6669921875 188.666992188 146.666992188 228 198 c 1
 333 161 l 1
 326.333007812 161 320 161.666992188 314 163 c 1
326 349 m 1
 415.333007812 353 455.333007812 432 446 586 c 1
 186 586 l 1
 189.333007812 430 236 351 326 349 c 1
101 800 m 1
 114.333007812 1079.33300781 215.666992188 1223 405 1231 c 0
 503.666992188 1233.66699219 585.666992188 1178.66699219 651 1066 c 1
 694.333007812 974 721 883 731 793 c 1
 703 690 l 1
 675 586 l 1
 633.666992188 886.666992188 543 1043.33300781 403 1056 c 1
 281.666992188 1040 210.666992188 954.666992188 190 800 c 1
 394 800 l 1
 476.666992188 769.333007812 524 698 536 586 c 1
 544.666992188 457.333007812 529.666992188 350.333007812 491 265 c 1
 450.333007812 193.666992188 400.666992188 159.333007812 342 162 c 0
 244 166 174.333007812 232 133 360 c 1
 113.666992188 430 103 505.333007812 101 586 c 2
 101 800 l 1
EndSplineSet
EndChar

StartChar: uniE0A5
Encoding: 57509 57509 110
Width: 1166
Flags: HW
LayerCount: 2
Fore
SplineSet
1228 800 m 1
 1228 586 l 1
 884 586 l 2
 858.666992188 585.333007812 845.333007812 573.666992188 844 551 c 1
 832 514.333007812 872.666992188 420.666992188 966 270 c 1
 972 237 l 1
 958.666992188 93.6669921875 943.666992188 22.3330078125 927 23 c 2
 912 24 l 1
 856.666992188 100.666992188 808.333007812 209.333007812 767 350 c 0
 741 444.666992188 724 523.333007812 716 586 c 1
 716 800 l 1
 1228 800 l 1
355 163 m 1
 349 151.666992188 346 133.333007812 346 108 c 2
 346 84 l 2
 346 58 357.333007812 14.6669921875 380 -46 c 1
 380 -70.6669921875 358.666992188 -85 316 -89 c 1
 273.333007812 -89 238 -41.3330078125 210 54 c 1
 210 98.6669921875 229.666992188 146.666992188 269 198 c 1
 374 161 l 1
 367.333007812 161 361 161.666992188 355 163 c 1
367 349 m 1
 456.333007812 353 496.333007812 432 487 586 c 1
 227 586 l 1
 230.333007812 430 277 351 367 349 c 1
142 800 m 1
 155.333007812 1079.33300781 256.666992188 1223 446 1231 c 0
 544.666992188 1233.66699219 626.666992188 1178.66699219 692 1066 c 1
 735.333007812 974 762 883 772 793 c 1
 744 690 l 1
 716 586 l 1
 674.666992188 886.666992188 584 1043.33300781 444 1056 c 1
 322.666992188 1040 251.666992188 954.666992188 231 800 c 1
 435 800 l 1
 517.666992188 769.333007812 565 698 577 586 c 1
 585.666992188 457.333007812 570.666992188 350.333007812 532 265 c 1
 491.333007812 193.666992188 441.666992188 159.333007812 383 162 c 0
 285 166 215.333007812 232 174 360 c 1
 154.666992188 430 144 505.333007812 142 586 c 2
 142 800 l 1
EndSplineSet
EndChar

StartChar: uniE0A6
Encoding: 57510 57510 111
Width: 1108
Flags: HW
LayerCount: 2
Fore
SplineSet
250 800 m 1
 250 586 l 1
 -50 586 l 1
 -50 800 l 1
 250 800 l 1
1186 800 m 1
 1186 586 l 1
 842 586 l 2
 816.666992188 585.333007812 803.333007812 573.666992188 802 551 c 1
 790 514.333007812 830.666992188 420.666992188 924 270 c 1
 930 237 l 1
 916.666992188 93.6669921875 901.666992188 22.3330078125 885 23 c 2
 870 24 l 1
 814.666992188 100.666992188 766.333007812 209.333007812 725 350 c 0
 699 444.666992188 682 523.333007812 674 586 c 1
 674 800 l 1
 1186 800 l 1
313 163 m 1
 307 151.666992188 304 133.333007812 304 108 c 2
 304 84 l 2
 304 58 315.333007812 14.6669921875 338 -46 c 1
 338 -70.6669921875 316.666992188 -85 274 -89 c 1
 231.333007812 -89 196 -41.3330078125 168 54 c 1
 168 98.6669921875 187.666992188 146.666992188 227 198 c 1
 332 161 l 1
 325.333007812 161 319 161.666992188 313 163 c 1
325 349 m 1
 414.333007812 353 454.333007812 432 445 586 c 1
 185 586 l 1
 188.333007812 430 235 351 325 349 c 1
100 800 m 1
 113.333007812 1079.33300781 214.666992188 1223 404 1231 c 0
 502.666992188 1233.66699219 584.666992188 1178.66699219 650 1066 c 1
 693.333007812 974 720 883 730 793 c 1
 702 690 l 1
 674 586 l 1
 632.666992188 886.666992188 542 1043.33300781 402 1056 c 1
 280.666992188 1040 209.666992188 954.666992188 189 800 c 1
 393 800 l 1
 475.666992188 769.333007812 523 698 535 586 c 1
 543.666992188 457.333007812 528.666992188 350.333007812 490 265 c 1
 449.333007812 193.666992188 399.666992188 159.333007812 341 162 c 0
 243 166 173.333007812 232 132 360 c 1
 112.666992188 430 102 505.333007812 100 586 c 2
 100 800 l 1
EndSplineSet
EndChar

StartChar: uniE0A7
Encoding: 57511 57511 112
Width: 1625
Flags: HW
LayerCount: 2
Fore
SplineSet
254 800 m 1
 254 586 l 1
 -46 586 l 1
 -46 800 l 1
 254 800 l 1
1165 800 m 1
 1275.66699219 796.666992188 1348.33300781 778.666992188 1383 746 c 1
 1437 701.333007812 1468 631.666992188 1476 537 c 1
 1478 431 1458.66699219 353 1418 303 c 1
 1382.66699219 281 1365 287.333007812 1365 322 c 2
 1365 332 l 1
 1371 366 l 1
 1369.66699219 473.333007812 1345 541 1297 569 c 1
 1271 579.666992188 1227 585.666992188 1165 587 c 1
 1165 800 l 1
1189 800 m 1
 1189 586 l 1
 845 586 l 2
 819.666992188 585.333007812 806.333007812 573.666992188 805 551 c 1
 793 514.333007812 833.666992188 420.666992188 927 270 c 1
 933 237 l 1
 919.666992188 93.6669921875 904.666992188 22.3330078125 888 23 c 2
 873 24 l 1
 817.666992188 100.666992188 769.333007812 209.333007812 728 350 c 0
 702 444.666992188 685 523.333007812 677 586 c 1
 677 800 l 1
 1189 800 l 1
320 163 m 1
 314 151.666992188 311 133.333007812 311 108 c 2
 311 84 l 2
 311 58 322.333007812 14.6669921875 345 -46 c 1
 345 -70.6669921875 323.666992188 -85 281 -89 c 1
 238.333007812 -89 203 -41.3330078125 175 54 c 1
 175 98.6669921875 194.666992188 146.666992188 234 198 c 1
 339 161 l 1
 332.333007812 161 326 161.666992188 320 163 c 1
332 349 m 1
 421.333007812 353 461.333007812 432 452 586 c 1
 192 586 l 1
 195.333007812 430 242 351 332 349 c 1
107 800 m 1
 120.333007812 1079.33300781 221.666992188 1223 411 1231 c 0
 509.666992188 1233.66699219 591.666992188 1178.66699219 657 1066 c 1
 700.333007812 974 727 883 737 793 c 1
 709 690 l 1
 681 586 l 1
 639.666992188 886.666992188 549 1043.33300781 409 1056 c 1
 287.666992188 1040 216.666992188 954.666992188 196 800 c 1
 400 800 l 1
 482.666992188 769.333007812 530 698 542 586 c 1
 550.666992188 457.333007812 535.666992188 350.333007812 497 265 c 1
 456.333007812 193.666992188 406.666992188 159.333007812 348 162 c 0
 250 166 180.333007812 232 139 360 c 1
 119.666992188 430 109 505.333007812 107 586 c 2
 107 800 l 1
EndSplineSet
EndChar

StartChar: uniE0A0
Encoding: 57504 57504 113
Width: 1032
Flags: HW
LayerCount: 2
Fore
SplineSet
722 327 m 1
 780 327 814.333007812 365.333007812 825 442 c 0
 831.666992188 482 832 530 826 586 c 1
 637 586 l 1
 619 582.666992188 610 551.333007812 610 492 c 0
 614 388 651.333007812 333 722 327 c 1
906 586 m 2
 906.666992188 516.666992188 906 459.333007812 904 414 c 1
 884 250.666992188 823.666992188 171 723 175 c 1
 660.333007812 172.333007812 614.333007812 202 585 264 c 0
 553.666992188 336.666992188 541 444 547 586 c 0
 554.333007812 707.333007812 590.666992188 778.666992188 656 800 c 1
 906 800 l 1
 906 586 l 2
354 349 m 1
 444 353 482 432 468 586 c 1
 214 586 l 1
 223.333007812 430 270 351 354 349 c 1
333 163 m 1
 327 151.666992188 324 133.666992188 324 109 c 2
 324 85 l 2
 324 59 335.333007812 15.6669921875 358 -45 c 1
 358 -69.6669921875 336.666992188 -84 294 -88 c 1
 252 -88 217 -40.3330078125 189 55 c 1
 189 101 209.666992188 151 251 205 c 1
 213 239.666992188 182.333007812 293.666992188 159 367 c 1
 136.333007812 464.333007812 126.333007812 537.333007812 129 586 c 1
 129 800 l 1
 193 1020 293 1154.33300781 429 1203 c 1
 583 1263 710.333007812 1218 811 1068 c 1
 865 978.666992188 896.666992188 889.333007812 906 800 c 1
 875 586 l 1
 869 800 l 1
 822 800 l 1
 779.333007812 950 684.666992188 1025.66699219 538 1027 c 0
 410.666992188 1025.66699219 313.333007812 950 246 800 c 1
 411 800 l 1
 492.333007812 769.333007812 539.333007812 698 552 586 c 1
 560 458 545 351 507 265 c 1
 466.333007812 195.666992188 417 160.666992188 359 160 c 0
 350.333007812 160.666992188 341.666992188 161.666992188 333 163 c 1
EndSplineSet
EndChar

StartChar: uniE0A1
Encoding: 57505 57505 114
Width: 1353
Flags: HW
LayerCount: 2
Fore
SplineSet
910 800 m 1
 1020.66699219 796.666992188 1093.33300781 778.666992188 1128 746 c 1
 1182 701.333007812 1213 631.666992188 1221 537 c 1
 1223 431 1203.66699219 353 1163 303 c 1
 1127.66699219 281 1110 287.333007812 1110 322 c 2
 1110 332 l 1
 1116 366 l 1
 1114.66699219 473.333007812 1090 541 1042 569 c 1
 1016 579.666992188 972 585.666992188 910 587 c 1
 910 800 l 1
731 327 m 1
 789 327 823.333007812 365.333007812 834 442 c 0
 840.666992188 482 841 530 835 586 c 1
 646 586 l 1
 628 582.666992188 619 551.333007812 619 492 c 0
 623 388 660.333007812 333 731 327 c 1
915 586 m 2
 915.666992188 516.666992188 915 459.333007812 913 414 c 1
 893 250.666992188 832.666992188 171 732 175 c 1
 669.333007812 172.333007812 623.333007812 202 594 264 c 0
 562.666992188 336.666992188 550 444 556 586 c 0
 563.333007812 707.333007812 599.666992188 778.666992188 665 800 c 1
 915 800 l 1
 915 586 l 2
363 349 m 1
 453 353 491 432 477 586 c 1
 223 586 l 1
 232.333007812 430 279 351 363 349 c 1
342 163 m 1
 336 151.666992188 333 133.666992188 333 109 c 2
 333 85 l 2
 333 59 344.333007812 15.6669921875 367 -45 c 1
 367 -69.6669921875 345.666992188 -84 303 -88 c 1
 261 -88 226 -40.3330078125 198 55 c 1
 198 101 218.666992188 151 260 205 c 1
 222 239.666992188 191.333007812 293.666992188 168 367 c 1
 145.333007812 464.333007812 135.333007812 537.333007812 138 586 c 1
 138 800 l 1
 202 1020 302 1154.33300781 438 1203 c 1
 592 1263 719.333007812 1218 820 1068 c 1
 874 978.666992188 905.666992188 889.333007812 915 800 c 1
 884 586 l 1
 878 800 l 1
 831 800 l 1
 788.333007812 950 693.666992188 1025.66699219 547 1027 c 0
 419.666992188 1025.66699219 322.333007812 950 255 800 c 1
 420 800 l 1
 501.333007812 769.333007812 548.333007812 698 561 586 c 1
 569 458 554 351 516 265 c 1
 475.333007812 195.666992188 426 160.666992188 368 160 c 0
 359.333007812 160.666992188 350.666992188 161.666992188 342 163 c 1
EndSplineSet
EndChar

StartChar: uniE0A8
Encoding: 57512 57512 115
Width: 1005
Flags: HW
LayerCount: 2
Fore
SplineSet
1050 800 m 1
 1050 586 l 1
 750 586 l 1
 750 800 l 1
 1050 800 l 1
722 327 m 1
 780 327 814.333007812 365.333007812 825 442 c 0
 831.666992188 482 832 530 826 586 c 1
 637 586 l 1
 619 582.666992188 610 551.333007812 610 492 c 0
 614 388 651.333007812 333 722 327 c 1
906 586 m 2
 906.666992188 516.666992188 906 459.333007812 904 414 c 1
 884 250.666992188 823.666992188 171 723 175 c 1
 660.333007812 172.333007812 614.333007812 202 585 264 c 0
 553.666992188 336.666992188 541 444 547 586 c 0
 554.333007812 707.333007812 590.666992188 778.666992188 656 800 c 1
 906 800 l 1
 906 586 l 2
354 349 m 1
 444 353 482 432 468 586 c 1
 214 586 l 1
 223.333007812 430 270 351 354 349 c 1
333 163 m 1
 327 151.666992188 324 133.666992188 324 109 c 2
 324 85 l 2
 324 59 335.333007812 15.6669921875 358 -45 c 1
 358 -69.6669921875 336.666992188 -84 294 -88 c 1
 252 -88 217 -40.3330078125 189 55 c 1
 189 101 209.666992188 151 251 205 c 1
 213 239.666992188 182.333007812 293.666992188 159 367 c 1
 136.333007812 464.333007812 126.333007812 537.333007812 129 586 c 1
 129 800 l 1
 193 1020 293 1154.33300781 429 1203 c 1
 583 1263 710.333007812 1218 811 1068 c 1
 865 978.666992188 896.666992188 889.333007812 906 800 c 1
 875 586 l 1
 869 800 l 1
 822 800 l 1
 779.333007812 950 684.666992188 1025.66699219 538 1027 c 0
 410.666992188 1025.66699219 313.333007812 950 246 800 c 1
 411 800 l 1
 492.333007812 769.333007812 539.333007812 698 552 586 c 1
 560 458 545 351 507 265 c 1
 466.333007812 195.666992188 417 160.666992188 359 160 c 0
 350.333007812 160.666992188 341.666992188 161.666992188 333 163 c 1
EndSplineSet
EndChar

StartChar: uniE0A9
Encoding: 57513 57513 116
Width: 972
Flags: HW
LayerCount: 2
Fore
SplineSet
1020 800 m 1
 1020 586 l 1
 720 586 l 1
 720 800 l 1
 1020 800 l 1
250 800 m 1
 250 586 l 1
 -50 586 l 1
 -50 800 l 1
 250 800 l 1
692 327 m 1
 750 327 784.333007812 365.333007812 795 442 c 0
 801.666992188 482 802 530 796 586 c 1
 607 586 l 1
 589 582.666992188 580 551.333007812 580 492 c 0
 584 388 621.333007812 333 692 327 c 1
876 586 m 2
 876.666992188 516.666992188 876 459.333007812 874 414 c 1
 854 250.666992188 793.666992188 171 693 175 c 1
 630.333007812 172.333007812 584.333007812 202 555 264 c 0
 523.666992188 336.666992188 511 444 517 586 c 0
 524.333007812 707.333007812 560.666992188 778.666992188 626 800 c 1
 876 800 l 1
 876 586 l 2
324 349 m 1
 414 353 452 432 438 586 c 1
 184 586 l 1
 193.333007812 430 240 351 324 349 c 1
303 163 m 1
 297 151.666992188 294 133.666992188 294 109 c 2
 294 85 l 2
 294 59 305.333007812 15.6669921875 328 -45 c 1
 328 -69.6669921875 306.666992188 -84 264 -88 c 1
 222 -88 187 -40.3330078125 159 55 c 1
 159 101 179.666992188 151 221 205 c 1
 183 239.666992188 152.333007812 293.666992188 129 367 c 1
 106.333007812 464.333007812 96.3330078125 537.333007812 99 586 c 1
 99 800 l 1
 163 1020 263 1154.33300781 399 1203 c 1
 553 1263 680.333007812 1218 781 1068 c 1
 835 978.666992188 866.666992188 889.333007812 876 800 c 1
 845 586 l 1
 839 800 l 1
 792 800 l 1
 749.333007812 950 654.666992188 1025.66699219 508 1027 c 0
 380.666992188 1025.66699219 283.333007812 950 216 800 c 1
 381 800 l 1
 462.333007812 769.333007812 509.333007812 698 522 586 c 1
 530 458 515 351 477 265 c 1
 436.333007812 195.666992188 387 160.666992188 329 160 c 0
 320.333007812 160.666992188 311.666992188 161.666992188 303 163 c 1
EndSplineSet
EndChar

StartChar: uniE0AA
Encoding: 57514 57514 117
Width: 1002
Flags: HW
LayerCount: 2
Fore
SplineSet
250 800 m 1
 250 586 l 1
 -50 586 l 1
 -50 800 l 1
 250 800 l 1
692 327 m 1
 750 327 784.333007812 365.333007812 795 442 c 0
 801.666992188 482 802 530 796 586 c 1
 607 586 l 1
 589 582.666992188 580 551.333007812 580 492 c 0
 584 388 621.333007812 333 692 327 c 1
876 586 m 2
 876.666992188 516.666992188 876 459.333007812 874 414 c 1
 854 250.666992188 793.666992188 171 693 175 c 1
 630.333007812 172.333007812 584.333007812 202 555 264 c 0
 523.666992188 336.666992188 511 444 517 586 c 0
 524.333007812 707.333007812 560.666992188 778.666992188 626 800 c 1
 876 800 l 1
 876 586 l 2
324 349 m 1
 414 353 452 432 438 586 c 1
 184 586 l 1
 193.333007812 430 240 351 324 349 c 1
303 163 m 1
 297 151.666992188 294 133.666992188 294 109 c 2
 294 85 l 2
 294 59 305.333007812 15.6669921875 328 -45 c 1
 328 -69.6669921875 306.666992188 -84 264 -88 c 1
 222 -88 187 -40.3330078125 159 55 c 1
 159 101 179.666992188 151 221 205 c 1
 183 239.666992188 152.333007812 293.666992188 129 367 c 1
 106.333007812 464.333007812 96.3330078125 537.333007812 99 586 c 1
 99 800 l 1
 163 1020 263 1154.33300781 399 1203 c 1
 553 1263 680.333007812 1218 781 1068 c 1
 835 978.666992188 866.666992188 889.333007812 876 800 c 1
 845 586 l 1
 839 800 l 1
 792 800 l 1
 749.333007812 950 654.666992188 1025.66699219 508 1027 c 0
 380.666992188 1025.66699219 283.333007812 950 216 800 c 1
 381 800 l 1
 462.333007812 769.333007812 509.333007812 698 522 586 c 1
 530 458 515 351 477 265 c 1
 436.333007812 195.666992188 387 160.666992188 329 160 c 0
 320.333007812 160.666992188 311.666992188 161.666992188 303 163 c 1
EndSplineSet
EndChar

StartChar: uniE0D0
Encoding: 57552 57552 118
Width: 1320
Flags: HW
LayerCount: 2
Fore
SplineSet
874 800 m 1
 984.666992188 796.666992188 1057.33300781 778.666992188 1092 746 c 1
 1146 701.333007812 1177 631.666992188 1185 537 c 1
 1187 431 1167.66699219 353 1127 303 c 1
 1091.66699219 281 1074 287.333007812 1074 322 c 2
 1074 332 l 1
 1080 366 l 1
 1078.66699219 473.333007812 1054 541 1006 569 c 1
 980 579.666992188 936 585.666992188 874 587 c 1
 874 800 l 1
250 800 m 1
 250 586 l 1
 -50 586 l 1
 -50 800 l 1
 250 800 l 1
692 327 m 1
 750 327 784.333007812 365.333007812 795 442 c 0
 801.666992188 482 802 530 796 586 c 1
 607 586 l 1
 589 582.666992188 580 551.333007812 580 492 c 0
 584 388 621.333007812 333 692 327 c 1
876 586 m 2
 876.666992188 516.666992188 876 459.333007812 874 414 c 1
 854 250.666992188 793.666992188 171 693 175 c 1
 630.333007812 172.333007812 584.333007812 202 555 264 c 0
 523.666992188 336.666992188 511 444 517 586 c 0
 524.333007812 707.333007812 560.666992188 778.666992188 626 800 c 1
 876 800 l 1
 876 586 l 2
324 349 m 1
 414 353 452 432 438 586 c 1
 184 586 l 1
 193.333007812 430 240 351 324 349 c 1
303 163 m 1
 297 151.666992188 294 133.666992188 294 109 c 2
 294 85 l 2
 294 59 305.333007812 15.6669921875 328 -45 c 1
 328 -69.6669921875 306.666992188 -84 264 -88 c 1
 222 -88 187 -40.3330078125 159 55 c 1
 159 101 179.666992188 151 221 205 c 1
 183 239.666992188 152.333007812 293.666992188 129 367 c 1
 106.333007812 464.333007812 96.3330078125 537.333007812 99 586 c 1
 99 800 l 1
 163 1020 263 1154.33300781 399 1203 c 1
 553 1263 680.333007812 1218 781 1068 c 1
 835 978.666992188 866.666992188 889.333007812 876 800 c 1
 845 586 l 1
 839 800 l 1
 792 800 l 1
 749.333007812 950 654.666992188 1025.66699219 508 1027 c 0
 380.666992188 1025.66699219 283.333007812 950 216 800 c 1
 381 800 l 1
 462.333007812 769.333007812 509.333007812 698 522 586 c 1
 530 458 515 351 477 265 c 1
 436.333007812 195.666992188 387 160.666992188 329 160 c 0
 320.333007812 160.666992188 311.666992188 161.666992188 303 163 c 1
EndSplineSet
EndChar

StartChar: uniE0CF
Encoding: 57551 57551 119
Width: 1228
Flags: HW
LayerCount: 2
Fore
SplineSet
794 800 m 1
 904.666992188 796.666992188 977.333007812 778.666992188 1012 746 c 1
 1066 701.333007812 1097 631.666992188 1105 537 c 1
 1107 431 1087.66699219 353 1047 303 c 1
 1011.66699219 281 994 287.333007812 994 322 c 2
 994 332 l 1
 1000 366 l 1
 998.666992188 473.333007812 974 541 926 569 c 1
 900 579.666992188 856 585.666992188 794 587 c 1
 794 800 l 1
153 800 m 1
 153 586 l 1
 -57 586 l 1
 -57 800 l 1
 153 800 l 1
610 327 m 1
 668 327 702.333007812 365.333007812 713 442 c 0
 719.666992188 482 720 530 714 586 c 1
 525 586 l 1
 507 582.666992188 498 551.333007812 498 492 c 0
 502 388 539.333007812 333 610 327 c 1
794 586 m 2
 794.666992188 516.666992188 794 459.333007812 792 414 c 1
 772 250.666992188 711.666992188 171 611 175 c 1
 548.333007812 172.333007812 502.333007812 202 473 264 c 0
 441.666992188 336.666992188 429 444 435 586 c 0
 442.333007812 707.333007812 478.666992188 778.666992188 544 800 c 1
 794 800 l 1
 794 586 l 2
93 800 m 1
 112 800 l 1
 157.333007812 954.666992188 232.666992188 1075.33300781 338 1162 c 1
 394 1203.33300781 449 1222.66699219 503 1220 c 0
 600.333007812 1215.33300781 680.333007812 1160.66699219 743 1056 c 1
 780.333007812 970 797.333007812 881.333007812 794 790 c 1
 776.666992188 715.333007812 757.666992188 643.333007812 737 574 c 1
 764 790 l 1
 714 790 l 1
 702.666992188 884 670.666992188 951.333007812 618 992 c 0
 580.666992188 1022.66699219 539.666992188 1036 495 1032 c 1
 402.333007812 1032 321.333007812 984 252 888 c 1
 208.666992188 816.666992188 185.333007812 747 182 679 c 0
 180.666992188 646.333007812 182.666992188 612 188 576 c 0
 206.666992188 466.666992188 257.333007812 376.666992188 340 306 c 1
 340 294 l 1
 302 231.333007812 277 177 265 131 c 1
 253 130 l 1
 229.666992188 159.333007812 205.666992188 203.666992188 181 263 c 0
 140.333007812 360.333007812 111 468 93 586 c 1
 93 800 l 1
EndSplineSet
EndChar

StartChar: uniE0CE
Encoding: 57550 57550 120
Width: 1278
Flags: HW
LayerCount: 2
Fore
SplineSet
814 800 m 1
 924.666992188 796.666992188 997.333007812 778.666992188 1032 746 c 1
 1086 701.333007812 1117 631.666992188 1125 537 c 1
 1127 431 1107.66699219 353 1067 303 c 1
 1031.66699219 281 1014 287.333007812 1014 322 c 2
 1014 332 l 1
 1020 366 l 1
 1018.66699219 473.333007812 994 541 946 569 c 1
 920 579.666992188 876 585.666992188 814 587 c 1
 814 800 l 1
253 800 m 1
 253 586 l 1
 -47 586 l 1
 -47 800 l 1
 253 800 l 1
633 327 m 1
 691 327 725.333007812 365.333007812 736 442 c 0
 742.666992188 482 743 530 737 586 c 1
 548 586 l 1
 530 582.666992188 521 551.333007812 521 492 c 0
 525 388 562.333007812 333 633 327 c 1
817 586 m 2
 817.666992188 516.666992188 817 459.333007812 815 414 c 1
 795 250.666992188 734.666992188 171 634 175 c 1
 571.333007812 172.333007812 525.333007812 202 496 264 c 0
 464.666992188 336.666992188 452 444 458 586 c 0
 465.333007812 707.333007812 501.666992188 778.666992188 567 800 c 1
 817 800 l 1
 817 586 l 2
97 800 m 1
 108.333007812 860 131 924.666992188 165 994 c 0
 222.333007812 1105.33300781 286.333007812 1175.66699219 357 1205 c 1
 400.333007812 1228.33300781 452.666992188 1237 514 1231 c 1
 610 1211.66699219 685.666992188 1158 741 1070 c 1
 787 988 812.333007812 896.666992188 817 796 c 1
 793 588 l 1
 780 796 l 1
 737 796 l 1
 732.333007812 876 698.333007812 945 635 1003 c 1
 579 1042.33300781 516 1057 446 1047 c 0
 334.666992188 1032.33300781 249.666992188 950 191 800 c 1
 385 800 l 1
 465 787.333007812 505.333007812 722.666992188 506 606 c 1
 512 414 482.333007812 289.333007812 417 232 c 0
 383.666992188 201.333007812 324 179.666992188 238 167 c 1
 118 127 l 1
 114 128 l 1
 111 132 l 1
 117 188 l 1
 133.666992188 296.666992188 169.333007812 358.333007812 224 373 c 1
 359 391 l 2
 398.333007812 398.333007812 424.666992188 423 438 465 c 0
 449.333007812 507 452.333007812 547.333007812 447 586 c 1
 97 586 l 1
 97 800 l 1
EndSplineSet
EndChar

StartChar: uniE0CD
Encoding: 57549 57549 121
Width: 1302
Flags: HW
LayerCount: 2
Fore
SplineSet
834 800 m 1
 944.666992188 796.666992188 1017.33300781 778.666992188 1052 746 c 1
 1106 701.333007812 1137 631.666992188 1145 537 c 1
 1147 431 1127.66699219 353 1087 303 c 1
 1051.66699219 281 1034 287.333007812 1034 322 c 2
 1034 332 l 1
 1040 366 l 1
 1038.66699219 473.333007812 1014 541 966 569 c 1
 940 579.666992188 896 585.666992188 834 587 c 1
 834 800 l 1
250 800 m 1
 250 586 l 1
 -50 586 l 1
 -50 800 l 1
 250 800 l 1
653 327 m 1
 711 327 745.333007812 365.333007812 756 442 c 0
 762.666992188 482 763 530 757 586 c 1
 568 586 l 1
 550 582.666992188 541 551.333007812 541 492 c 0
 545 388 582.333007812 333 653 327 c 1
837 586 m 2
 837.666992188 516.666992188 837 459.333007812 835 414 c 1
 815 250.666992188 754.666992188 171 654 175 c 1
 591.333007812 172.333007812 545.333007812 202 516 264 c 0
 484.666992188 336.666992188 472 444 478 586 c 0
 485.333007812 707.333007812 521.666992188 778.666992188 587 800 c 1
 837 800 l 1
 837 586 l 2
100 800 m 1
 116 859.333007812 137.333007812 916 164 970 c 0
 223.333007812 1080.66699219 301 1158.33300781 397 1203 c 1
 548.333007812 1257.66699219 669 1212.66699219 759 1068 c 1
 809.666992188 978.666992188 835.666992188 886 837 790 c 1
 833.666992188 732.666992188 824.666992188 668 810 596 c 1
 801 790 l 1
 757 790 l 1
 723.666992188 946.666992188 640 1025.66699219 506 1027 c 0
 363.333007812 1025.66699219 261.333007812 950 200 800 c 1
 379 800 l 1
 461 769.333007812 508 698 520 586 c 1
 525.333007812 458 509.666992188 351 473 265 c 1
 434.333007812 195.666992188 386 160.666992188 328 160 c 1
 242 164.666992188 177.333007812 233.666992188 134 367 c 0
 112 440.333007812 100.666992188 513.333007812 100 586 c 2
 100 800 l 1
324 349 m 1
 414.666992188 353 453 432 439 586 c 1
 185 586 l 1
 194.333007812 430 240.666992188 351 324 349 c 1
EndSplineSet
EndChar

StartChar: uniE0AD
Encoding: 57517 57517 122
Width: 1552
Flags: HW
LayerCount: 2
Fore
SplineSet
1110 800 m 1
 1220.66699219 796.666992188 1293.33300781 778.666992188 1328 746 c 1
 1382 701.333007812 1413 631.666992188 1421 537 c 1
 1423 431 1403.66699219 353 1363 303 c 1
 1327.66699219 281 1310 287.333007812 1310 322 c 2
 1310 332 l 1
 1316 366 l 1
 1314.66699219 473.333007812 1290 541 1242 569 c 1
 1216 579.666992188 1172 585.666992188 1110 587 c 1
 1110 800 l 1
1134 800 m 1
 1134 586 l 1
 790 586 l 2
 764.666992188 585.333007812 751.333007812 573.666992188 750 551 c 1
 738 514.333007812 778.666992188 420.666992188 872 270 c 1
 878 237 l 1
 864.666992188 93.6669921875 849.666992188 22.3330078125 833 23 c 2
 818 24 l 1
 762.666992188 100.666992188 714.333007812 209.333007812 673 350 c 0
 647 444.666992188 630 523.333007812 622 586 c 1
 622 800 l 1
 1134 800 l 1
138 800 m 1
 189 800 l 1
 206.333007812 875.333007812 229.666992188 944.666992188 259 1008 c 1
 326.333007812 1129.33300781 400.666992188 1190.66699219 482 1192 c 0
 568.666992188 1194 630.333007812 1137 667 1021 c 1
 691 927 701.333007812 853.333007812 698 800 c 1
 622 586 l 1
 607 780 l 1
 601.666992188 810.666992188 594.666992188 842.333007812 586 875 c 0
 553.333007812 974.333007812 496.666992188 1011 416 985 c 1
 352.666992188 951.666992188 304.666992188 885.666992188 272 787 c 1
 272 769.666992188 289.666992188 746 325 716 c 1
 387.666992188 619.333007812 432 563.666992188 458 549 c 1
 463 528 l 1
 464 509 l 2
 465.333007812 486.333007812 453.166992188 439.333007812 427.5 368 c 128
 401.833007812 296.666992188 385 256 377 246 c 1
 353.666992188 240 338.666992188 243 332 255 c 1
 331 287 l 1
 327 397 l 2
 326.333007812 417 319.666992188 436 307 454 c 1
 304 453 l 1
 293.333007812 427.666992188 280.333007812 402.333007812 265 377 c 1
 219 342 l 1
 188 322 l 1
 174.666992188 317.333007812 166.333007812 320.333007812 163 331 c 1
 201 553 l 1
 201 575 195 586 183 586 c 2
 138 586 l 1
 138 800 l 1
EndSplineSet
EndChar

StartChar: uniE0B0
Encoding: 57520 57520 123
Width: 943
Flags: HW
LayerCount: 2
Fore
SplineSet
602 800 m 1
 975 800 l 1
 975 586 l 1
 797 586 l 1
 777 448.666992188 757 336.666992188 737 250 c 1
 719 230 699 230 677 250 c 1
 650.333007812 336.666992188 625.333007812 448.666992188 602 586 c 1
 602 800 l 1
118 800 m 1
 169 800 l 1
 186.333007812 875.333007812 209.666992188 944.666992188 239 1008 c 1
 306.333007812 1129.33300781 380.666992188 1190.66699219 462 1192 c 0
 548.666992188 1194 610.333007812 1137 647 1021 c 1
 671 927 681.333007812 853.333007812 678 800 c 1
 602 586 l 1
 587 780 l 1
 581.666992188 810.666992188 574.666992188 842.333007812 566 875 c 0
 533.333007812 974.333007812 476.666992188 1011 396 985 c 1
 332.666992188 951.666992188 284.666992188 885.666992188 252 787 c 1
 252 769.666992188 269.666992188 746 305 716 c 1
 367.666992188 619.333007812 412 563.666992188 438 549 c 1
 443 528 l 1
 444 509 l 2
 445.333007812 486.333007812 433.166992188 439.333007812 407.5 368 c 128
 381.833007812 296.666992188 365 256 357 246 c 1
 333.666992188 240 318.666992188 243 312 255 c 1
 311 287 l 1
 307 397 l 2
 306.333007812 417 299.666992188 436 287 454 c 1
 284 453 l 1
 273.333007812 427.666992188 260.333007812 402.333007812 245 377 c 1
 199 342 l 1
 168 322 l 1
 154.666992188 317.333007812 146.333007812 320.333007812 143 331 c 1
 181 553 l 1
 181 575 175 586 163 586 c 2
 118 586 l 1
 118 800 l 1
EndSplineSet
EndChar

StartChar: uniE0B1
Encoding: 57521 57521 124
Width: 922
Flags: HW
LayerCount: 2
Fore
SplineSet
188 800 m 1
 188 586 l 1
 -51 586 l 1
 -51 800 l 1
 188 800 l 1
581 800 m 1
 954 800 l 1
 954 586 l 1
 776 586 l 1
 756 448.666992188 736 336.666992188 716 250 c 1
 698 230 678 230 656 250 c 1
 629.333007812 336.666992188 604.333007812 448.666992188 581 586 c 1
 581 800 l 1
97 800 m 1
 148 800 l 1
 165.333007812 875.333007812 188.666992188 944.666992188 218 1008 c 1
 285.333007812 1129.33300781 359.666992188 1190.66699219 441 1192 c 0
 527.666992188 1194 589.333007812 1137 626 1021 c 1
 650 927 660.333007812 853.333007812 657 800 c 1
 581 586 l 1
 566 780 l 1
 560.666992188 810.666992188 553.666992188 842.333007812 545 875 c 0
 512.333007812 974.333007812 455.666992188 1011 375 985 c 1
 311.666992188 951.666992188 263.666992188 885.666992188 231 787 c 1
 231 769.666992188 248.666992188 746 284 716 c 1
 346.666992188 619.333007812 391 563.666992188 417 549 c 1
 422 528 l 1
 423 509 l 2
 424.333007812 486.333007812 412.166992188 439.333007812 386.5 368 c 128
 360.833007812 296.666992188 344 256 336 246 c 1
 312.666992188 240 297.666992188 243 291 255 c 1
 290 287 l 1
 286 397 l 2
 285.333007812 417 278.666992188 436 266 454 c 1
 263 453 l 1
 252.333007812 427.666992188 239.333007812 402.333007812 224 377 c 1
 178 342 l 1
 147 322 l 1
 133.666992188 317.333007812 125.333007812 320.333007812 122 331 c 1
 160 553 l 1
 160 575 154 586 142 586 c 2
 97 586 l 1
 97 800 l 1
EndSplineSet
EndChar

StartChar: uniE0B6
Encoding: 57526 57526 125
Width: 1015
Flags: HW
LayerCount: 2
Fore
SplineSet
1126 800 m 1
 1126 586 l 1
 782 586 l 2
 756.666992188 585.333007812 743.333007812 573.666992188 742 551 c 1
 730 514.333007812 770.666992188 420.666992188 864 270 c 1
 870 237 l 1
 856.666992188 93.6669921875 841.666992188 22.3330078125 825 23 c 2
 810 24 l 1
 754.666992188 100.666992188 706.333007812 209.333007812 665 350 c 0
 639 444.666992188 622 523.333007812 614 586 c 1
 614 800 l 1
 1126 800 l 1
130 800 m 1
 181 800 l 1
 198.333007812 875.333007812 221.666992188 944.666992188 251 1008 c 1
 318.333007812 1129.33300781 392.666992188 1190.66699219 474 1192 c 0
 560.666992188 1194 622.333007812 1137 659 1021 c 1
 683 927 693.333007812 853.333007812 690 800 c 1
 614 586 l 1
 599 780 l 1
 593.666992188 810.666992188 586.666992188 842.333007812 578 875 c 0
 545.333007812 974.333007812 488.666992188 1011 408 985 c 1
 344.666992188 951.666992188 296.666992188 885.666992188 264 787 c 1
 264 769.666992188 281.666992188 746 317 716 c 1
 379.666992188 619.333007812 424 563.666992188 450 549 c 1
 455 528 l 1
 456 509 l 2
 457.333007812 486.333007812 445.166992188 439.333007812 419.5 368 c 128
 393.833007812 296.666992188 377 256 369 246 c 1
 345.666992188 240 330.666992188 243 324 255 c 1
 323 287 l 1
 319 397 l 2
 318.333007812 417 311.666992188 436 299 454 c 1
 296 453 l 1
 285.333007812 427.666992188 272.333007812 402.333007812 257 377 c 1
 211 342 l 1
 180 322 l 1
 166.666992188 317.333007812 158.333007812 320.333007812 155 331 c 1
 193 553 l 1
 193 575 187 586 175 586 c 2
 130 586 l 1
 130 800 l 1
EndSplineSet
EndChar

StartChar: uniE0B7
Encoding: 57527 57527 126
Width: 979
Flags: HW
LayerCount: 2
Fore
SplineSet
201 800 m 1
 201 586 l 1
 -54 586 l 1
 -54 800 l 1
 201 800 l 1
1090 800 m 1
 1090 586 l 1
 746 586 l 2
 720.666992188 585.333007812 707.333007812 573.666992188 706 551 c 1
 694 514.333007812 734.666992188 420.666992188 828 270 c 1
 834 237 l 1
 820.666992188 93.6669921875 805.666992188 22.3330078125 789 23 c 2
 774 24 l 1
 718.666992188 100.666992188 670.333007812 209.333007812 629 350 c 0
 603 444.666992188 586 523.333007812 578 586 c 1
 578 800 l 1
 1090 800 l 1
94 800 m 1
 145 800 l 1
 162.333007812 875.333007812 185.666992188 944.666992188 215 1008 c 1
 282.333007812 1129.33300781 356.666992188 1190.66699219 438 1192 c 0
 524.666992188 1194 586.333007812 1137 623 1021 c 1
 647 927 657.333007812 853.333007812 654 800 c 1
 578 586 l 1
 563 780 l 1
 557.666992188 810.666992188 550.666992188 842.333007812 542 875 c 0
 509.333007812 974.333007812 452.666992188 1011 372 985 c 1
 308.666992188 951.666992188 260.666992188 885.666992188 228 787 c 1
 228 769.666992188 245.666992188 746 281 716 c 1
 343.666992188 619.333007812 388 563.666992188 414 549 c 1
 419 528 l 1
 420 509 l 2
 421.333007812 486.333007812 409.166992188 439.333007812 383.5 368 c 128
 357.833007812 296.666992188 341 256 333 246 c 1
 309.666992188 240 294.666992188 243 288 255 c 1
 287 287 l 1
 283 397 l 2
 282.333007812 417 275.666992188 436 263 454 c 1
 260 453 l 1
 249.333007812 427.666992188 236.333007812 402.333007812 221 377 c 1
 175 342 l 1
 144 322 l 1
 130.666992188 317.333007812 122.333007812 320.333007812 119 331 c 1
 157 553 l 1
 157 575 151 586 139 586 c 2
 94 586 l 1
 94 800 l 1
EndSplineSet
EndChar

StartChar: uniE0B8
Encoding: 57528 57528 127
Width: 1516
Flags: HW
LayerCount: 2
Fore
SplineSet
176 800 m 1
 176 586 l 1
 -54 586 l 1
 -54 800 l 1
 176 800 l 1
1066 800 m 1
 1176.66699219 796.666992188 1249.33300781 778.666992188 1284 746 c 1
 1338 701.333007812 1369 631.666992188 1377 537 c 1
 1379 431 1359.66699219 353 1319 303 c 1
 1283.66699219 281 1266 287.333007812 1266 322 c 2
 1266 332 l 1
 1272 366 l 1
 1270.66699219 473.333007812 1246 541 1198 569 c 1
 1172 579.666992188 1128 585.666992188 1066 587 c 1
 1066 800 l 1
1090 800 m 1
 1090 586 l 1
 746 586 l 2
 720.666992188 585.333007812 707.333007812 573.666992188 706 551 c 1
 694 514.333007812 734.666992188 420.666992188 828 270 c 1
 834 237 l 1
 820.666992188 93.6669921875 805.666992188 22.3330078125 789 23 c 2
 774 24 l 1
 718.666992188 100.666992188 670.333007812 209.333007812 629 350 c 0
 603 444.666992188 586 523.333007812 578 586 c 1
 578 800 l 1
 1090 800 l 1
94 800 m 1
 145 800 l 1
 162.333007812 875.333007812 185.666992188 944.666992188 215 1008 c 1
 282.333007812 1129.33300781 356.666992188 1190.66699219 438 1192 c 0
 524.666992188 1194 586.333007812 1137 623 1021 c 1
 647 927 657.333007812 853.333007812 654 800 c 1
 578 586 l 1
 563 780 l 1
 557.666992188 810.666992188 550.666992188 842.333007812 542 875 c 0
 509.333007812 974.333007812 452.666992188 1011 372 985 c 1
 308.666992188 951.666992188 260.666992188 885.666992188 228 787 c 1
 228 769.666992188 245.666992188 746 281 716 c 1
 343.666992188 619.333007812 388 563.666992188 414 549 c 1
 419 528 l 1
 420 509 l 2
 421.333007812 486.333007812 409.166992188 439.333007812 383.5 368 c 128
 357.833007812 296.666992188 341 256 333 246 c 1
 309.666992188 240 294.666992188 243 288 255 c 1
 287 287 l 1
 283 397 l 2
 282.333007812 417 275.666992188 436 263 454 c 1
 260 453 l 1
 249.333007812 427.666992188 236.333007812 402.333007812 221 377 c 1
 175 342 l 1
 144 322 l 1
 130.666992188 317.333007812 122.333007812 320.333007812 119 331 c 1
 157 553 l 1
 157 575 151 586 139 586 c 2
 94 586 l 1
 94 800 l 1
EndSplineSet
EndChar

StartChar: uniE0AE
Encoding: 57518 57518 128
Width: 967
Flags: HW
LayerCount: 2
Fore
SplineSet
687 327 m 1
 745 327 779.333007812 365.333007812 790 442 c 0
 796.666992188 482 797 530 791 586 c 1
 602 586 l 1
 584 582.666992188 575 551.333007812 575 492 c 0
 579 388 616.333007812 333 687 327 c 1
871 586 m 2
 871.666992188 516.666992188 871 459.333007812 869 414 c 1
 849 250.666992188 788.666992188 171 688 175 c 1
 625.333007812 172.333007812 579.333007812 202 550 264 c 0
 518.666992188 336.666992188 506 444 512 586 c 0
 519.333007812 707.333007812 555.666992188 778.666992188 621 800 c 1
 871 800 l 1
 871 586 l 2
100 800 m 1
 136 800 l 2
 142.666992188 799.333007812 155 826.333007812 173 881 c 0
 244.333007812 1077 366.333007812 1176.66699219 539 1180 c 0
 635 1179.33300781 713.5 1138.33300781 774.5 1057 c 128
 835.5 975.666992188 867.666992188 890 871 800 c 1
 838 586 l 1
 809 746 l 1
 755 918.666992188 665.333007812 1010 540 1020 c 1
 444.666992188 1023.33300781 363.666992188 986.333007812 297 909 c 1
 254.333007812 846.333007812 232 800.666992188 230 772 c 0
 226.666992188 760 245.666992188 738 287 706 c 0
 332.333007812 668 380 602.333007812 430 509 c 1
 435 488 l 1
 436 459 l 2
 437.333007812 436.333007812 423.5 391 394.5 323 c 128
 365.5 255 347 216 339 206 c 0
 309.666992188 174 293.333007812 177 290 215 c 1
 290 247 l 2
 288.666992188 360.333007812 281.666992188 426 269 444 c 1
 266 443 l 1
 255.333007812 417.666992188 242.333007812 389 227 357 c 1
 201.666992188 313.666992188 169.666992188 292 131 292 c 1
 124 301 l 1
 161 532 l 1
 159.666992188 567.333007812 153.666992188 585.333007812 143 586 c 2
 100 586 l 1
 100 800 l 1
EndSplineSet
EndChar

StartChar: uniE0AF
Encoding: 57519 57519 129
Width: 1294
Flags: HW
LayerCount: 2
Fore
SplineSet
864 800 m 1
 974.666992188 796.666992188 1047.33300781 778.666992188 1082 746 c 1
 1136 701.333007812 1167 631.666992188 1175 537 c 1
 1177 431 1157.66699219 353 1117 303 c 1
 1081.66699219 281 1064 287.333007812 1064 322 c 2
 1064 332 l 1
 1070 366 l 1
 1068.66699219 473.333007812 1044 541 996 569 c 1
 970 579.666992188 926 585.666992188 864 587 c 1
 864 800 l 1
687 327 m 1
 745 327 779.333007812 365.333007812 790 442 c 0
 796.666992188 482 797 530 791 586 c 1
 602 586 l 1
 584 582.666992188 575 551.333007812 575 492 c 0
 579 388 616.333007812 333 687 327 c 1
871 586 m 2
 871.666992188 516.666992188 871 459.333007812 869 414 c 1
 849 250.666992188 788.666992188 171 688 175 c 1
 625.333007812 172.333007812 579.333007812 202 550 264 c 0
 518.666992188 336.666992188 506 444 512 586 c 0
 519.333007812 707.333007812 555.666992188 778.666992188 621 800 c 1
 871 800 l 1
 871 586 l 2
100 800 m 1
 136 800 l 2
 142.666992188 799.333007812 155 826.333007812 173 881 c 0
 244.333007812 1077 366.333007812 1176.66699219 539 1180 c 0
 635 1179.33300781 713.5 1138.33300781 774.5 1057 c 128
 835.5 975.666992188 867.666992188 890 871 800 c 1
 838 586 l 1
 809 746 l 1
 755 918.666992188 665.333007812 1010 540 1020 c 1
 444.666992188 1023.33300781 363.666992188 986.333007812 297 909 c 1
 254.333007812 846.333007812 232 800.666992188 230 772 c 0
 226.666992188 760 245.666992188 738 287 706 c 0
 332.333007812 668 380 602.333007812 430 509 c 1
 435 488 l 1
 436 459 l 2
 437.333007812 436.333007812 423.5 391 394.5 323 c 128
 365.5 255 347 216 339 206 c 0
 309.666992188 174 293.333007812 177 290 215 c 1
 290 247 l 2
 288.666992188 360.333007812 281.666992188 426 269 444 c 1
 266 443 l 1
 255.333007812 417.666992188 242.333007812 389 227 357 c 1
 201.666992188 313.666992188 169.666992188 292 131 292 c 1
 124 301 l 1
 161 532 l 1
 159.666992188 567.333007812 153.666992188 585.333007812 143 586 c 2
 100 586 l 1
 100 800 l 1
EndSplineSet
EndChar

StartChar: uniE0B9
Encoding: 57529 57529 130
Width: 967
Flags: HW
LayerCount: 2
Fore
SplineSet
1010 800 m 5
 1010 586 l 5
 710 586 l 5
 710 800 l 5
 1010 800 l 5
687 327 m 5
 745 327 779.333007812 365.333007812 790 442 c 4
 796.666992188 482 797 530 791 586 c 5
 602 586 l 5
 584 582.666992188 575 551.333007812 575 492 c 4
 579 388 616.333007812 333 687 327 c 5
871 586 m 6
 871.666992188 516.666992188 871 459.333007812 869 414 c 5
 849 250.666992188 788.666992188 171 688 175 c 5
 625.333007812 172.333007812 579.333007812 202 550 264 c 4
 518.666992188 336.666992188 506 444 512 586 c 4
 519.333007812 707.333007812 555.666992188 778.666992188 621 800 c 5
 871 800 l 5
 871 586 l 6
100 800 m 5
 136 800 l 6
 142.666992188 799.333007812 155 826.333007812 173 881 c 4
 244.333007812 1077 366.333007812 1176.66699219 539 1180 c 4
 635 1179.33300781 713.5 1138.33300781 774.5 1057 c 132
 835.5 975.666992188 867.666992188 890 871 800 c 5
 838 586 l 5
 809 746 l 5
 755 918.666992188 665.333007812 1010 540 1020 c 5
 444.666992188 1023.33300781 363.666992188 986.333007812 297 909 c 5
 254.333007812 846.333007812 232 800.666992188 230 772 c 4
 226.666992188 760 245.666992188 738 287 706 c 4
 332.333007812 668 380 602.333007812 430 509 c 5
 435 488 l 5
 436 459 l 6
 437.333007812 436.333007812 423.5 391 394.5 323 c 132
 365.5 255 347 216 339 206 c 4
 309.666992188 174 293.333007812 177 290 215 c 5
 290 247 l 6
 288.666992188 360.333007812 281.666992188 426 269 444 c 5
 266 443 l 5
 255.333007812 417.666992188 242.333007812 389 227 357 c 5
 201.666992188 313.666992188 169.666992188 292 131 292 c 5
 124 301 l 5
 161 532 l 5
 159.666992188 567.333007812 153.666992188 585.333007812 143 586 c 6
 100 586 l 5
 100 800 l 5
EndSplineSet
EndChar

StartChar: uniE0BA
Encoding: 57530 57530 131
Width: 967
Flags: HW
LayerCount: 2
Fore
SplineSet
250 800 m 5
 250 586 l 5
 -50 586 l 5
 -50 800 l 5
 250 800 l 5
1010 800 m 1
 1010 586 l 1
 710 586 l 1
 710 800 l 1
 1010 800 l 1
687 327 m 1
 745 327 779.333007812 365.333007812 790 442 c 0
 796.666992188 482 797 530 791 586 c 1
 602 586 l 1
 584 582.666992188 575 551.333007812 575 492 c 0
 579 388 616.333007812 333 687 327 c 1
871 586 m 2
 871.666992188 516.666992188 871 459.333007812 869 414 c 1
 849 250.666992188 788.666992188 171 688 175 c 1
 625.333007812 172.333007812 579.333007812 202 550 264 c 0
 518.666992188 336.666992188 506 444 512 586 c 0
 519.333007812 707.333007812 555.666992188 778.666992188 621 800 c 1
 871 800 l 1
 871 586 l 2
100 800 m 1
 136 800 l 2
 142.666992188 799.333007812 155 826.333007812 173 881 c 0
 244.333007812 1077 366.333007812 1176.66699219 539 1180 c 0
 635 1179.33300781 713.5 1138.33300781 774.5 1057 c 128
 835.5 975.666992188 867.666992188 890 871 800 c 1
 838 586 l 1
 809 746 l 1
 755 918.666992188 665.333007812 1010 540 1020 c 1
 444.666992188 1023.33300781 363.666992188 986.333007812 297 909 c 1
 254.333007812 846.333007812 232 800.666992188 230 772 c 0
 226.666992188 760 245.666992188 738 287 706 c 0
 332.333007812 668 380 602.333007812 430 509 c 1
 435 488 l 1
 436 459 l 2
 437.333007812 436.333007812 423.5 391 394.5 323 c 128
 365.5 255 347 216 339 206 c 0
 309.666992188 174 293.333007812 177 290 215 c 1
 290 247 l 2
 288.666992188 360.333007812 281.666992188 426 269 444 c 1
 266 443 l 1
 255.333007812 417.666992188 242.333007812 389 227 357 c 1
 201.666992188 313.666992188 169.666992188 292 131 292 c 1
 124 301 l 1
 161 532 l 1
 159.666992188 567.333007812 153.666992188 585.333007812 143 586 c 2
 100 586 l 1
 100 800 l 1
EndSplineSet
EndChar

StartChar: uniE0BB
Encoding: 57531 57531 132
Width: 967
Flags: HW
LayerCount: 2
Fore
SplineSet
250 800 m 5
 250 586 l 5
 -50 586 l 5
 -50 800 l 5
 250 800 l 5
687 327 m 1
 745 327 779.333007812 365.333007812 790 442 c 0
 796.666992188 482 797 530 791 586 c 1
 602 586 l 1
 584 582.666992188 575 551.333007812 575 492 c 0
 579 388 616.333007812 333 687 327 c 1
871 586 m 2
 871.666992188 516.666992188 871 459.333007812 869 414 c 1
 849 250.666992188 788.666992188 171 688 175 c 1
 625.333007812 172.333007812 579.333007812 202 550 264 c 0
 518.666992188 336.666992188 506 444 512 586 c 0
 519.333007812 707.333007812 555.666992188 778.666992188 621 800 c 1
 871 800 l 1
 871 586 l 2
100 800 m 1
 136 800 l 2
 142.666992188 799.333007812 155 826.333007812 173 881 c 0
 244.333007812 1077 366.333007812 1176.66699219 539 1180 c 0
 635 1179.33300781 713.5 1138.33300781 774.5 1057 c 128
 835.5 975.666992188 867.666992188 890 871 800 c 1
 838 586 l 1
 809 746 l 1
 755 918.666992188 665.333007812 1010 540 1020 c 1
 444.666992188 1023.33300781 363.666992188 986.333007812 297 909 c 1
 254.333007812 846.333007812 232 800.666992188 230 772 c 0
 226.666992188 760 245.666992188 738 287 706 c 0
 332.333007812 668 380 602.333007812 430 509 c 1
 435 488 l 1
 436 459 l 2
 437.333007812 436.333007812 423.5 391 394.5 323 c 128
 365.5 255 347 216 339 206 c 0
 309.666992188 174 293.333007812 177 290 215 c 1
 290 247 l 2
 288.666992188 360.333007812 281.666992188 426 269 444 c 1
 266 443 l 1
 255.333007812 417.666992188 242.333007812 389 227 357 c 1
 201.666992188 313.666992188 169.666992188 292 131 292 c 1
 124 301 l 1
 161 532 l 1
 159.666992188 567.333007812 153.666992188 585.333007812 143 586 c 2
 100 586 l 1
 100 800 l 1
EndSplineSet
EndChar

StartChar: uniE0BC
Encoding: 57532 57532 133
Width: 1315
Flags: HW
LayerCount: 2
Fore
SplineSet
864 800 m 1
 974.666992188 796.666992188 1047.33300781 778.666992188 1082 746 c 1
 1136 701.333007812 1167 631.666992188 1175 537 c 1
 1177 431 1157.66699219 353 1117 303 c 1
 1081.66699219 281 1064 287.333007812 1064 322 c 2
 1064 332 l 1
 1070 366 l 1
 1068.66699219 473.333007812 1044 541 996 569 c 1
 970 579.666992188 926 585.666992188 864 587 c 1
 864 800 l 1
250 800 m 1
 250 586 l 1
 -50 586 l 1
 -50 800 l 1
 250 800 l 1
687 327 m 1
 745 327 779.333007812 365.333007812 790 442 c 0
 796.666992188 482 797 530 791 586 c 1
 602 586 l 1
 584 582.666992188 575 551.333007812 575 492 c 0
 579 388 616.333007812 333 687 327 c 1
871 586 m 2
 871.666992188 516.666992188 871 459.333007812 869 414 c 1
 849 250.666992188 788.666992188 171 688 175 c 1
 625.333007812 172.333007812 579.333007812 202 550 264 c 0
 518.666992188 336.666992188 506 444 512 586 c 0
 519.333007812 707.333007812 555.666992188 778.666992188 621 800 c 1
 871 800 l 1
 871 586 l 2
100 800 m 1
 136 800 l 2
 142.666992188 799.333007812 155 826.333007812 173 881 c 0
 244.333007812 1077 366.333007812 1176.66699219 539 1180 c 0
 635 1179.33300781 713.5 1138.33300781 774.5 1057 c 128
 835.5 975.666992188 867.666992188 890 871 800 c 1
 838 586 l 1
 809 746 l 1
 755 918.666992188 665.333007812 1010 540 1020 c 1
 444.666992188 1023.33300781 363.666992188 986.333007812 297 909 c 1
 254.333007812 846.333007812 232 800.666992188 230 772 c 0
 226.666992188 760 245.666992188 738 287 706 c 0
 332.333007812 668 380 602.333007812 430 509 c 1
 435 488 l 1
 436 459 l 2
 437.333007812 436.333007812 423.5 391 394.5 323 c 128
 365.5 255 347 216 339 206 c 0
 309.666992188 174 293.333007812 177 290 215 c 1
 290 247 l 2
 288.666992188 360.333007812 281.666992188 426 269 444 c 1
 266 443 l 1
 255.333007812 417.666992188 242.333007812 389 227 357 c 1
 201.666992188 313.666992188 169.666992188 292 131 292 c 1
 124 301 l 1
 161 532 l 1
 159.666992188 567.333007812 153.666992188 585.333007812 143 586 c 2
 100 586 l 1
 100 800 l 1
EndSplineSet
EndChar
